<?xml version="1.0" encoding="utf-8" standalone="no"?>
<!DOCTYPE svg PUBLIC "-//W3C//DTD SVG 1.1//EN"
  "http://www.w3.org/Graphics/SVG/1.1/DTD/svg11.dtd">
<!-- Created with matplotlib (https://matplotlib.org/) -->
<svg height="890.934835pt" version="1.1" viewBox="0 0 1130.4 890.934835" width="1130.4pt" xmlns="http://www.w3.org/2000/svg" xmlns:xlink="http://www.w3.org/1999/xlink">
 <defs>
  <style type="text/css">
*{stroke-linecap:butt;stroke-linejoin:round;}
  </style>
 </defs>
 <g id="figure_1">
  <g id="patch_1">
   <path d="M 0 890.934835 
L 1130.4 890.934835 
L 1130.4 0 
L 0 0 
z
" style="fill:#ffffff;"/>
  </g>
  <g id="axes_1">
   <g id="line2d_1">
    <path clip-path="url(#p4aa75e4722)" d="M 640.351515 111.229336 
L 339.745455 336.683881 
" style="fill:none;stroke:#000000;stroke-linecap:round;stroke-opacity:0.2;stroke-width:1.5;"/>
   </g>
   <g id="line2d_2">
    <path clip-path="url(#p4aa75e4722)" d="M 339.745455 336.683881 
L 189.442424 562.138427 
" style="fill:none;stroke:#000000;stroke-linecap:round;stroke-opacity:0.2;stroke-width:1.5;"/>
   </g>
   <g id="line2d_3">
    <path clip-path="url(#p4aa75e4722)" d="M 189.442424 562.138427 
L 114.290909 787.592972 
" style="fill:none;stroke:#000000;stroke-linecap:round;stroke-opacity:0.2;stroke-width:1.5;"/>
   </g>
   <g id="line2d_4">
    <path clip-path="url(#p4aa75e4722)" d="M 189.442424 562.138427 
L 264.593939 787.592972 
" style="fill:none;stroke:#000000;stroke-linecap:round;stroke-opacity:0.2;stroke-width:1.5;"/>
   </g>
   <g id="line2d_5">
    <path clip-path="url(#p4aa75e4722)" d="M 339.745455 336.683881 
L 490.048485 562.138427 
" style="fill:none;stroke:#000000;stroke-linecap:round;stroke-opacity:0.2;stroke-width:1.5;"/>
   </g>
   <g id="line2d_6">
    <path clip-path="url(#p4aa75e4722)" d="M 490.048485 562.138427 
L 414.89697 787.592972 
" style="fill:none;stroke:#000000;stroke-linecap:round;stroke-opacity:0.2;stroke-width:1.5;"/>
   </g>
   <g id="line2d_7">
    <path clip-path="url(#p4aa75e4722)" d="M 490.048485 562.138427 
L 565.2 787.592972 
" style="fill:none;stroke:#000000;stroke-linecap:round;stroke-opacity:0.2;stroke-width:1.5;"/>
   </g>
   <g id="line2d_8">
    <path clip-path="url(#p4aa75e4722)" d="M 640.351515 111.229336 
L 790.654545 336.683881 
" style="fill:none;stroke:#000000;stroke-linecap:round;stroke-opacity:0.2;stroke-width:1.5;"/>
   </g>
   <g id="line2d_9">
    <path clip-path="url(#p4aa75e4722)" d="M 790.654545 336.683881 
L 715.50303 562.138427 
" style="fill:none;stroke:#000000;stroke-linecap:round;stroke-opacity:0.2;stroke-width:1.5;"/>
   </g>
   <g id="line2d_10">
    <path clip-path="url(#p4aa75e4722)" d="M 790.654545 336.683881 
L 940.957576 562.138427 
" style="fill:none;stroke:#000000;stroke-linecap:round;stroke-opacity:0.2;stroke-width:1.5;"/>
   </g>
   <g id="line2d_11">
    <path clip-path="url(#p4aa75e4722)" d="M 940.957576 562.138427 
L 865.806061 787.592972 
" style="fill:none;stroke:#000000;stroke-linecap:round;stroke-opacity:0.2;stroke-width:1.5;"/>
   </g>
   <g id="line2d_12">
    <path clip-path="url(#p4aa75e4722)" d="M 940.957576 562.138427 
L 1016.109091 787.592972 
" style="fill:none;stroke:#000000;stroke-linecap:round;stroke-opacity:0.2;stroke-width:1.5;"/>
   </g>
   <g id="patch_2">
    <path clip-path="url(#p4aa75e4722)" d="M 640.351515 167.592972 
C 655.299326 167.592972 669.636926 161.654144 680.206625 151.084445 
C 690.776323 140.514747 696.715152 126.177147 696.715152 111.229336 
C 696.715152 96.281525 690.776323 81.943925 680.206625 71.374226 
C 669.636926 60.804528 655.299326 54.865699 640.351515 54.865699 
C 625.403704 54.865699 611.066104 60.804528 600.496406 71.374226 
C 589.926707 81.943925 583.987879 96.281525 583.987879 111.229336 
C 583.987879 126.177147 589.926707 140.514747 600.496406 151.084445 
C 611.066104 161.654144 625.403704 167.592972 640.351515 167.592972 
z
" style="fill:#0000ff;stroke:#0000ff;stroke-linejoin:miter;"/>
   </g>
   <g id="patch_3">
    <path clip-path="url(#p4aa75e4722)" d="M 696.715152 111.229336 
C 696.715152 103.678729 695.197906 96.204536 692.253715 89.251593 
C 689.309524 82.298651 684.99798 76.00769 679.575691 70.753126 
C 674.153402 65.498562 667.730116 61.38675 660.688125 58.662409 
C 653.646135 55.938068 646.127972 54.656341 638.581091 54.893511 
C 631.034209 55.130682 623.611362 56.881949 616.75433 60.043084 
C 609.897298 63.204219 603.74487 67.71124 598.663217 73.295903 
C 593.581564 78.880567 589.673541 85.429838 587.171739 92.553928 
C 584.669936 99.678017 583.624993 107.23273 584.0991 114.768438 
L 640.351515 111.229336 
L 696.715152 111.229336 
z
" style="fill:#ffa500;stroke:#ffa500;stroke-linejoin:miter;"/>
   </g>
   <g id="patch_4">
    <path clip-path="url(#p4aa75e4722)" d="M 339.745455 393.047518 
C 354.693266 393.047518 369.030865 387.108689 379.600564 376.538991 
C 390.170263 365.969292 396.109091 351.631692 396.109091 336.683881 
C 396.109091 321.73607 390.170263 307.39847 379.600564 296.828772 
C 369.030865 286.259073 354.693266 280.320245 339.745455 280.320245 
C 324.797643 280.320245 310.460044 286.259073 299.890345 296.828772 
C 289.320646 307.39847 283.381818 321.73607 283.381818 336.683881 
C 283.381818 351.631692 289.320646 365.969292 299.890345 376.538991 
C 310.460044 387.108689 324.797643 393.047518 339.745455 393.047518 
z
" style="fill:#0000ff;stroke:#0000ff;stroke-linejoin:miter;"/>
   </g>
   <g id="patch_5">
    <path clip-path="url(#p4aa75e4722)" d="M 396.109091 336.683881 
C 396.109091 325.466439 392.760363 314.500328 386.493775 305.196518 
C 380.227187 295.892708 371.323551 288.668109 360.928464 284.452285 
L 339.745455 336.683881 
L 396.109091 336.683881 
z
" style="fill:#ffa500;stroke:#ffa500;stroke-linejoin:miter;"/>
   </g>
   <g id="patch_6">
    <path clip-path="url(#p4aa75e4722)" d="M 189.442424 618.502063 
C 204.390235 618.502063 218.727835 612.563235 229.297534 601.993536 
C 239.867232 591.423838 245.806061 577.086238 245.806061 562.138427 
C 245.806061 547.190616 239.867232 532.853016 229.297534 522.283317 
C 218.727835 511.713619 204.390235 505.77479 189.442424 505.77479 
C 174.494613 505.77479 160.157013 511.713619 149.587315 522.283317 
C 139.017616 532.853016 133.078788 547.190616 133.078788 562.138427 
C 133.078788 577.086238 139.017616 591.423838 149.587315 601.993536 
C 160.157013 612.563235 174.494613 618.502063 189.442424 618.502063 
z
" style="fill:#0000ff;stroke:#0000ff;stroke-linejoin:miter;"/>
   </g>
   <g id="patch_7">
    <path clip-path="url(#p4aa75e4722)" d="M 245.806061 562.138427 
C 245.806061 557.967772 245.343146 553.809973 244.425826 549.74145 
C 243.508506 545.672927 242.142435 541.71876 240.352721 537.951629 
L 189.442424 562.138427 
L 245.806061 562.138427 
z
" style="fill:#ffa500;stroke:#ffa500;stroke-linejoin:miter;"/>
   </g>
   <g id="patch_8">
    <path clip-path="url(#p4aa75e4722)" d="M 114.290909 843.956609 
C 129.23872 843.956609 143.57632 838.01778 154.146019 827.448082 
C 164.715717 816.878383 170.654545 802.540783 170.654545 787.592972 
C 170.654545 772.645161 164.715717 758.307561 154.146019 747.737863 
C 143.57632 737.168164 129.23872 731.229336 114.290909 731.229336 
C 99.343098 731.229336 85.005498 737.168164 74.4358 747.737863 
C 63.866101 758.307561 57.927273 772.645161 57.927273 787.592972 
C 57.927273 802.540783 63.866101 816.878383 74.4358 827.448082 
C 85.005498 838.01778 99.343098 843.956609 114.290909 843.956609 
z
" style="fill:#0000ff;stroke:#0000ff;stroke-linejoin:miter;"/>
   </g>
   <g id="patch_9">
    <path clip-path="url(#p4aa75e4722)" d="M 170.654545 787.592972 
C 170.654545 786.5574 170.626006 785.522025 170.568958 784.488026 
C 170.511911 783.454026 170.426378 782.421795 170.312456 781.392509 
L 114.290909 787.592972 
L 170.654545 787.592972 
z
" style="fill:#ffa500;stroke:#ffa500;stroke-linejoin:miter;"/>
   </g>
   <g id="patch_10">
    <path clip-path="url(#p4aa75e4722)" d="M 264.593939 843.956609 
C 279.54175 843.956609 293.87935 838.01778 304.449049 827.448082 
C 315.018747 816.878383 320.957576 802.540783 320.957576 787.592972 
C 320.957576 772.645161 315.018747 758.307561 304.449049 747.737863 
C 293.87935 737.168164 279.54175 731.229336 264.593939 731.229336 
C 249.646128 731.229336 235.308528 737.168164 224.73883 747.737863 
C 214.169131 758.307561 208.230303 772.645161 208.230303 787.592972 
C 208.230303 802.540783 214.169131 816.878383 224.73883 827.448082 
C 235.308528 838.01778 249.646128 843.956609 264.593939 843.956609 
z
" style="fill:#0000ff;stroke:#0000ff;stroke-linejoin:miter;"/>
   </g>
   <g id="patch_11">
    <path clip-path="url(#p4aa75e4722)" d="M 320.957576 787.592972 
C 320.957576 776.984385 317.962503 766.588257 312.318394 757.60571 
C 306.674285 748.623162 298.607212 741.413984 289.049205 736.811091 
L 264.593939 787.592972 
L 320.957576 787.592972 
z
" style="fill:#ffa500;stroke:#ffa500;stroke-linejoin:miter;"/>
   </g>
   <g id="patch_12">
    <path clip-path="url(#p4aa75e4722)" d="M 490.048485 618.502063 
C 504.996296 618.502063 519.333896 612.563235 529.903594 601.993536 
C 540.473293 591.423838 546.412121 577.086238 546.412121 562.138427 
C 546.412121 547.190616 540.473293 532.853016 529.903594 522.283317 
C 519.333896 511.713619 504.996296 505.77479 490.048485 505.77479 
C 475.100674 505.77479 460.763074 511.713619 450.193375 522.283317 
C 439.623677 532.853016 433.684848 547.190616 433.684848 562.138427 
C 433.684848 577.086238 439.623677 591.423838 450.193375 601.993536 
C 460.763074 612.563235 475.100674 618.502063 490.048485 618.502063 
z
" style="fill:#0000ff;stroke:#0000ff;stroke-linejoin:miter;"/>
   </g>
   <g id="patch_13">
    <path clip-path="url(#p4aa75e4722)" d="M 546.412121 562.138427 
C 546.412121 552.245279 543.8074 542.524326 538.860826 533.956609 
C 533.914252 525.388891 526.798021 518.27266 518.230303 513.326086 
C 509.662585 508.379512 499.941633 505.77479 490.048485 505.77479 
C 480.155337 505.77479 470.434384 508.379512 461.866667 513.326086 
C 453.298949 518.27266 446.182718 525.388891 441.236144 533.956609 
C 436.28957 542.524326 433.684848 552.245279 433.684848 562.138427 
C 433.684848 572.031575 436.28957 581.752527 441.236144 590.320245 
C 446.182718 598.887962 453.298949 606.004194 461.866667 610.950768 
L 490.048485 562.138427 
L 546.412121 562.138427 
z
" style="fill:#ffa500;stroke:#ffa500;stroke-linejoin:miter;"/>
   </g>
   <g id="patch_14">
    <path clip-path="url(#p4aa75e4722)" d="M 414.89697 843.956609 
C 429.844781 843.956609 444.182381 838.01778 454.752079 827.448082 
C 465.321778 816.878383 471.260606 802.540783 471.260606 787.592972 
C 471.260606 772.645161 465.321778 758.307561 454.752079 747.737863 
C 444.182381 737.168164 429.844781 731.229336 414.89697 731.229336 
C 399.949159 731.229336 385.611559 737.168164 375.04186 747.737863 
C 364.472162 758.307561 358.533333 772.645161 358.533333 787.592972 
C 358.533333 802.540783 364.472162 816.878383 375.04186 827.448082 
C 385.611559 838.01778 399.949159 843.956609 414.89697 843.956609 
z
" style="fill:#0000ff;stroke:#0000ff;stroke-linejoin:miter;"/>
   </g>
   <g id="patch_15">
    <path clip-path="url(#p4aa75e4722)" d="M 471.260606 787.592972 
C 471.260606 779.694469 469.600324 771.883457 466.387714 764.667816 
C 463.175103 757.452174 458.481335 750.991757 452.611604 745.706627 
C 446.741872 740.421497 439.826214 736.42874 432.314291 733.987969 
C 424.802369 731.547197 416.860599 730.712483 409.005365 731.538102 
C 401.150131 732.36372 393.555456 734.83138 386.715152 738.780631 
C 379.874847 742.729883 373.940454 748.073235 369.29783 754.463258 
C 364.655207 760.853281 361.407205 768.148412 359.765014 775.874313 
C 358.122823 783.600215 358.122823 791.585729 359.765014 799.311631 
L 414.89697 787.592972 
L 471.260606 787.592972 
z
" style="fill:#ffa500;stroke:#ffa500;stroke-linejoin:miter;"/>
   </g>
   <g id="patch_16">
    <path clip-path="url(#p4aa75e4722)" d="M 565.2 843.956609 
C 580.147811 843.956609 594.485411 838.01778 605.055109 827.448082 
C 615.624808 816.878383 621.563636 802.540783 621.563636 787.592972 
C 621.563636 772.645161 615.624808 758.307561 605.055109 747.737863 
C 594.485411 737.168164 580.147811 731.229336 565.2 731.229336 
C 550.252189 731.229336 535.914589 737.168164 525.344891 747.737863 
C 514.775192 758.307561 508.836364 772.645161 508.836364 787.592972 
C 508.836364 802.540783 514.775192 816.878383 525.344891 827.448082 
C 535.914589 838.01778 550.252189 843.956609 565.2 843.956609 
z
" style="fill:#0000ff;stroke:#0000ff;stroke-linejoin:miter;"/>
   </g>
   <g id="patch_17">
    <path clip-path="url(#p4aa75e4722)" d="M 621.563636 787.592972 
C 621.563636 780.191367 620.105682 772.861734 617.27321 766.023542 
C 614.440738 759.185351 610.288835 752.971588 605.055109 747.737863 
C 599.821384 742.504138 593.607621 738.352234 586.76943 735.519762 
C 579.931239 732.687291 572.601605 731.229336 565.2 731.229336 
C 557.798395 731.229336 550.468761 732.687291 543.63057 735.519762 
C 536.792379 738.352234 530.578616 742.504138 525.344891 747.737863 
C 520.111165 752.971588 515.959262 759.185351 513.12679 766.023542 
C 510.294318 772.861734 508.836364 780.191367 508.836364 787.592972 
C 508.836364 794.994577 510.294318 802.324211 513.12679 809.162402 
C 515.959262 816.000593 520.111165 822.214357 525.344891 827.448082 
C 530.578616 832.681807 536.792379 836.833711 543.63057 839.666182 
C 550.468761 842.498654 557.798395 843.956609 565.2 843.956609 
C 572.601605 843.956609 579.931239 842.498654 586.76943 839.666182 
C 593.607621 836.833711 599.821384 832.681807 605.055109 827.448082 
C 610.288835 822.214357 614.440738 816.000593 617.27321 809.162402 
C 620.105682 802.324211 621.563636 794.994577 621.563636 787.592972 
M 565.2 787.592972 
M 621.563636 787.592972 
z
" style="fill:#ffa500;stroke:#ffa500;stroke-linejoin:miter;"/>
   </g>
   <g id="patch_18">
    <path clip-path="url(#p4aa75e4722)" d="M 790.654545 393.047518 
C 805.602357 393.047518 819.939956 387.108689 830.509655 376.538991 
C 841.079354 365.969292 847.018182 351.631692 847.018182 336.683881 
C 847.018182 321.73607 841.079354 307.39847 830.509655 296.828772 
C 819.939956 286.259073 805.602357 280.320245 790.654545 280.320245 
C 775.706734 280.320245 761.369135 286.259073 750.799436 296.828772 
C 740.229737 307.39847 734.290909 321.73607 734.290909 336.683881 
C 734.290909 351.631692 740.229737 365.969292 750.799436 376.538991 
C 761.369135 387.108689 775.706734 393.047518 790.654545 393.047518 
z
" style="fill:#0000ff;stroke:#0000ff;stroke-linejoin:miter;"/>
   </g>
   <g id="patch_19">
    <path clip-path="url(#p4aa75e4722)" d="M 847.018182 336.683881 
C 847.018182 330.232074 845.910398 323.827907 843.743195 317.75098 
C 841.575993 311.674053 838.381376 306.014109 834.29882 301.018256 
C 830.216264 296.022403 825.306058 291.76442 819.782579 288.430206 
C 814.259099 285.095991 808.203916 282.734786 801.881392 281.449676 
C 795.558868 280.164567 789.062375 279.974532 782.675542 280.887869 
C 776.28871 281.801206 770.105859 283.804426 764.396927 286.810071 
C 758.687994 289.815716 753.537289 293.779399 749.169687 298.528068 
C 744.802085 303.276738 741.282086 308.740267 738.76337 314.680122 
C 736.244654 320.619977 734.764417 326.94844 734.387284 333.389215 
C 734.010152 339.82999 734.741694 346.287961 736.549972 352.481178 
C 738.358249 358.674396 741.216558 364.511399 745.000108 369.73735 
C 748.783657 374.963302 753.436571 379.501024 758.755709 383.152406 
C 764.074847 386.803787 769.981655 389.514904 776.218249 391.167391 
C 782.454842 392.819878 788.929119 393.389333 795.358419 392.850892 
C 801.787718 392.312451 808.077093 390.674067 813.951955 388.00727 
C 819.826817 385.340472 825.200407 381.684645 829.838119 377.199398 
L 790.654545 336.683881 
L 847.018182 336.683881 
z
" style="fill:#ffa500;stroke:#ffa500;stroke-linejoin:miter;"/>
   </g>
   <g id="patch_20">
    <path clip-path="url(#p4aa75e4722)" d="M 715.50303 618.502063 
C 730.450841 618.502063 744.788441 612.563235 755.35814 601.993536 
C 765.927838 591.423838 771.866667 577.086238 771.866667 562.138427 
C 771.866667 547.190616 765.927838 532.853016 755.35814 522.283317 
C 744.788441 511.713619 730.450841 505.77479 715.50303 505.77479 
C 700.555219 505.77479 686.217619 511.713619 675.647921 522.283317 
C 665.078222 532.853016 659.139394 547.190616 659.139394 562.138427 
C 659.139394 577.086238 665.078222 591.423838 675.647921 601.993536 
C 686.217619 612.563235 700.555219 618.502063 715.50303 618.502063 
z
" style="fill:#0000ff;stroke:#0000ff;stroke-linejoin:miter;"/>
   </g>
   <g id="patch_21">
    <path clip-path="url(#p4aa75e4722)" d="M 940.957576 618.502063 
C 955.905387 618.502063 970.242987 612.563235 980.812685 601.993536 
C 991.382384 591.423838 997.321212 577.086238 997.321212 562.138427 
C 997.321212 547.190616 991.382384 532.853016 980.812685 522.283317 
C 970.242987 511.713619 955.905387 505.77479 940.957576 505.77479 
C 926.009765 505.77479 911.672165 511.713619 901.102466 522.283317 
C 890.532768 532.853016 884.593939 547.190616 884.593939 562.138427 
C 884.593939 577.086238 890.532768 591.423838 901.102466 601.993536 
C 911.672165 612.563235 926.009765 618.502063 940.957576 618.502063 
z
" style="fill:#0000ff;stroke:#0000ff;stroke-linejoin:miter;"/>
   </g>
   <g id="patch_22">
    <path clip-path="url(#p4aa75e4722)" d="M 997.321212 562.138427 
C 997.321212 555.32225 996.084769 548.562261 993.672047 542.187385 
C 991.259324 535.812509 987.710098 529.927848 983.197068 524.819734 
C 978.684037 519.711621 973.281606 515.464271 967.252644 512.284351 
C 961.223683 509.104431 954.667588 507.044368 947.903364 506.204398 
C 941.13914 505.364429 934.278307 505.758402 927.654698 507.367148 
C 921.031088 508.975894 914.753902 511.77289 909.128575 515.62204 
C 903.503247 519.471191 898.62252 524.309036 894.723878 529.900177 
C 890.825237 535.491319 887.972956 541.743578 886.305822 548.352733 
C 884.638688 554.961888 884.184187 561.818977 884.964432 568.59035 
C 885.744677 575.361723 887.746805 581.935742 890.873398 587.99253 
C 893.999991 594.049318 898.199501 599.48902 903.26759 604.046952 
C 908.335679 608.604884 914.188792 612.205901 920.542128 614.674785 
C 926.895464 617.14367 933.644278 618.439718 940.46019 618.499868 
C 947.276102 618.560018 954.046739 617.383278 960.442657 615.026905 
C 966.838576 612.670531 972.754329 609.173374 977.902069 604.705596 
C 983.04981 600.237818 987.344668 594.873078 990.577667 588.872413 
L 940.957576 562.138427 
L 997.321212 562.138427 
z
" style="fill:#ffa500;stroke:#ffa500;stroke-linejoin:miter;"/>
   </g>
   <g id="patch_23">
    <path clip-path="url(#p4aa75e4722)" d="M 865.806061 843.956609 
C 880.753872 843.956609 895.091472 838.01778 905.66117 827.448082 
C 916.230869 816.878383 922.169697 802.540783 922.169697 787.592972 
C 922.169697 772.645161 916.230869 758.307561 905.66117 747.737863 
C 895.091472 737.168164 880.753872 731.229336 865.806061 731.229336 
C 850.85825 731.229336 836.52065 737.168164 825.950951 747.737863 
C 815.381253 758.307561 809.442424 772.645161 809.442424 787.592972 
C 809.442424 802.540783 815.381253 816.878383 825.950951 827.448082 
C 836.52065 838.01778 850.85825 843.956609 865.806061 843.956609 
z
" style="fill:#0000ff;stroke:#0000ff;stroke-linejoin:miter;"/>
   </g>
   <g id="patch_24">
    <path clip-path="url(#p4aa75e4722)" d="M 922.169697 787.592972 
C 922.169697 781.348437 921.131948 775.147091 919.098926 769.242767 
C 917.065904 763.338443 914.065732 757.812814 910.221212 752.892053 
C 906.376692 747.971292 901.741005 743.723467 896.503897 740.322449 
C 891.266789 736.921432 885.500704 734.414266 879.441658 732.903577 
C 873.382613 731.392887 867.114419 730.899569 860.893646 731.443816 
C 854.672873 731.988064 848.585571 733.562347 842.880904 736.102228 
C 837.176238 738.642109 831.933117 742.112455 827.366153 746.371218 
C 822.799189 750.629981 818.971555 755.61825 816.039924 761.131848 
C 813.108292 766.645445 811.113215 772.608102 810.136354 778.775757 
C 809.159494 784.943411 809.214362 791.230748 810.298715 797.380415 
C 811.383067 803.530082 813.481903 809.457012 816.509313 814.918605 
C 819.536724 820.380199 823.450832 825.300907 828.091426 829.479317 
C 832.73202 833.657726 838.034908 837.036039 843.783033 839.475973 
C 849.531158 841.915907 855.645008 843.383713 861.874332 843.81931 
C 868.103656 844.254906 874.362285 843.652269 880.394043 842.036064 
C 886.425801 840.41986 892.147252 837.812444 897.324206 834.320544 
L 865.806061 787.592972 
L 922.169697 787.592972 
z
" style="fill:#ffa500;stroke:#ffa500;stroke-linejoin:miter;"/>
   </g>
   <g id="patch_25">
    <path clip-path="url(#p4aa75e4722)" d="M 1016.109091 843.956609 
C 1031.056902 843.956609 1045.394502 838.01778 1055.9642 827.448082 
C 1066.533899 816.878383 1072.472727 802.540783 1072.472727 787.592972 
C 1072.472727 772.645161 1066.533899 758.307561 1055.9642 747.737863 
C 1045.394502 737.168164 1031.056902 731.229336 1016.109091 731.229336 
C 1001.16128 731.229336 986.82368 737.168164 976.253981 747.737863 
C 965.684283 758.307561 959.745455 772.645161 959.745455 787.592972 
C 959.745455 802.540783 965.684283 816.878383 976.253981 827.448082 
C 986.82368 838.01778 1001.16128 843.956609 1016.109091 843.956609 
z
" style="fill:#0000ff;stroke:#0000ff;stroke-linejoin:miter;"/>
   </g>
   <g id="patch_26">
    <path clip-path="url(#p4aa75e4722)" d="M 1072.472727 787.592972 
C 1072.472727 780.191367 1071.014772 772.861734 1068.182301 766.023542 
C 1065.349829 759.185351 1061.197925 752.971588 1055.9642 747.737863 
C 1050.730475 742.504138 1044.516712 738.352234 1037.678521 735.519762 
C 1030.840329 732.687291 1023.510696 731.229336 1016.109091 731.229336 
C 1008.707486 731.229336 1001.377852 732.687291 994.539661 735.519762 
C 987.70147 738.352234 981.487706 742.504138 976.253981 747.737863 
C 971.020256 752.971588 966.868352 759.185351 964.035881 766.023542 
C 961.203409 772.861734 959.745455 780.191367 959.745455 787.592972 
C 959.745455 794.994577 961.203409 802.324211 964.035881 809.162402 
C 966.868352 816.000593 971.020256 822.214357 976.253981 827.448082 
C 981.487706 832.681807 987.70147 836.833711 994.539661 839.666182 
C 1001.377852 842.498654 1008.707486 843.956609 1016.109091 843.956609 
C 1023.510696 843.956609 1030.840329 842.498654 1037.678521 839.666182 
C 1044.516712 836.833711 1050.730475 832.681807 1055.9642 827.448082 
C 1061.197925 822.214357 1065.349829 816.000593 1068.182301 809.162402 
C 1071.014772 802.324211 1072.472727 794.994577 1072.472727 787.592972 
M 1016.109091 787.592972 
M 1072.472727 787.592972 
z
" style="fill:#ffa500;stroke:#ffa500;stroke-linejoin:miter;"/>
   </g>
   <g id="text_1">
    <g id="patch_27">
     <path d="M 593.796341 30.643881 
L 686.906689 30.643881 
L 686.906689 3.24 
L 593.796341 3.24 
z
" style="fill:#ffffff;stroke:#000000;stroke-linejoin:miter;"/>
    </g>
    <!-- $x_1 &gt; 0.17$ -->
    <defs>
     <path d="M 47.40625 41 
C 44.203125 40.390625 43 37.984375 43 36.09375 
C 43 33.6875 44.90625 32.890625 46.296875 32.890625 
C 49.296875 32.890625 51.40625 35.484375 51.40625 38.1875 
C 51.40625 42.09375 46.59375 44 42.40625 44 
C 36.296875 44 32.90625 38.296875 32 36.390625 
C 29.703125 43.59375 23.5 44 21.703125 44 
C 11.5 44 6.09375 31.140625 6.09375 28.890625 
C 6.09375 28.484375 6.5 27.96875 7.203125 27.96875 
C 8 27.96875 8.203125 28.578125 8.40625 28.984375 
C 11.796875 40.1875 18.5 41.984375 21.40625 41.984375 
C 25.90625 41.984375 26.796875 38.09375 26.796875 35.6875 
C 26.796875 33.484375 26.203125 31.140625 25 26.21875 
L 21.59375 12.15625 
C 20.09375 6.09375 17.203125 1 11.90625 1 
C 11.40625 1 8.90625 1 6.796875 1.96875 
C 10.40625 2.59375 11.203125 5.59375 11.203125 6.796875 
C 11.203125 8.796875 9.703125 10 7.796875 10 
C 5.40625 10 2.796875 7.890625 2.796875 4.6875 
C 2.796875 0.890625 7.5 -1 11.796875 -1 
C 16.59375 -1 20 2.390625 22.09375 6.484375 
C 23.703125 1 28.703125 -1 32.40625 -1 
C 42.59375 -1 48 11.734375 48 14 
C 48 14.515625 47.59375 14.921875 47 14.921875 
C 46.09375 14.921875 46 14.40625 45.703125 13.59375 
C 43 4.6875 37.203125 1 32.703125 1 
C 29.203125 1 27.296875 3.1875 27.296875 7.296875 
C 27.296875 9.484375 27.703125 11.125 29.296875 17.90625 
L 32.796875 31.859375 
C 34.296875 37.890625 37.703125 41.984375 42.296875 41.984375 
C 42.5 41.984375 45.296875 41.984375 47.40625 41 
z
" id="CMMI12-120"/>
     <path d="M 26.59375 63.796875 
C 26.59375 65.890625 26.5 66 25.09375 66 
C 21.203125 61.359375 15.296875 59.890625 9.703125 59.6875 
C 9.40625 59.6875 8.90625 59.6875 8.796875 59.5 
C 8.703125 59.296875 8.703125 59.09375 8.703125 57 
C 11.796875 57 17 57.59375 21 59.984375 
L 21 7.296875 
C 21 3.796875 20.796875 2.59375 12.203125 2.59375 
L 9.203125 2.59375 
L 9.203125 0 
C 14 0.09375 19 0.1875 23.796875 0.1875 
C 28.59375 0.1875 33.59375 0.09375 38.40625 0 
L 38.40625 2.59375 
L 35.40625 2.59375 
C 26.796875 2.59375 26.59375 3.6875 26.59375 7.296875 
z
" id="CMR17-49"/>
     <path d="M 65.90625 22.8125 
C 67.796875 23.734375 67.90625 24.328125 67.90625 25.046875 
C 67.90625 25.640625 67.703125 26.359375 65.90625 27.15625 
L 11.796875 52.296875 
C 10.5 52.890625 10.296875 53 10.09375 53 
C 8.90625 53 8.203125 51.984375 8.203125 51.1875 
C 8.203125 49.984375 9 49.578125 10.296875 48.96875 
L 61.703125 25.046875 
L 10.203125 1.015625 
C 8.203125 0.109375 8.203125 -0.609375 8.203125 -1.203125 
C 8.203125 -2 8.90625 -3 10.09375 -3 
C 10.296875 -3 10.40625 -2.90625 11.796875 -2.3125 
z
" id="CMMI12-62"/>
     <path d="M 42 31.84375 
C 42 37.96875 41.90625 48.421875 37.703125 56.453125 
C 34 63.484375 28.09375 66 22.90625 66 
C 18.09375 66 12 63.78125 8.203125 56.5625 
C 4.203125 49.015625 3.796875 39.671875 3.796875 31.84375 
C 3.796875 26.109375 3.90625 17.375 7 9.734375 
C 11.296875 -0.609375 19 -2 22.90625 -2 
C 27.5 -2 34.5 -0.109375 38.59375 9.4375 
C 41.59375 16.375 42 24.5 42 31.84375 
z
M 22.90625 -0.40625 
C 16.5 -0.40625 12.703125 5.125 11.296875 12.75 
C 10.203125 18.6875 10.203125 27.328125 10.203125 32.953125 
C 10.203125 40.6875 10.203125 47.109375 11.5 53.234375 
C 13.40625 61.78125 19 64.390625 22.90625 64.390625 
C 27 64.390625 32.296875 61.671875 34.203125 53.4375 
C 35.5 47.71875 35.59375 40.984375 35.59375 32.953125 
C 35.59375 26.421875 35.59375 18.375 34.40625 12.453125 
C 32.296875 1.5 26.40625 -0.40625 22.90625 -0.40625 
z
" id="CMR17-48"/>
     <path d="M 18.40625 4.796875 
C 18.40625 7.6875 16 9.6875 13.59375 9.6875 
C 10.703125 9.6875 8.703125 7.296875 8.703125 4.890625 
C 8.703125 2 11.09375 0 13.5 0 
C 16.40625 0 18.40625 2.390625 18.40625 4.796875 
z
" id="CMMI12-58"/>
     <path d="M 45.09375 61.796875 
L 45.09375 64 
L 21.59375 64 
C 9.90625 64 9.703125 65.09375 9.296875 67 
L 7.5 67 
L 4.59375 48.5 
L 6.40625 48.5 
C 6.703125 50.40625 7.40625 55.5 8.59375 57.390625 
C 9.203125 58.1875 16.59375 58.1875 18.296875 58.1875 
L 40.296875 58.1875 
L 29.203125 41.71875 
C 21.796875 30.640625 16.703125 15.671875 16.703125 2.59375 
C 16.703125 1.390625 16.703125 -2 20.296875 -2 
C 23.90625 -2 23.90625 1.390625 23.90625 2.6875 
L 23.90625 7.28125 
C 23.90625 23.65625 26.703125 34.4375 31.296875 41.3125 
z
" id="CMR17-55"/>
    </defs>
    <g style="fill:#262626;" transform="translate(597.756341 22.420693)scale(0.22 -0.22)">
     <use transform="scale(0.996264)" xlink:href="#CMMI12-120"/>
     <use transform="translate(55.43406 -14.943915)scale(0.697382)" xlink:href="#CMR17-49"/>
     <use transform="translate(115.589382 0)scale(0.996264)" xlink:href="#CMMI12-62"/>
     <use transform="translate(219.135487 0)scale(0.996264)" xlink:href="#CMR17-48"/>
     <use transform="translate(264.825964 0)scale(0.996264)" xlink:href="#CMMI12-58"/>
     <use transform="translate(291.923141 0)scale(0.996264)" xlink:href="#CMR17-49"/>
     <use transform="translate(337.613618 0)scale(0.996264)" xlink:href="#CMR17-55"/>
    </g>
   </g>
   <g id="text_2">
    <g id="patch_28">
     <path d="M 293.190281 256.098427 
L 386.300628 256.098427 
L 386.300628 228.694545 
L 293.190281 228.694545 
z
" style="fill:#ffffff;stroke:#000000;stroke-linejoin:miter;"/>
    </g>
    <!-- $x_0 &gt; 0.14$ -->
    <defs>
     <path d="M 33.59375 64.796875 
C 33.59375 66.890625 33.5 67 31.703125 67 
L 2 19.59375 
L 2 17 
L 27.796875 17 
L 27.796875 7.1875 
C 27.796875 3.59375 27.59375 2.59375 20.59375 2.59375 
L 18.703125 2.59375 
L 18.703125 0 
C 21.90625 0.1875 27.296875 0.1875 30.703125 0.1875 
C 34.09375 0.1875 39.5 0.1875 42.703125 0 
L 42.703125 2.59375 
L 40.796875 2.59375 
C 33.796875 2.59375 33.59375 3.59375 33.59375 7.1875 
L 33.59375 17 
L 43.796875 17 
L 43.796875 19.59375 
L 33.59375 19.59375 
z
M 28.09375 58.171875 
L 28.09375 19.59375 
L 4 19.59375 
z
" id="CMR17-52"/>
    </defs>
    <g style="fill:#262626;" transform="translate(297.150281 247.875239)scale(0.22 -0.22)">
     <use transform="scale(0.996264)" xlink:href="#CMMI12-120"/>
     <use transform="translate(55.43406 -14.943915)scale(0.697382)" xlink:href="#CMR17-48"/>
     <use transform="translate(115.589382 0)scale(0.996264)" xlink:href="#CMMI12-62"/>
     <use transform="translate(219.135487 0)scale(0.996264)" xlink:href="#CMR17-48"/>
     <use transform="translate(264.825964 0)scale(0.996264)" xlink:href="#CMMI12-58"/>
     <use transform="translate(291.923141 0)scale(0.996264)" xlink:href="#CMR17-49"/>
     <use transform="translate(337.613618 0)scale(0.996264)" xlink:href="#CMR17-52"/>
    </g>
   </g>
   <g id="text_3">
    <g id="patch_29">
     <path d="M 134.363634 481.552972 
L 244.521215 481.552972 
L 244.521215 454.149091 
L 134.363634 454.149091 
z
" style="fill:#ffffff;stroke:#000000;stroke-linejoin:miter;"/>
    </g>
    <!-- $x_1 &gt; -0.42$ -->
    <defs>
     <path d="M 65.90625 23 
C 67.59375 23 69.40625 23 69.40625 25 
C 69.40625 27 67.59375 27 65.90625 27 
L 11.796875 27 
C 10.09375 27 8.296875 27 8.296875 25 
C 8.296875 23 10.09375 23 11.796875 23 
z
" id="CMSY10-0"/>
     <path d="M 41.703125 15.46875 
L 39.90625 15.46875 
C 38.90625 8.390625 38.09375 7.1875 37.703125 6.59375 
C 37.203125 5.796875 30 5.796875 28.59375 5.796875 
L 9.40625 5.796875 
C 13 9.6875 20 16.765625 28.5 24.9375 
C 34.59375 30.71875 41.703125 37.5 41.703125 47.390625 
C 41.703125 59.1875 32.296875 66 21.796875 66 
C 10.796875 66 4.09375 56.296875 4.09375 47.296875 
C 4.09375 43.390625 7 42.890625 8.203125 42.890625 
C 9.203125 42.890625 12.203125 43.484375 12.203125 46.984375 
C 12.203125 50.09375 9.59375 51 8.203125 51 
C 7.59375 51 7 50.890625 6.59375 50.6875 
C 8.5 59.1875 14.296875 63.390625 20.40625 63.390625 
C 29.09375 63.390625 34.796875 56.5 34.796875 47.390625 
C 34.796875 38.703125 29.703125 31.21875 24 24.734375 
L 4.09375 2.296875 
L 4.09375 0 
L 39.296875 0 
z
" id="CMR17-50"/>
    </defs>
    <g style="fill:#262626;" transform="translate(138.323634 473.329784)scale(0.22 -0.22)">
     <use transform="scale(0.996264)" xlink:href="#CMMI12-120"/>
     <use transform="translate(55.43406 -14.943915)scale(0.697382)" xlink:href="#CMR17-49"/>
     <use transform="translate(115.589382 0)scale(0.996264)" xlink:href="#CMMI12-62"/>
     <use transform="translate(219.135487 0)scale(0.996264)" xlink:href="#CMSY10-0"/>
     <use transform="translate(296.622954 0)scale(0.996264)" xlink:href="#CMR17-48"/>
     <use transform="translate(342.313432 0)scale(0.996264)" xlink:href="#CMMI12-58"/>
     <use transform="translate(369.410609 0)scale(0.996264)" xlink:href="#CMR17-52"/>
     <use transform="translate(415.101086 0)scale(0.996264)" xlink:href="#CMR17-50"/>
    </g>
   </g>
   <g id="text_4">
    <g id="patch_30">
     <path d="M 443.493311 481.552972 
L 536.603659 481.552972 
L 536.603659 454.149091 
L 443.493311 454.149091 
z
" style="fill:#ffffff;stroke:#000000;stroke-linejoin:miter;"/>
    </g>
    <!-- $x_0 &gt; 1.33$ -->
    <defs>
     <path d="M 22.09375 34 
C 31 34 34.90625 26.140625 34.90625 17.09375 
C 34.90625 5.03125 28.5 0.390625 22.703125 0.390625 
C 17.40625 0.390625 8.796875 3.015625 6.09375 10.796875 
C 6.59375 10.59375 7.09375 10.59375 7.59375 10.59375 
C 10 10.59375 11.796875 12.1875 11.796875 14.796875 
C 11.796875 17.6875 9.59375 19 7.59375 19 
C 5.90625 19 3.296875 18.1875 3.296875 14.484375 
C 3.296875 5.234375 12.296875 -2 22.90625 -2 
C 34 -2 42.5 6.75 42.5 16.984375 
C 42.5 26.84375 34.5 34 25 35.09375 
C 32.59375 36.671875 39.90625 43.375 39.90625 52.390625 
C 39.90625 60.25 32 66 23 66 
C 13.90625 66 5.90625 60.34375 5.90625 52.296875 
C 5.90625 48.796875 8.5 48.1875 9.796875 48.1875 
C 11.90625 48.1875 13.703125 49.484375 13.703125 52.09375 
C 13.703125 54.6875 11.90625 56 9.796875 56 
C 9.40625 56 8.90625 56 8.5 55.796875 
C 11.40625 62.484375 19.296875 63.6875 22.796875 63.6875 
C 26.296875 63.6875 32.90625 61.96875 32.90625 52.296875 
C 32.90625 49.484375 32.5 44.546875 29.09375 40.21875 
C 26.09375 36.390625 22.703125 36.1875 19.40625 35.890625 
C 18.90625 35.890625 16.59375 35.6875 16.203125 35.6875 
C 15.5 35.59375 15.09375 35.5 15.09375 34.796875 
C 15.09375 34.09375 15.203125 34 17.203125 34 
z
" id="CMR17-51"/>
    </defs>
    <g style="fill:#262626;" transform="translate(447.453311 473.329784)scale(0.22 -0.22)">
     <use transform="scale(0.996264)" xlink:href="#CMMI12-120"/>
     <use transform="translate(55.43406 -14.943915)scale(0.697382)" xlink:href="#CMR17-48"/>
     <use transform="translate(115.589382 0)scale(0.996264)" xlink:href="#CMMI12-62"/>
     <use transform="translate(219.135487 0)scale(0.996264)" xlink:href="#CMR17-49"/>
     <use transform="translate(264.825964 0)scale(0.996264)" xlink:href="#CMMI12-58"/>
     <use transform="translate(291.923141 0)scale(0.996264)" xlink:href="#CMR17-51"/>
     <use transform="translate(337.613618 0)scale(0.996264)" xlink:href="#CMR17-51"/>
    </g>
   </g>
   <g id="text_5">
    <g id="patch_31">
     <path d="M 735.575755 256.098427 
L 845.733336 256.098427 
L 845.733336 228.694545 
L 735.575755 228.694545 
z
" style="fill:#ffffff;stroke:#000000;stroke-linejoin:miter;"/>
    </g>
    <!-- $x_0 &gt; -1.09$ -->
    <defs>
     <path d="M 35.203125 29.234375 
C 35.203125 7 26.09375 0.390625 18.59375 0.390625 
C 16.296875 0.390625 10.703125 0.671875 8.40625 4.390625 
C 11 4 12.90625 5.390625 12.90625 7.890625 
C 12.90625 10.59375 10.703125 11.5 9.296875 11.5 
C 8.40625 11.5 5.703125 11.09375 5.703125 7.6875 
C 5.703125 1.0625 11.59375 -2 18.796875 -2 
C 30.296875 -2 42 10.390625 42 32.65625 
C 42 60.265625 30.796875 66 23.203125 66 
C 13.296875 66 3.796875 57.25 3.796875 43.75 
C 3.796875 31.25 11.90625 22 22.09375 22 
C 30.5 22 34.203125 29.84375 35.203125 33.15625 
z
M 22.296875 23.59375 
C 19.59375 23.59375 15.796875 24.09375 12.703125 30.140625 
C 10.59375 34.078125 10.59375 38.703125 10.59375 43.640625 
C 10.59375 49.59375 10.59375 53.71875 13.40625 58.15625 
C 14.796875 60.265625 17.40625 63.6875 23.203125 63.6875 
C 35 63.6875 35 45.453125 35 41.421875 
C 35 34.265625 31.796875 23.59375 22.296875 23.59375 
z
" id="CMR17-57"/>
    </defs>
    <g style="fill:#262626;" transform="translate(739.535755 247.875239)scale(0.22 -0.22)">
     <use transform="scale(0.996264)" xlink:href="#CMMI12-120"/>
     <use transform="translate(55.43406 -14.943915)scale(0.697382)" xlink:href="#CMR17-48"/>
     <use transform="translate(115.589382 0)scale(0.996264)" xlink:href="#CMMI12-62"/>
     <use transform="translate(219.135487 0)scale(0.996264)" xlink:href="#CMSY10-0"/>
     <use transform="translate(296.622954 0)scale(0.996264)" xlink:href="#CMR17-49"/>
     <use transform="translate(342.313432 0)scale(0.996264)" xlink:href="#CMMI12-58"/>
     <use transform="translate(369.410609 0)scale(0.996264)" xlink:href="#CMR17-48"/>
     <use transform="translate(415.101086 0)scale(0.996264)" xlink:href="#CMR17-57"/>
    </g>
   </g>
   <g id="text_6">
    <g id="patch_32">
     <path d="M 894.402402 481.552972 
L 987.51275 481.552972 
L 987.51275 454.149091 
L 894.402402 454.149091 
z
" style="fill:#ffffff;stroke:#000000;stroke-linejoin:miter;"/>
    </g>
    <!-- $x_0 &gt; 0.92$ -->
    <g style="fill:#262626;" transform="translate(898.362402 473.329784)scale(0.22 -0.22)">
     <use transform="scale(0.996264)" xlink:href="#CMMI12-120"/>
     <use transform="translate(55.43406 -14.943915)scale(0.697382)" xlink:href="#CMR17-48"/>
     <use transform="translate(115.589382 0)scale(0.996264)" xlink:href="#CMMI12-62"/>
     <use transform="translate(219.135487 0)scale(0.996264)" xlink:href="#CMR17-48"/>
     <use transform="translate(264.825964 0)scale(0.996264)" xlink:href="#CMMI12-58"/>
     <use transform="translate(291.923141 0)scale(0.996264)" xlink:href="#CMR17-57"/>
     <use transform="translate(337.613618 0)scale(0.996264)" xlink:href="#CMR17-50"/>
    </g>
   </g>
  </g>
 </g>
 <defs>
  <clipPath id="p4aa75e4722">
   <rect height="868.558422" width="1116" x="7.2" y="15.176413"/>
  </clipPath>
 </defs>
</svg>
