<?xml version="1.0" encoding="utf-8" standalone="no"?>
<!DOCTYPE svg PUBLIC "-//W3C//DTD SVG 1.1//EN"
  "http://www.w3.org/Graphics/SVG/1.1/DTD/svg11.dtd">
<!-- Created with matplotlib (https://matplotlib.org/) -->
<svg height="505.863652pt" version="1.1" viewBox="0 0 1130.4 505.863652" width="1130.4pt" xmlns="http://www.w3.org/2000/svg" xmlns:xlink="http://www.w3.org/1999/xlink">
 <defs>
  <style type="text/css">
*{stroke-linecap:butt;stroke-linejoin:round;}
  </style>
 </defs>
 <g id="figure_1">
  <g id="patch_1">
   <path d="M 0 505.863652 
L 1130.4 505.863652 
L 1130.4 0 
L 0 0 
z
" style="fill:#ffffff;"/>
  </g>
  <g id="axes_1">
   <g id="line2d_1">
    <path clip-path="url(#pa76516c626)" d="M 429.927273 50.215304 
L 267.6 131.378941 
" style="fill:none;stroke:#000000;stroke-linecap:round;stroke-opacity:0.2;stroke-width:1.5;"/>
   </g>
   <g id="line2d_2">
    <path clip-path="url(#pa76516c626)" d="M 267.6 131.378941 
L 105.272727 212.542577 
" style="fill:none;stroke:#000000;stroke-linecap:round;stroke-opacity:0.2;stroke-width:1.5;"/>
   </g>
   <g id="line2d_3">
    <path clip-path="url(#pa76516c626)" d="M 105.272727 212.542577 
L 78.218182 293.706214 
" style="fill:none;stroke:#000000;stroke-linecap:round;stroke-opacity:0.2;stroke-width:1.5;"/>
   </g>
   <g id="line2d_4">
    <path clip-path="url(#pa76516c626)" d="M 105.272727 212.542577 
L 159.381818 293.706214 
" style="fill:none;stroke:#000000;stroke-linecap:round;stroke-opacity:0.2;stroke-width:1.5;"/>
   </g>
   <g id="line2d_5">
    <path clip-path="url(#pa76516c626)" d="M 159.381818 293.706214 
L 132.327273 374.86985 
" style="fill:none;stroke:#000000;stroke-linecap:round;stroke-opacity:0.2;stroke-width:1.5;"/>
   </g>
   <g id="line2d_6">
    <path clip-path="url(#pa76516c626)" d="M 159.381818 293.706214 
L 213.490909 374.86985 
" style="fill:none;stroke:#000000;stroke-linecap:round;stroke-opacity:0.2;stroke-width:1.5;"/>
   </g>
   <g id="line2d_7">
    <path clip-path="url(#pa76516c626)" d="M 213.490909 374.86985 
L 186.436364 456.033486 
" style="fill:none;stroke:#000000;stroke-linecap:round;stroke-opacity:0.2;stroke-width:1.5;"/>
   </g>
   <g id="line2d_8">
    <path clip-path="url(#pa76516c626)" d="M 213.490909 374.86985 
L 240.545455 456.033486 
" style="fill:none;stroke:#000000;stroke-linecap:round;stroke-opacity:0.2;stroke-width:1.5;"/>
   </g>
   <g id="line2d_9">
    <path clip-path="url(#pa76516c626)" d="M 267.6 131.378941 
L 375.818182 212.542577 
" style="fill:none;stroke:#000000;stroke-linecap:round;stroke-opacity:0.2;stroke-width:1.5;"/>
   </g>
   <g id="line2d_10">
    <path clip-path="url(#pa76516c626)" d="M 375.818182 212.542577 
L 321.709091 293.706214 
" style="fill:none;stroke:#000000;stroke-linecap:round;stroke-opacity:0.2;stroke-width:1.5;"/>
   </g>
   <g id="line2d_11">
    <path clip-path="url(#pa76516c626)" d="M 321.709091 293.706214 
L 294.654545 374.86985 
" style="fill:none;stroke:#000000;stroke-linecap:round;stroke-opacity:0.2;stroke-width:1.5;"/>
   </g>
   <g id="line2d_12">
    <path clip-path="url(#pa76516c626)" d="M 321.709091 293.706214 
L 348.763636 374.86985 
" style="fill:none;stroke:#000000;stroke-linecap:round;stroke-opacity:0.2;stroke-width:1.5;"/>
   </g>
   <g id="line2d_13">
    <path clip-path="url(#pa76516c626)" d="M 375.818182 212.542577 
L 402.872727 293.706214 
" style="fill:none;stroke:#000000;stroke-linecap:round;stroke-opacity:0.2;stroke-width:1.5;"/>
   </g>
   <g id="line2d_14">
    <path clip-path="url(#pa76516c626)" d="M 429.927273 50.215304 
L 754.581818 131.378941 
" style="fill:none;stroke:#000000;stroke-linecap:round;stroke-opacity:0.2;stroke-width:1.5;"/>
   </g>
   <g id="line2d_15">
    <path clip-path="url(#pa76516c626)" d="M 754.581818 131.378941 
L 592.254545 212.542577 
" style="fill:none;stroke:#000000;stroke-linecap:round;stroke-opacity:0.2;stroke-width:1.5;"/>
   </g>
   <g id="line2d_16">
    <path clip-path="url(#pa76516c626)" d="M 592.254545 212.542577 
L 538.145455 293.706214 
" style="fill:none;stroke:#000000;stroke-linecap:round;stroke-opacity:0.2;stroke-width:1.5;"/>
   </g>
   <g id="line2d_17">
    <path clip-path="url(#pa76516c626)" d="M 538.145455 293.706214 
L 484.036364 374.86985 
" style="fill:none;stroke:#000000;stroke-linecap:round;stroke-opacity:0.2;stroke-width:1.5;"/>
   </g>
   <g id="line2d_18">
    <path clip-path="url(#pa76516c626)" d="M 484.036364 374.86985 
L 456.981818 456.033486 
" style="fill:none;stroke:#000000;stroke-linecap:round;stroke-opacity:0.2;stroke-width:1.5;"/>
   </g>
   <g id="line2d_19">
    <path clip-path="url(#pa76516c626)" d="M 484.036364 374.86985 
L 511.090909 456.033486 
" style="fill:none;stroke:#000000;stroke-linecap:round;stroke-opacity:0.2;stroke-width:1.5;"/>
   </g>
   <g id="line2d_20">
    <path clip-path="url(#pa76516c626)" d="M 538.145455 293.706214 
L 565.2 374.86985 
" style="fill:none;stroke:#000000;stroke-linecap:round;stroke-opacity:0.2;stroke-width:1.5;"/>
   </g>
   <g id="line2d_21">
    <path clip-path="url(#pa76516c626)" d="M 592.254545 212.542577 
L 646.363636 293.706214 
" style="fill:none;stroke:#000000;stroke-linecap:round;stroke-opacity:0.2;stroke-width:1.5;"/>
   </g>
   <g id="line2d_22">
    <path clip-path="url(#pa76516c626)" d="M 646.363636 293.706214 
L 619.309091 374.86985 
" style="fill:none;stroke:#000000;stroke-linecap:round;stroke-opacity:0.2;stroke-width:1.5;"/>
   </g>
   <g id="line2d_23">
    <path clip-path="url(#pa76516c626)" d="M 646.363636 293.706214 
L 700.472727 374.86985 
" style="fill:none;stroke:#000000;stroke-linecap:round;stroke-opacity:0.2;stroke-width:1.5;"/>
   </g>
   <g id="line2d_24">
    <path clip-path="url(#pa76516c626)" d="M 700.472727 374.86985 
L 673.418182 456.033486 
" style="fill:none;stroke:#000000;stroke-linecap:round;stroke-opacity:0.2;stroke-width:1.5;"/>
   </g>
   <g id="line2d_25">
    <path clip-path="url(#pa76516c626)" d="M 700.472727 374.86985 
L 727.527273 456.033486 
" style="fill:none;stroke:#000000;stroke-linecap:round;stroke-opacity:0.2;stroke-width:1.5;"/>
   </g>
   <g id="line2d_26">
    <path clip-path="url(#pa76516c626)" d="M 754.581818 131.378941 
L 916.909091 212.542577 
" style="fill:none;stroke:#000000;stroke-linecap:round;stroke-opacity:0.2;stroke-width:1.5;"/>
   </g>
   <g id="line2d_27">
    <path clip-path="url(#pa76516c626)" d="M 916.909091 212.542577 
L 862.8 293.706214 
" style="fill:none;stroke:#000000;stroke-linecap:round;stroke-opacity:0.2;stroke-width:1.5;"/>
   </g>
   <g id="line2d_28">
    <path clip-path="url(#pa76516c626)" d="M 862.8 293.706214 
L 808.690909 374.86985 
" style="fill:none;stroke:#000000;stroke-linecap:round;stroke-opacity:0.2;stroke-width:1.5;"/>
   </g>
   <g id="line2d_29">
    <path clip-path="url(#pa76516c626)" d="M 808.690909 374.86985 
L 781.636364 456.033486 
" style="fill:none;stroke:#000000;stroke-linecap:round;stroke-opacity:0.2;stroke-width:1.5;"/>
   </g>
   <g id="line2d_30">
    <path clip-path="url(#pa76516c626)" d="M 808.690909 374.86985 
L 835.745455 456.033486 
" style="fill:none;stroke:#000000;stroke-linecap:round;stroke-opacity:0.2;stroke-width:1.5;"/>
   </g>
   <g id="line2d_31">
    <path clip-path="url(#pa76516c626)" d="M 862.8 293.706214 
L 889.854545 374.86985 
" style="fill:none;stroke:#000000;stroke-linecap:round;stroke-opacity:0.2;stroke-width:1.5;"/>
   </g>
   <g id="line2d_32">
    <path clip-path="url(#pa76516c626)" d="M 916.909091 212.542577 
L 1025.127273 293.706214 
" style="fill:none;stroke:#000000;stroke-linecap:round;stroke-opacity:0.2;stroke-width:1.5;"/>
   </g>
   <g id="line2d_33">
    <path clip-path="url(#pa76516c626)" d="M 1025.127273 293.706214 
L 971.018182 374.86985 
" style="fill:none;stroke:#000000;stroke-linecap:round;stroke-opacity:0.2;stroke-width:1.5;"/>
   </g>
   <g id="line2d_34">
    <path clip-path="url(#pa76516c626)" d="M 971.018182 374.86985 
L 943.963636 456.033486 
" style="fill:none;stroke:#000000;stroke-linecap:round;stroke-opacity:0.2;stroke-width:1.5;"/>
   </g>
   <g id="line2d_35">
    <path clip-path="url(#pa76516c626)" d="M 971.018182 374.86985 
L 998.072727 456.033486 
" style="fill:none;stroke:#000000;stroke-linecap:round;stroke-opacity:0.2;stroke-width:1.5;"/>
   </g>
   <g id="line2d_36">
    <path clip-path="url(#pa76516c626)" d="M 1025.127273 293.706214 
L 1052.181818 374.86985 
" style="fill:none;stroke:#000000;stroke-linecap:round;stroke-opacity:0.2;stroke-width:1.5;"/>
   </g>
   <g id="patch_2">
    <path clip-path="url(#pa76516c626)" d="M 429.927273 70.506214 
C 435.308485 70.506214 440.470021 68.368235 444.275112 64.563144 
C 448.080204 60.758052 450.218182 55.596516 450.218182 50.215304 
C 450.218182 44.834092 448.080204 39.672556 444.275112 35.867465 
C 440.470021 32.062374 435.308485 29.924395 429.927273 29.924395 
C 424.546061 29.924395 419.384525 32.062374 415.579433 35.867465 
C 411.774342 39.672556 409.636364 44.834092 409.636364 50.215304 
C 409.636364 55.596516 411.774342 60.758052 415.579433 64.563144 
C 419.384525 68.368235 424.546061 70.506214 429.927273 70.506214 
z
" style="fill:#0000ff;stroke:#0000ff;stroke-linejoin:miter;"/>
   </g>
   <g id="patch_3">
    <path clip-path="url(#pa76516c626)" d="M 450.218182 50.215304 
C 450.218182 45.165908 448.333367 40.293959 444.93506 36.559269 
C 441.536753 32.824578 436.863803 30.489637 431.836816 30.014447 
C 426.809829 29.539257 421.782125 30.957216 417.744201 33.988976 
C 413.706276 37.020735 410.941934 41.453209 409.995771 46.413167 
L 429.927273 50.215304 
L 450.218182 50.215304 
z
" style="fill:#ffa500;stroke:#ffa500;stroke-linejoin:miter;"/>
   </g>
   <g id="patch_4">
    <path clip-path="url(#pa76516c626)" d="M 267.6 151.66985 
C 272.981212 151.66985 278.142748 149.531872 281.947839 145.72678 
C 285.752931 141.921689 287.890909 136.760153 287.890909 131.378941 
C 287.890909 125.997729 285.752931 120.836193 281.947839 117.031101 
C 278.142748 113.22601 272.981212 111.088032 267.6 111.088032 
C 262.218788 111.088032 257.057252 113.22601 253.252161 117.031101 
C 249.447069 120.836193 247.309091 125.997729 247.309091 131.378941 
C 247.309091 136.760153 249.447069 141.921689 253.252161 145.72678 
C 257.057252 149.531872 262.218788 151.66985 267.6 151.66985 
z
" style="fill:#0000ff;stroke:#0000ff;stroke-linejoin:miter;"/>
   </g>
   <g id="patch_5">
    <path clip-path="url(#pa76516c626)" d="M 287.890909 131.378941 
C 287.890909 129.465788 287.620333 127.562213 287.087229 125.724836 
C 286.554125 123.887459 285.763831 122.134678 284.739853 120.518626 
L 267.6 131.378941 
L 287.890909 131.378941 
z
" style="fill:#ffa500;stroke:#ffa500;stroke-linejoin:miter;"/>
   </g>
   <g id="patch_6">
    <path clip-path="url(#pa76516c626)" d="M 105.272727 232.833486 
C 110.653939 232.833486 115.815475 230.695508 119.620567 226.890417 
C 123.425658 223.085325 125.563636 217.923789 125.563636 212.542577 
C 125.563636 207.161365 123.425658 201.999829 119.620567 198.194738 
C 115.815475 194.389646 110.653939 192.251668 105.272727 192.251668 
C 99.891515 192.251668 94.729979 194.389646 90.924888 198.194738 
C 87.119796 201.999829 84.981818 207.161365 84.981818 212.542577 
C 84.981818 217.923789 87.119796 223.085325 90.924888 226.890417 
C 94.729979 230.695508 99.891515 232.833486 105.272727 232.833486 
z
" style="fill:#0000ff;stroke:#0000ff;stroke-linejoin:miter;"/>
   </g>
   <g id="patch_7">
    <path clip-path="url(#pa76516c626)" d="M 125.563636 212.542577 
C 125.563636 212.017855 125.543282 211.49333 125.50262 210.970185 
C 125.461958 210.447041 125.401019 209.925671 125.319939 209.40725 
L 105.272727 212.542577 
L 125.563636 212.542577 
z
" style="fill:#ffa500;stroke:#ffa500;stroke-linejoin:miter;"/>
   </g>
   <g id="patch_8">
    <path clip-path="url(#pa76516c626)" d="M 78.218182 313.997123 
C 83.599394 313.997123 88.76093 311.859144 92.566021 308.054053 
C 96.371113 304.248961 98.509091 299.087426 98.509091 293.706214 
C 98.509091 288.325002 96.371113 283.163466 92.566021 279.358374 
C 88.76093 275.553283 83.599394 273.415304 78.218182 273.415304 
C 72.83697 273.415304 67.675434 275.553283 63.870342 279.358374 
C 60.065251 283.163466 57.927273 288.325002 57.927273 293.706214 
C 57.927273 299.087426 60.065251 304.248961 63.870342 308.054053 
C 67.675434 311.859144 72.83697 313.997123 78.218182 313.997123 
z
" style="fill:#0000ff;stroke:#0000ff;stroke-linejoin:miter;"/>
   </g>
   <g id="patch_9">
    <path clip-path="url(#pa76516c626)" d="M 159.381818 313.997123 
C 164.76303 313.997123 169.924566 311.859144 173.729658 308.054053 
C 177.534749 304.248961 179.672727 299.087426 179.672727 293.706214 
C 179.672727 288.325002 177.534749 283.163466 173.729658 279.358374 
C 169.924566 275.553283 164.76303 273.415304 159.381818 273.415304 
C 154.000606 273.415304 148.83907 275.553283 145.033979 279.358374 
C 141.228887 283.163466 139.090909 288.325002 139.090909 293.706214 
C 139.090909 299.087426 141.228887 304.248961 145.033979 308.054053 
C 148.83907 311.859144 154.000606 313.997123 159.381818 313.997123 
z
" style="fill:#0000ff;stroke:#0000ff;stroke-linejoin:miter;"/>
   </g>
   <g id="patch_10">
    <path clip-path="url(#pa76516c626)" d="M 179.672727 293.706214 
C 179.672727 290.65802 178.985857 287.648645 177.663296 284.902318 
C 176.340734 282.155991 174.416166 279.742659 172.032993 277.842142 
L 159.381818 293.706214 
L 179.672727 293.706214 
z
" style="fill:#ffa500;stroke:#ffa500;stroke-linejoin:miter;"/>
   </g>
   <g id="patch_11">
    <path clip-path="url(#pa76516c626)" d="M 132.327273 395.160759 
C 137.708485 395.160759 142.870021 393.022781 146.675112 389.217689 
C 150.480204 385.412598 152.618182 380.251062 152.618182 374.86985 
C 152.618182 369.488638 150.480204 364.327102 146.675112 360.52201 
C 142.870021 356.716919 137.708485 354.578941 132.327273 354.578941 
C 126.946061 354.578941 121.784525 356.716919 117.979433 360.52201 
C 114.174342 364.327102 112.036364 369.488638 112.036364 374.86985 
C 112.036364 380.251062 114.174342 385.412598 117.979433 389.217689 
C 121.784525 393.022781 126.946061 395.160759 132.327273 395.160759 
z
" style="fill:#0000ff;stroke:#0000ff;stroke-linejoin:miter;"/>
   </g>
   <g id="patch_12">
    <path clip-path="url(#pa76516c626)" d="M 152.618182 374.86985 
C 152.618182 372.205272 152.093318 369.566604 151.073628 367.104855 
C 150.053939 364.643106 148.559253 362.406151 146.675112 360.52201 
C 144.790971 358.637869 142.554016 357.143184 140.092267 356.123494 
C 137.630519 355.103805 134.99185 354.578941 132.327273 354.578941 
C 129.662695 354.578941 127.024027 355.103805 124.562278 356.123494 
C 122.100529 357.143184 119.863574 358.637869 117.979433 360.52201 
C 116.095292 362.406151 114.600607 364.643106 113.580917 367.104855 
C 112.561227 369.566604 112.036364 372.205272 112.036364 374.86985 
C 112.036364 377.534428 112.561227 380.173096 113.580917 382.634845 
C 114.600607 385.096593 116.095292 387.333548 117.979433 389.217689 
C 119.863574 391.10183 122.100529 392.596516 124.562278 393.616205 
C 127.024027 394.635895 129.662695 395.160759 132.327273 395.160759 
C 134.99185 395.160759 137.630519 394.635895 140.092267 393.616205 
C 142.554016 392.596516 144.790971 391.10183 146.675112 389.217689 
C 148.559253 387.333548 150.053939 385.096593 151.073628 382.634845 
C 152.093318 380.173096 152.618182 377.534428 152.618182 374.86985 
M 132.327273 374.86985 
M 152.618182 374.86985 
z
" style="fill:#ffa500;stroke:#ffa500;stroke-linejoin:miter;"/>
   </g>
   <g id="patch_13">
    <path clip-path="url(#pa76516c626)" d="M 213.490909 395.160759 
C 218.872121 395.160759 224.033657 393.022781 227.838749 389.217689 
C 231.64384 385.412598 233.781818 380.251062 233.781818 374.86985 
C 233.781818 369.488638 231.64384 364.327102 227.838749 360.52201 
C 224.033657 356.716919 218.872121 354.578941 213.490909 354.578941 
C 208.109697 354.578941 202.948161 356.716919 199.14307 360.52201 
C 195.337978 364.327102 193.2 369.488638 193.2 374.86985 
C 193.2 380.251062 195.337978 385.412598 199.14307 389.217689 
C 202.948161 393.022781 208.109697 395.160759 213.490909 395.160759 
z
" style="fill:#0000ff;stroke:#0000ff;stroke-linejoin:miter;"/>
   </g>
   <g id="patch_14">
    <path clip-path="url(#pa76516c626)" d="M 233.781818 374.86985 
C 233.781818 373.233357 233.58384 371.602857 233.192201 370.013917 
C 232.800563 368.424978 232.218133 366.889237 231.457617 365.440194 
L 213.490909 374.86985 
L 233.781818 374.86985 
z
" style="fill:#ffa500;stroke:#ffa500;stroke-linejoin:miter;"/>
   </g>
   <g id="patch_15">
    <path clip-path="url(#pa76516c626)" d="M 186.436364 476.324395 
C 191.817576 476.324395 196.979112 474.186417 200.784203 470.381326 
C 204.589295 466.576234 206.727273 461.414698 206.727273 456.033486 
C 206.727273 450.652274 204.589295 445.490738 200.784203 441.685647 
C 196.979112 437.880555 191.817576 435.742577 186.436364 435.742577 
C 181.055152 435.742577 175.893616 437.880555 172.088524 441.685647 
C 168.283433 445.490738 166.145455 450.652274 166.145455 456.033486 
C 166.145455 461.414698 168.283433 466.576234 172.088524 470.381326 
C 175.893616 474.186417 181.055152 476.324395 186.436364 476.324395 
z
" style="fill:#0000ff;stroke:#0000ff;stroke-linejoin:miter;"/>
   </g>
   <g id="patch_16">
    <path clip-path="url(#pa76516c626)" d="M 206.727273 456.033486 
C 206.727273 450.654066 204.588027 445.489471 200.784203 441.685647 
C 196.980379 437.881823 191.815783 435.742577 186.436364 435.742577 
L 186.436364 456.033486 
L 206.727273 456.033486 
z
" style="fill:#ffa500;stroke:#ffa500;stroke-linejoin:miter;"/>
   </g>
   <g id="patch_17">
    <path clip-path="url(#pa76516c626)" d="M 240.545455 476.324395 
C 245.926667 476.324395 251.088202 474.186417 254.893294 470.381326 
C 258.698385 466.576234 260.836364 461.414698 260.836364 456.033486 
C 260.836364 450.652274 258.698385 445.490738 254.893294 441.685647 
C 251.088202 437.880555 245.926667 435.742577 240.545455 435.742577 
C 235.164243 435.742577 230.002707 437.880555 226.197615 441.685647 
C 222.392524 445.490738 220.254545 450.652274 220.254545 456.033486 
C 220.254545 461.414698 222.392524 466.576234 226.197615 470.381326 
C 230.002707 474.186417 235.164243 476.324395 240.545455 476.324395 
z
" style="fill:#0000ff;stroke:#0000ff;stroke-linejoin:miter;"/>
   </g>
   <g id="patch_18">
    <path clip-path="url(#pa76516c626)" d="M 375.818182 232.833486 
C 381.199394 232.833486 386.36093 230.695508 390.166021 226.890417 
C 393.971113 223.085325 396.109091 217.923789 396.109091 212.542577 
C 396.109091 207.161365 393.971113 201.999829 390.166021 198.194738 
C 386.36093 194.389646 381.199394 192.251668 375.818182 192.251668 
C 370.43697 192.251668 365.275434 194.389646 361.470342 198.194738 
C 357.665251 201.999829 355.527273 207.161365 355.527273 212.542577 
C 355.527273 217.923789 357.665251 223.085325 361.470342 226.890417 
C 365.275434 230.695508 370.43697 232.833486 375.818182 232.833486 
z
" style="fill:#0000ff;stroke:#0000ff;stroke-linejoin:miter;"/>
   </g>
   <g id="patch_19">
    <path clip-path="url(#pa76516c626)" d="M 396.109091 212.542577 
C 396.109091 208.529895 394.918783 204.605975 392.689456 201.269552 
C 390.460129 197.933129 387.290412 195.331809 383.583177 193.796222 
C 379.875941 192.260634 375.795202 191.858717 371.859622 192.641552 
C 367.924042 193.424388 364.307737 195.357343 361.470342 198.194738 
C 358.632948 201.032133 356.699992 204.648437 355.917157 208.584017 
C 355.134321 212.519597 355.536239 216.600337 357.071826 220.307572 
C 358.607413 224.014807 361.208733 227.184525 364.545157 229.413851 
C 367.88158 231.643178 371.805499 232.833486 375.818182 232.833486 
L 375.818182 212.542577 
L 396.109091 212.542577 
z
" style="fill:#ffa500;stroke:#ffa500;stroke-linejoin:miter;"/>
   </g>
   <g id="patch_20">
    <path clip-path="url(#pa76516c626)" d="M 321.709091 313.997123 
C 327.090303 313.997123 332.251839 311.859144 336.05693 308.054053 
C 339.862022 304.248961 342 299.087426 342 293.706214 
C 342 288.325002 339.862022 283.163466 336.05693 279.358374 
C 332.251839 275.553283 327.090303 273.415304 321.709091 273.415304 
C 316.327879 273.415304 311.166343 275.553283 307.361251 279.358374 
C 303.55616 283.163466 301.418182 288.325002 301.418182 293.706214 
C 301.418182 299.087426 303.55616 304.248961 307.361251 308.054053 
C 311.166343 311.859144 316.327879 313.997123 321.709091 313.997123 
z
" style="fill:#0000ff;stroke:#0000ff;stroke-linejoin:miter;"/>
   </g>
   <g id="patch_21">
    <path clip-path="url(#pa76516c626)" d="M 342 293.706214 
C 342 288.326794 339.860755 283.162198 336.05693 279.358374 
C 332.253106 275.55455 327.088511 273.415304 321.709091 273.415304 
C 316.329671 273.415304 311.165076 275.55455 307.361251 279.358374 
C 303.557427 283.162198 301.418182 288.326794 301.418182 293.706214 
L 321.709091 293.706214 
L 342 293.706214 
z
" style="fill:#ffa500;stroke:#ffa500;stroke-linejoin:miter;"/>
   </g>
   <g id="patch_22">
    <path clip-path="url(#pa76516c626)" d="M 294.654545 395.160759 
C 300.035757 395.160759 305.197293 393.022781 309.002385 389.217689 
C 312.807476 385.412598 314.945455 380.251062 314.945455 374.86985 
C 314.945455 369.488638 312.807476 364.327102 309.002385 360.52201 
C 305.197293 356.716919 300.035757 354.578941 294.654545 354.578941 
C 289.273333 354.578941 284.111798 356.716919 280.306706 360.52201 
C 276.501615 364.327102 274.363636 369.488638 274.363636 374.86985 
C 274.363636 380.251062 276.501615 385.412598 280.306706 389.217689 
C 284.111798 393.022781 289.273333 395.160759 294.654545 395.160759 
z
" style="fill:#0000ff;stroke:#0000ff;stroke-linejoin:miter;"/>
   </g>
   <g id="patch_23">
    <path clip-path="url(#pa76516c626)" d="M 348.763636 395.160759 
C 354.144848 395.160759 359.306384 393.022781 363.111476 389.217689 
C 366.916567 385.412598 369.054545 380.251062 369.054545 374.86985 
C 369.054545 369.488638 366.916567 364.327102 363.111476 360.52201 
C 359.306384 356.716919 354.144848 354.578941 348.763636 354.578941 
C 343.382424 354.578941 338.220888 356.716919 334.415797 360.52201 
C 330.610705 364.327102 328.472727 369.488638 328.472727 374.86985 
C 328.472727 380.251062 330.610705 385.412598 334.415797 389.217689 
C 338.220888 393.022781 343.382424 395.160759 348.763636 395.160759 
z
" style="fill:#0000ff;stroke:#0000ff;stroke-linejoin:miter;"/>
   </g>
   <g id="patch_24">
    <path clip-path="url(#pa76516c626)" d="M 369.054545 374.86985 
C 369.054545 372.205272 368.529682 369.566604 367.509992 367.104855 
C 366.490302 364.643106 364.995617 362.406151 363.111476 360.52201 
C 361.227335 358.637869 358.99038 357.143184 356.528631 356.123494 
C 354.066882 355.103805 351.428214 354.578941 348.763636 354.578941 
C 346.099059 354.578941 343.46039 355.103805 340.998642 356.123494 
C 338.536893 357.143184 336.299938 358.637869 334.415797 360.52201 
C 332.531656 362.406151 331.036971 364.643106 330.017281 367.104855 
C 328.997591 369.566604 328.472727 372.205272 328.472727 374.86985 
C 328.472727 377.534428 328.997591 380.173096 330.017281 382.634845 
C 331.036971 385.096593 332.531656 387.333548 334.415797 389.217689 
C 336.299938 391.10183 338.536893 392.596516 340.998642 393.616205 
C 343.46039 394.635895 346.099059 395.160759 348.763636 395.160759 
C 351.428214 395.160759 354.066882 394.635895 356.528631 393.616205 
C 358.99038 392.596516 361.227335 391.10183 363.111476 389.217689 
C 364.995617 387.333548 366.490302 385.096593 367.509992 382.634845 
C 368.529682 380.173096 369.054545 377.534428 369.054545 374.86985 
M 348.763636 374.86985 
M 369.054545 374.86985 
z
" style="fill:#ffa500;stroke:#ffa500;stroke-linejoin:miter;"/>
   </g>
   <g id="patch_25">
    <path clip-path="url(#pa76516c626)" d="M 402.872727 313.997123 
C 408.253939 313.997123 413.415475 311.859144 417.220567 308.054053 
C 421.025658 304.248961 423.163636 299.087426 423.163636 293.706214 
C 423.163636 288.325002 421.025658 283.163466 417.220567 279.358374 
C 413.415475 275.553283 408.253939 273.415304 402.872727 273.415304 
C 397.491515 273.415304 392.329979 275.553283 388.524888 279.358374 
C 384.719796 283.163466 382.581818 288.325002 382.581818 293.706214 
C 382.581818 299.087426 384.719796 304.248961 388.524888 308.054053 
C 392.329979 311.859144 397.491515 313.997123 402.872727 313.997123 
z
" style="fill:#0000ff;stroke:#0000ff;stroke-linejoin:miter;"/>
   </g>
   <g id="patch_26">
    <path clip-path="url(#pa76516c626)" d="M 423.163636 293.706214 
C 423.163636 291.041636 422.638773 288.402968 421.619083 285.941219 
C 420.599393 283.47947 419.104708 281.242515 417.220567 279.358374 
C 415.336426 277.474233 413.099471 275.979548 410.637722 274.959858 
C 408.175973 273.940168 405.537305 273.415304 402.872727 273.415304 
C 400.20815 273.415304 397.569481 273.940168 395.107733 274.959858 
C 392.645984 275.979548 390.409029 277.474233 388.524888 279.358374 
C 386.640747 281.242515 385.146061 283.47947 384.126372 285.941219 
C 383.106682 288.402968 382.581818 291.041636 382.581818 293.706214 
C 382.581818 296.370791 383.106682 299.009459 384.126372 301.471208 
C 385.146061 303.932957 386.640747 306.169912 388.524888 308.054053 
C 390.409029 309.938194 392.645984 311.432879 395.107733 312.452569 
C 397.569481 313.472259 400.20815 313.997123 402.872727 313.997123 
C 405.537305 313.997123 408.175973 313.472259 410.637722 312.452569 
C 413.099471 311.432879 415.336426 309.938194 417.220567 308.054053 
C 419.104708 306.169912 420.599393 303.932957 421.619083 301.471208 
C 422.638773 299.009459 423.163636 296.370791 423.163636 293.706214 
M 402.872727 293.706214 
M 423.163636 293.706214 
z
" style="fill:#ffa500;stroke:#ffa500;stroke-linejoin:miter;"/>
   </g>
   <g id="patch_27">
    <path clip-path="url(#pa76516c626)" d="M 754.581818 151.66985 
C 759.96303 151.66985 765.124566 149.531872 768.929658 145.72678 
C 772.734749 141.921689 774.872727 136.760153 774.872727 131.378941 
C 774.872727 125.997729 772.734749 120.836193 768.929658 117.031101 
C 765.124566 113.22601 759.96303 111.088032 754.581818 111.088032 
C 749.200606 111.088032 744.03907 113.22601 740.233979 117.031101 
C 736.428887 120.836193 734.290909 125.997729 734.290909 131.378941 
C 734.290909 136.760153 736.428887 141.921689 740.233979 145.72678 
C 744.03907 149.531872 749.200606 151.66985 754.581818 151.66985 
z
" style="fill:#0000ff;stroke:#0000ff;stroke-linejoin:miter;"/>
   </g>
   <g id="patch_28">
    <path clip-path="url(#pa76516c626)" d="M 774.872727 131.378941 
C 774.872727 129.317121 774.558466 127.267294 773.940784 125.300172 
C 773.323102 123.33305 772.409186 121.471516 771.230561 119.779788 
C 770.051937 118.08806 768.622316 116.585817 766.991015 115.324881 
C 765.359714 114.063946 763.545711 113.058987 761.611582 112.344671 
C 759.677454 111.630356 757.645699 111.214995 755.586408 111.112915 
C 753.527117 111.010836 751.464245 111.223226 749.468954 111.74276 
C 747.473664 112.262293 745.569165 113.082925 743.821159 114.176348 
C 742.073152 115.269771 740.501972 116.623264 739.161818 118.190136 
C 737.821664 119.757008 736.728127 121.519031 735.918931 123.415423 
C 735.109734 125.311814 734.594291 127.320513 734.390382 129.372225 
C 734.186474 131.423936 734.296472 133.494794 734.716583 135.51336 
C 735.136694 137.531925 735.862029 139.474717 736.867568 141.274715 
C 737.873107 143.074712 739.147152 144.710976 740.645752 146.127061 
C 742.144353 147.543146 743.850076 148.722579 745.704079 149.624673 
C 747.558082 150.526766 749.538798 151.141027 751.577898 151.446264 
C 753.616998 151.751501 755.690762 151.744164 757.727652 151.424507 
L 754.581818 131.378941 
L 774.872727 131.378941 
z
" style="fill:#ffa500;stroke:#ffa500;stroke-linejoin:miter;"/>
   </g>
   <g id="patch_29">
    <path clip-path="url(#pa76516c626)" d="M 592.254545 232.833486 
C 597.635757 232.833486 602.797293 230.695508 606.602385 226.890417 
C 610.407476 223.085325 612.545455 217.923789 612.545455 212.542577 
C 612.545455 207.161365 610.407476 201.999829 606.602385 198.194738 
C 602.797293 194.389646 597.635757 192.251668 592.254545 192.251668 
C 586.873333 192.251668 581.711798 194.389646 577.906706 198.194738 
C 574.101615 201.999829 571.963636 207.161365 571.963636 212.542577 
C 571.963636 217.923789 574.101615 223.085325 577.906706 226.890417 
C 581.711798 230.695508 586.873333 232.833486 592.254545 232.833486 
z
" style="fill:#0000ff;stroke:#0000ff;stroke-linejoin:miter;"/>
   </g>
   <g id="patch_30">
    <path clip-path="url(#pa76516c626)" d="M 612.545455 212.542577 
C 612.545455 208.768983 611.492765 205.069164 609.506224 201.86079 
C 607.519683 198.652416 604.676965 196.060936 601.298982 194.3789 
C 597.920999 192.696865 594.139833 191.990042 590.382337 192.338225 
C 586.62484 192.686409 583.037934 194.075984 580.026541 196.350082 
L 592.254545 212.542577 
L 612.545455 212.542577 
z
" style="fill:#ffa500;stroke:#ffa500;stroke-linejoin:miter;"/>
   </g>
   <g id="patch_31">
    <path clip-path="url(#pa76516c626)" d="M 538.145455 313.997123 
C 543.526667 313.997123 548.688202 311.859144 552.493294 308.054053 
C 556.298385 304.248961 558.436364 299.087426 558.436364 293.706214 
C 558.436364 288.325002 556.298385 283.163466 552.493294 279.358374 
C 548.688202 275.553283 543.526667 273.415304 538.145455 273.415304 
C 532.764243 273.415304 527.602707 275.553283 523.797615 279.358374 
C 519.992524 283.163466 517.854545 288.325002 517.854545 293.706214 
C 517.854545 299.087426 519.992524 304.248961 523.797615 308.054053 
C 527.602707 311.859144 532.764243 313.997123 538.145455 313.997123 
z
" style="fill:#0000ff;stroke:#0000ff;stroke-linejoin:miter;"/>
   </g>
   <g id="patch_32">
    <path clip-path="url(#pa76516c626)" d="M 558.436364 293.706214 
C 558.436364 292.524988 558.333217 291.346015 558.128099 290.182734 
C 557.922981 289.019454 557.616675 287.876303 557.212672 286.766314 
L 538.145455 293.706214 
L 558.436364 293.706214 
z
" style="fill:#ffa500;stroke:#ffa500;stroke-linejoin:miter;"/>
   </g>
   <g id="patch_33">
    <path clip-path="url(#pa76516c626)" d="M 484.036364 395.160759 
C 489.417576 395.160759 494.579112 393.022781 498.384203 389.217689 
C 502.189295 385.412598 504.327273 380.251062 504.327273 374.86985 
C 504.327273 369.488638 502.189295 364.327102 498.384203 360.52201 
C 494.579112 356.716919 489.417576 354.578941 484.036364 354.578941 
C 478.655152 354.578941 473.493616 356.716919 469.688524 360.52201 
C 465.883433 364.327102 463.745455 369.488638 463.745455 374.86985 
C 463.745455 380.251062 465.883433 385.412598 469.688524 389.217689 
C 473.493616 393.022781 478.655152 395.160759 484.036364 395.160759 
z
" style="fill:#0000ff;stroke:#0000ff;stroke-linejoin:miter;"/>
   </g>
   <g id="patch_34">
    <path clip-path="url(#pa76516c626)" d="M 504.327273 374.86985 
C 504.327273 371.308317 503.389573 367.808774 501.608806 364.724395 
C 499.82804 361.640017 497.266197 359.078174 494.181818 357.297407 
L 484.036364 374.86985 
L 504.327273 374.86985 
z
" style="fill:#ffa500;stroke:#ffa500;stroke-linejoin:miter;"/>
   </g>
   <g id="patch_35">
    <path clip-path="url(#pa76516c626)" d="M 456.981818 476.324395 
C 462.36303 476.324395 467.524566 474.186417 471.329658 470.381326 
C 475.134749 466.576234 477.272727 461.414698 477.272727 456.033486 
C 477.272727 450.652274 475.134749 445.490738 471.329658 441.685647 
C 467.524566 437.880555 462.36303 435.742577 456.981818 435.742577 
C 451.600606 435.742577 446.43907 437.880555 442.633979 441.685647 
C 438.828887 445.490738 436.690909 450.652274 436.690909 456.033486 
C 436.690909 461.414698 438.828887 466.576234 442.633979 470.381326 
C 446.43907 474.186417 451.600606 476.324395 456.981818 476.324395 
z
" style="fill:#0000ff;stroke:#0000ff;stroke-linejoin:miter;"/>
   </g>
   <g id="patch_36">
    <path clip-path="url(#pa76516c626)" d="M 511.090909 476.324395 
C 516.472121 476.324395 521.633657 474.186417 525.438749 470.381326 
C 529.24384 466.576234 531.381818 461.414698 531.381818 456.033486 
C 531.381818 450.652274 529.24384 445.490738 525.438749 441.685647 
C 521.633657 437.880555 516.472121 435.742577 511.090909 435.742577 
C 505.709697 435.742577 500.548161 437.880555 496.74307 441.685647 
C 492.937978 445.490738 490.8 450.652274 490.8 456.033486 
C 490.8 461.414698 492.937978 466.576234 496.74307 470.381326 
C 500.548161 474.186417 505.709697 476.324395 511.090909 476.324395 
z
" style="fill:#0000ff;stroke:#0000ff;stroke-linejoin:miter;"/>
   </g>
   <g id="patch_37">
    <path clip-path="url(#pa76516c626)" d="M 531.381818 456.033486 
C 531.381818 453.368908 530.856954 450.73024 529.837265 448.268491 
C 528.817575 445.806743 527.32289 443.569788 525.438749 441.685647 
C 523.554607 439.801506 521.317653 438.30682 518.855904 437.287131 
C 516.394155 436.267441 513.755487 435.742577 511.090909 435.742577 
C 508.426331 435.742577 505.787663 436.267441 503.325914 437.287131 
C 500.864165 438.30682 498.627211 439.801506 496.74307 441.685647 
C 494.858929 443.569788 493.364243 445.806743 492.344553 448.268491 
C 491.324864 450.73024 490.8 453.368908 490.8 456.033486 
C 490.8 458.698064 491.324864 461.336732 492.344553 463.798481 
C 493.364243 466.26023 494.858929 468.497185 496.74307 470.381326 
C 498.627211 472.265467 500.864165 473.760152 503.325914 474.779842 
C 505.787663 475.799532 508.426331 476.324395 511.090909 476.324395 
C 513.755487 476.324395 516.394155 475.799532 518.855904 474.779842 
C 521.317653 473.760152 523.554607 472.265467 525.438749 470.381326 
C 527.32289 468.497185 528.817575 466.26023 529.837265 463.798481 
C 530.856954 461.336732 531.381818 458.698064 531.381818 456.033486 
M 511.090909 456.033486 
M 531.381818 456.033486 
z
" style="fill:#ffa500;stroke:#ffa500;stroke-linejoin:miter;"/>
   </g>
   <g id="patch_38">
    <path clip-path="url(#pa76516c626)" d="M 565.2 395.160759 
C 570.581212 395.160759 575.742748 393.022781 579.547839 389.217689 
C 583.352931 385.412598 585.490909 380.251062 585.490909 374.86985 
C 585.490909 369.488638 583.352931 364.327102 579.547839 360.52201 
C 575.742748 356.716919 570.581212 354.578941 565.2 354.578941 
C 559.818788 354.578941 554.657252 356.716919 550.852161 360.52201 
C 547.047069 364.327102 544.909091 369.488638 544.909091 374.86985 
C 544.909091 380.251062 547.047069 385.412598 550.852161 389.217689 
C 554.657252 393.022781 559.818788 395.160759 565.2 395.160759 
z
" style="fill:#0000ff;stroke:#0000ff;stroke-linejoin:miter;"/>
   </g>
   <g id="patch_39">
    <path clip-path="url(#pa76516c626)" d="M 646.363636 313.997123 
C 651.744848 313.997123 656.906384 311.859144 660.711476 308.054053 
C 664.516567 304.248961 666.654545 299.087426 666.654545 293.706214 
C 666.654545 288.325002 664.516567 283.163466 660.711476 279.358374 
C 656.906384 275.553283 651.744848 273.415304 646.363636 273.415304 
C 640.982424 273.415304 635.820888 275.553283 632.015797 279.358374 
C 628.210705 283.163466 626.072727 288.325002 626.072727 293.706214 
C 626.072727 299.087426 628.210705 304.248961 632.015797 308.054053 
C 635.820888 311.859144 640.982424 313.997123 646.363636 313.997123 
z
" style="fill:#0000ff;stroke:#0000ff;stroke-linejoin:miter;"/>
   </g>
   <g id="patch_40">
    <path clip-path="url(#pa76516c626)" d="M 666.654545 293.706214 
C 666.654545 290.032075 665.656614 286.426015 663.76773 283.274601 
C 661.878845 280.123188 659.169005 277.543206 655.928705 275.811229 
C 652.688404 274.079253 649.037721 273.259464 645.368009 273.439746 
C 641.698296 273.620027 638.145545 274.793697 635.090611 276.834939 
C 632.035677 278.876181 629.591768 281.709351 628.020872 285.030732 
C 626.449975 288.352113 625.810305 292.038624 626.170434 295.69507 
C 626.530562 299.351516 627.877144 302.842399 630.065825 305.793494 
C 632.254507 308.744589 635.204181 311.046537 638.598642 312.452569 
L 646.363636 293.706214 
L 666.654545 293.706214 
z
" style="fill:#ffa500;stroke:#ffa500;stroke-linejoin:miter;"/>
   </g>
   <g id="patch_41">
    <path clip-path="url(#pa76516c626)" d="M 619.309091 395.160759 
C 624.690303 395.160759 629.851839 393.022781 633.65693 389.217689 
C 637.462022 385.412598 639.6 380.251062 639.6 374.86985 
C 639.6 369.488638 637.462022 364.327102 633.65693 360.52201 
C 629.851839 356.716919 624.690303 354.578941 619.309091 354.578941 
C 613.927879 354.578941 608.766343 356.716919 604.961251 360.52201 
C 601.15616 364.327102 599.018182 369.488638 599.018182 374.86985 
C 599.018182 380.251062 601.15616 385.412598 604.961251 389.217689 
C 608.766343 393.022781 613.927879 395.160759 619.309091 395.160759 
z
" style="fill:#0000ff;stroke:#0000ff;stroke-linejoin:miter;"/>
   </g>
   <g id="patch_42">
    <path clip-path="url(#pa76516c626)" d="M 700.472727 395.160759 
C 705.853939 395.160759 711.015475 393.022781 714.820567 389.217689 
C 718.625658 385.412598 720.763636 380.251062 720.763636 374.86985 
C 720.763636 369.488638 718.625658 364.327102 714.820567 360.52201 
C 711.015475 356.716919 705.853939 354.578941 700.472727 354.578941 
C 695.091515 354.578941 689.929979 356.716919 686.124888 360.52201 
C 682.319796 364.327102 680.181818 369.488638 680.181818 374.86985 
C 680.181818 380.251062 682.319796 385.412598 686.124888 389.217689 
C 689.929979 393.022781 695.091515 395.160759 700.472727 395.160759 
z
" style="fill:#0000ff;stroke:#0000ff;stroke-linejoin:miter;"/>
   </g>
   <g id="patch_43">
    <path clip-path="url(#pa76516c626)" d="M 720.763636 374.86985 
C 720.763636 372.778804 720.440403 370.700269 719.805401 368.707973 
C 719.170399 366.715676 718.231227 364.833458 717.021199 363.128083 
C 715.811171 361.422708 714.344765 359.914582 712.673998 358.657201 
C 711.00323 357.399819 709.148093 356.408228 707.17439 355.717599 
C 705.200687 355.02697 703.132034 354.645569 701.041811 354.586923 
C 698.951588 354.528277 696.864805 354.793088 694.855483 355.371964 
C 692.846161 355.95084 690.938343 356.836853 689.199702 357.998576 
C 687.461061 359.160298 685.912401 360.58383 684.608656 362.218675 
C 683.30491 363.85352 682.261679 365.680118 681.515967 367.633675 
C 680.770255 369.587232 680.330985 371.644374 680.21374 373.73213 
C 680.096494 375.819885 680.302675 377.913275 680.824969 379.938042 
C 681.347263 381.962808 682.17942 383.894725 683.291924 385.665264 
C 684.404427 387.435803 685.783964 389.023779 687.381601 390.372863 
C 688.979238 391.721947 690.775858 392.815997 692.707733 393.616205 
C 694.639607 394.416414 696.683619 394.913206 698.767266 395.088959 
C 700.850912 395.264713 702.949261 395.117325 704.987879 394.652024 
L 700.472727 374.86985 
L 720.763636 374.86985 
z
" style="fill:#ffa500;stroke:#ffa500;stroke-linejoin:miter;"/>
   </g>
   <g id="patch_44">
    <path clip-path="url(#pa76516c626)" d="M 673.418182 476.324395 
C 678.799394 476.324395 683.96093 474.186417 687.766021 470.381326 
C 691.571113 466.576234 693.709091 461.414698 693.709091 456.033486 
C 693.709091 450.652274 691.571113 445.490738 687.766021 441.685647 
C 683.96093 437.880555 678.799394 435.742577 673.418182 435.742577 
C 668.03697 435.742577 662.875434 437.880555 659.070342 441.685647 
C 655.265251 445.490738 653.127273 450.652274 653.127273 456.033486 
C 653.127273 461.414698 655.265251 466.576234 659.070342 470.381326 
C 662.875434 474.186417 668.03697 476.324395 673.418182 476.324395 
z
" style="fill:#0000ff;stroke:#0000ff;stroke-linejoin:miter;"/>
   </g>
   <g id="patch_45">
    <path clip-path="url(#pa76516c626)" d="M 693.709091 456.033486 
C 693.709091 453.368908 693.184227 450.73024 692.164537 448.268491 
C 691.144848 445.806743 689.650162 443.569788 687.766021 441.685647 
C 685.88188 439.801506 683.644925 438.30682 681.183177 437.287131 
C 678.721428 436.267441 676.08276 435.742577 673.418182 435.742577 
C 670.753604 435.742577 668.114936 436.267441 665.653187 437.287131 
C 663.191438 438.30682 660.954483 439.801506 659.070342 441.685647 
C 657.186201 443.569788 655.691516 445.806743 654.671826 448.268491 
C 653.652136 450.73024 653.127273 453.368908 653.127273 456.033486 
C 653.127273 458.698064 653.652136 461.336732 654.671826 463.798481 
C 655.691516 466.26023 657.186201 468.497185 659.070342 470.381326 
C 660.954483 472.265467 663.191438 473.760152 665.653187 474.779842 
C 668.114936 475.799532 670.753604 476.324395 673.418182 476.324395 
C 676.08276 476.324395 678.721428 475.799532 681.183177 474.779842 
C 683.644925 473.760152 685.88188 472.265467 687.766021 470.381326 
C 689.650162 468.497185 691.144848 466.26023 692.164537 463.798481 
C 693.184227 461.336732 693.709091 458.698064 693.709091 456.033486 
M 673.418182 456.033486 
M 693.709091 456.033486 
z
" style="fill:#ffa500;stroke:#ffa500;stroke-linejoin:miter;"/>
   </g>
   <g id="patch_46">
    <path clip-path="url(#pa76516c626)" d="M 727.527273 476.324395 
C 732.908485 476.324395 738.070021 474.186417 741.875112 470.381326 
C 745.680204 466.576234 747.818182 461.414698 747.818182 456.033486 
C 747.818182 450.652274 745.680204 445.490738 741.875112 441.685647 
C 738.070021 437.880555 732.908485 435.742577 727.527273 435.742577 
C 722.146061 435.742577 716.984525 437.880555 713.179433 441.685647 
C 709.374342 445.490738 707.236364 450.652274 707.236364 456.033486 
C 707.236364 461.414698 709.374342 466.576234 713.179433 470.381326 
C 716.984525 474.186417 722.146061 476.324395 727.527273 476.324395 
z
" style="fill:#0000ff;stroke:#0000ff;stroke-linejoin:miter;"/>
   </g>
   <g id="patch_47">
    <path clip-path="url(#pa76516c626)" d="M 747.818182 456.033486 
C 747.818182 452.291728 746.78318 448.621888 744.828117 445.431515 
C 742.873054 442.241142 740.073083 439.652876 736.739153 437.954154 
C 733.405222 436.255431 729.66549 435.511552 725.935266 435.805127 
C 722.205043 436.098702 718.627721 437.418446 715.600576 439.617796 
C 712.57343 441.817146 710.212826 444.811558 708.780917 448.268491 
C 707.349008 451.725425 706.900838 455.511993 707.486178 459.207684 
C 708.071518 462.903374 709.667867 466.366122 712.097944 469.211378 
C 714.528022 472.056633 717.698414 474.175021 721.257037 475.331288 
L 727.527273 456.033486 
L 747.818182 456.033486 
z
" style="fill:#ffa500;stroke:#ffa500;stroke-linejoin:miter;"/>
   </g>
   <g id="patch_48">
    <path clip-path="url(#pa76516c626)" d="M 916.909091 232.833486 
C 922.290303 232.833486 927.451839 230.695508 931.25693 226.890417 
C 935.062022 223.085325 937.2 217.923789 937.2 212.542577 
C 937.2 207.161365 935.062022 201.999829 931.25693 198.194738 
C 927.451839 194.389646 922.290303 192.251668 916.909091 192.251668 
C 911.527879 192.251668 906.366343 194.389646 902.561251 198.194738 
C 898.75616 201.999829 896.618182 207.161365 896.618182 212.542577 
C 896.618182 217.923789 898.75616 223.085325 902.561251 226.890417 
C 906.366343 230.695508 911.527879 232.833486 916.909091 232.833486 
z
" style="fill:#0000ff;stroke:#0000ff;stroke-linejoin:miter;"/>
   </g>
   <g id="patch_49">
    <path clip-path="url(#pa76516c626)" d="M 937.2 212.542577 
C 937.2 209.982436 936.715474 207.445272 935.772052 205.065299 
C 934.82863 202.685325 933.443247 200.50526 931.689188 198.640429 
C 929.935129 196.775597 927.843878 195.259471 925.526061 194.172253 
C 923.208244 193.085034 920.705464 192.446238 918.150117 192.289655 
C 915.594769 192.133073 913.03272 192.461515 910.599501 193.257607 
C 908.166281 194.0537 905.905566 195.303153 903.936945 196.939872 
C 901.968323 198.576591 900.327131 200.571198 899.100186 202.81818 
C 897.873242 205.065161 897.082567 207.524185 896.769988 210.065172 
C 896.45741 212.606159 896.628538 215.1835 897.27432 217.660854 
C 897.920102 220.138209 899.028947 222.47111 900.542198 224.536151 
C 902.055449 226.601191 903.945943 228.361304 906.113676 229.723381 
C 908.281409 231.085458 910.687471 232.02505 913.204583 232.492455 
C 915.721695 232.959859 918.304677 232.946686 920.816891 232.453632 
C 923.329104 231.960578 925.725457 230.996493 927.879185 229.612376 
C 930.032912 228.22826 931.905355 226.448956 933.397465 224.368588 
C 934.889574 222.28822 935.974566 219.94413 936.595046 217.460317 
L 916.909091 212.542577 
L 937.2 212.542577 
z
" style="fill:#ffa500;stroke:#ffa500;stroke-linejoin:miter;"/>
   </g>
   <g id="patch_50">
    <path clip-path="url(#pa76516c626)" d="M 862.8 313.997123 
C 868.181212 313.997123 873.342748 311.859144 877.147839 308.054053 
C 880.952931 304.248961 883.090909 299.087426 883.090909 293.706214 
C 883.090909 288.325002 880.952931 283.163466 877.147839 279.358374 
C 873.342748 275.553283 868.181212 273.415304 862.8 273.415304 
C 857.418788 273.415304 852.257252 275.553283 848.452161 279.358374 
C 844.647069 283.163466 842.509091 288.325002 842.509091 293.706214 
C 842.509091 299.087426 844.647069 304.248961 848.452161 308.054053 
C 852.257252 311.859144 857.418788 313.997123 862.8 313.997123 
z
" style="fill:#0000ff;stroke:#0000ff;stroke-linejoin:miter;"/>
   </g>
   <g id="patch_51">
    <path clip-path="url(#pa76516c626)" d="M 883.090909 293.706214 
C 883.090909 290.504253 882.332992 287.347301 880.879332 284.494334 
C 879.425673 281.641366 877.317138 279.172588 874.726697 277.290523 
C 872.136257 275.408458 869.136737 274.166016 865.974198 273.665119 
C 862.811658 273.164222 859.57501 273.418952 856.529764 274.408412 
C 853.484519 275.397872 850.716289 277.094246 848.452161 279.358374 
C 846.188033 281.622502 844.491659 284.390732 843.502199 287.435978 
C 842.512738 290.481223 842.258009 293.717872 842.758906 296.880411 
C 843.259803 300.04295 844.502245 303.04247 846.38431 305.632911 
L 862.8 293.706214 
L 883.090909 293.706214 
z
" style="fill:#ffa500;stroke:#ffa500;stroke-linejoin:miter;"/>
   </g>
   <g id="patch_52">
    <path clip-path="url(#pa76516c626)" d="M 808.690909 395.160759 
C 814.072121 395.160759 819.233657 393.022781 823.038749 389.217689 
C 826.84384 385.412598 828.981818 380.251062 828.981818 374.86985 
C 828.981818 369.488638 826.84384 364.327102 823.038749 360.52201 
C 819.233657 356.716919 814.072121 354.578941 808.690909 354.578941 
C 803.309697 354.578941 798.148161 356.716919 794.34307 360.52201 
C 790.537978 364.327102 788.4 369.488638 788.4 374.86985 
C 788.4 380.251062 790.537978 385.412598 794.34307 389.217689 
C 798.148161 393.022781 803.309697 395.160759 808.690909 395.160759 
z
" style="fill:#0000ff;stroke:#0000ff;stroke-linejoin:miter;"/>
   </g>
   <g id="patch_53">
    <path clip-path="url(#pa76516c626)" d="M 828.981818 374.86985 
C 828.981818 370.857168 827.79151 366.933248 825.562183 363.596825 
C 823.332857 360.260401 820.163139 357.659081 816.455904 356.123494 
C 812.748669 354.587907 808.667929 354.185989 804.732349 354.968825 
C 800.796769 355.75166 797.180465 357.684616 794.34307 360.52201 
C 791.505675 363.359405 789.57272 366.97571 788.789884 370.91129 
C 788.007049 374.84687 788.408966 378.92761 789.944553 382.634845 
C 791.480141 386.34208 794.081461 389.511797 797.417884 391.741124 
C 800.754307 393.970451 804.678227 395.160759 808.690909 395.160759 
L 808.690909 374.86985 
L 828.981818 374.86985 
z
" style="fill:#ffa500;stroke:#ffa500;stroke-linejoin:miter;"/>
   </g>
   <g id="patch_54">
    <path clip-path="url(#pa76516c626)" d="M 781.636364 476.324395 
C 787.017576 476.324395 792.179112 474.186417 795.984203 470.381326 
C 799.789295 466.576234 801.927273 461.414698 801.927273 456.033486 
C 801.927273 450.652274 799.789295 445.490738 795.984203 441.685647 
C 792.179112 437.880555 787.017576 435.742577 781.636364 435.742577 
C 776.255152 435.742577 771.093616 437.880555 767.288524 441.685647 
C 763.483433 445.490738 761.345455 450.652274 761.345455 456.033486 
C 761.345455 461.414698 763.483433 466.576234 767.288524 470.381326 
C 771.093616 474.186417 776.255152 476.324395 781.636364 476.324395 
z
" style="fill:#0000ff;stroke:#0000ff;stroke-linejoin:miter;"/>
   </g>
   <g id="patch_55">
    <path clip-path="url(#pa76516c626)" d="M 801.927273 456.033486 
C 801.927273 450.654066 799.788027 445.489471 795.984203 441.685647 
C 792.180379 437.881823 787.015783 435.742577 781.636364 435.742577 
C 776.256944 435.742577 771.092348 437.881823 767.288524 441.685647 
C 763.4847 445.489471 761.345455 450.654066 761.345455 456.033486 
L 781.636364 456.033486 
L 801.927273 456.033486 
z
" style="fill:#ffa500;stroke:#ffa500;stroke-linejoin:miter;"/>
   </g>
   <g id="patch_56">
    <path clip-path="url(#pa76516c626)" d="M 835.745455 476.324395 
C 841.126667 476.324395 846.288202 474.186417 850.093294 470.381326 
C 853.898385 466.576234 856.036364 461.414698 856.036364 456.033486 
C 856.036364 450.652274 853.898385 445.490738 850.093294 441.685647 
C 846.288202 437.880555 841.126667 435.742577 835.745455 435.742577 
C 830.364243 435.742577 825.202707 437.880555 821.397615 441.685647 
C 817.592524 445.490738 815.454545 450.652274 815.454545 456.033486 
C 815.454545 461.414698 817.592524 466.576234 821.397615 470.381326 
C 825.202707 474.186417 830.364243 476.324395 835.745455 476.324395 
z
" style="fill:#0000ff;stroke:#0000ff;stroke-linejoin:miter;"/>
   </g>
   <g id="patch_57">
    <path clip-path="url(#pa76516c626)" d="M 856.036364 456.033486 
C 856.036364 453.368908 855.5115 450.73024 854.49181 448.268491 
C 853.47212 445.806743 851.977435 443.569788 850.093294 441.685647 
C 848.209153 439.801506 845.972198 438.30682 843.510449 437.287131 
C 841.0487 436.267441 838.410032 435.742577 835.745455 435.742577 
C 833.080877 435.742577 830.442209 436.267441 827.98046 437.287131 
C 825.518711 438.30682 823.281756 439.801506 821.397615 441.685647 
C 819.513474 443.569788 818.018789 445.806743 816.999099 448.268491 
C 815.979409 450.73024 815.454545 453.368908 815.454545 456.033486 
C 815.454545 458.698064 815.979409 461.336732 816.999099 463.798481 
C 818.018789 466.26023 819.513474 468.497185 821.397615 470.381326 
C 823.281756 472.265467 825.518711 473.760152 827.98046 474.779842 
C 830.442209 475.799532 833.080877 476.324395 835.745455 476.324395 
C 838.410032 476.324395 841.0487 475.799532 843.510449 474.779842 
C 845.972198 473.760152 848.209153 472.265467 850.093294 470.381326 
C 851.977435 468.497185 853.47212 466.26023 854.49181 463.798481 
C 855.5115 461.336732 856.036364 458.698064 856.036364 456.033486 
M 835.745455 456.033486 
M 856.036364 456.033486 
z
" style="fill:#ffa500;stroke:#ffa500;stroke-linejoin:miter;"/>
   </g>
   <g id="patch_58">
    <path clip-path="url(#pa76516c626)" d="M 889.854545 395.160759 
C 895.235757 395.160759 900.397293 393.022781 904.202385 389.217689 
C 908.007476 385.412598 910.145455 380.251062 910.145455 374.86985 
C 910.145455 369.488638 908.007476 364.327102 904.202385 360.52201 
C 900.397293 356.716919 895.235757 354.578941 889.854545 354.578941 
C 884.473333 354.578941 879.311798 356.716919 875.506706 360.52201 
C 871.701615 364.327102 869.563636 369.488638 869.563636 374.86985 
C 869.563636 380.251062 871.701615 385.412598 875.506706 389.217689 
C 879.311798 393.022781 884.473333 395.160759 889.854545 395.160759 
z
" style="fill:#0000ff;stroke:#0000ff;stroke-linejoin:miter;"/>
   </g>
   <g id="patch_59">
    <path clip-path="url(#pa76516c626)" d="M 1025.127273 313.997123 
C 1030.508485 313.997123 1035.670021 311.859144 1039.475112 308.054053 
C 1043.280204 304.248961 1045.418182 299.087426 1045.418182 293.706214 
C 1045.418182 288.325002 1043.280204 283.163466 1039.475112 279.358374 
C 1035.670021 275.553283 1030.508485 273.415304 1025.127273 273.415304 
C 1019.746061 273.415304 1014.584525 275.553283 1010.779433 279.358374 
C 1006.974342 283.163466 1004.836364 288.325002 1004.836364 293.706214 
C 1004.836364 299.087426 1006.974342 304.248961 1010.779433 308.054053 
C 1014.584525 311.859144 1019.746061 313.997123 1025.127273 313.997123 
z
" style="fill:#0000ff;stroke:#0000ff;stroke-linejoin:miter;"/>
   </g>
   <g id="patch_60">
    <path clip-path="url(#pa76516c626)" d="M 1045.418182 293.706214 
C 1045.418182 291.078874 1044.907886 288.476372 1043.915701 286.043579 
C 1042.923516 283.610787 1041.4682 281.393699 1039.630766 279.515735 
C 1037.793332 277.637771 1035.60852 276.134436 1033.197951 275.089416 
C 1030.787382 274.044396 1028.196631 273.477448 1025.569917 273.420133 
C 1022.943203 273.362818 1020.330187 273.816219 1017.876329 274.755097 
C 1015.422471 275.693975 1013.174164 277.100579 1011.256563 278.896608 
C 1009.338963 280.692637 1007.788324 282.844134 1006.690967 285.231333 
C 1005.593609 287.618531 1004.970279 290.196298 1004.855676 292.821136 
C 1004.741073 295.445975 1005.137364 298.068259 1006.022488 300.542015 
C 1006.907612 303.015771 1008.264834 305.294228 1010.018604 307.250552 
C 1011.772373 309.206876 1013.889531 310.804081 1016.252223 311.953254 
C 1018.614915 313.102427 1021.17847 313.781842 1023.800184 313.953678 
C 1026.421898 314.125514 1029.052203 313.786523 1031.544679 312.955574 
C 1034.037155 312.124626 1036.344677 310.81743 1038.338794 309.106755 
C 1040.332911 307.396081 1041.975921 305.314269 1043.176363 302.977209 
C 1044.376804 300.640148 1045.111981 298.092024 1045.340969 295.474683 
L 1025.127273 293.706214 
L 1045.418182 293.706214 
z
" style="fill:#ffa500;stroke:#ffa500;stroke-linejoin:miter;"/>
   </g>
   <g id="patch_61">
    <path clip-path="url(#pa76516c626)" d="M 971.018182 395.160759 
C 976.399394 395.160759 981.56093 393.022781 985.366021 389.217689 
C 989.171113 385.412598 991.309091 380.251062 991.309091 374.86985 
C 991.309091 369.488638 989.171113 364.327102 985.366021 360.52201 
C 981.56093 356.716919 976.399394 354.578941 971.018182 354.578941 
C 965.63697 354.578941 960.475434 356.716919 956.670342 360.52201 
C 952.865251 364.327102 950.727273 369.488638 950.727273 374.86985 
C 950.727273 380.251062 952.865251 385.412598 956.670342 389.217689 
C 960.475434 393.022781 965.63697 395.160759 971.018182 395.160759 
z
" style="fill:#0000ff;stroke:#0000ff;stroke-linejoin:miter;"/>
   </g>
   <g id="patch_62">
    <path clip-path="url(#pa76516c626)" d="M 991.309091 374.86985 
C 991.309091 372.38393 990.852251 369.919044 989.961377 367.598238 
C 989.070504 365.277433 987.760671 363.13998 986.097266 361.292582 
C 984.433861 359.445183 982.445032 357.919101 980.230062 356.790517 
C 978.015091 355.661934 975.611461 354.949946 973.139159 354.690097 
C 970.666858 354.430247 968.167722 354.626933 965.766508 355.270337 
C 963.365294 355.91374 961.102636 356.992973 959.091485 358.45416 
C 957.080334 359.915346 955.354722 361.733761 954.000794 363.818629 
C 952.646865 365.903496 951.687529 368.219537 951.170678 370.651133 
C 950.653826 373.082729 950.588204 375.588734 950.977087 378.044047 
C 951.365971 380.499361 952.202779 382.862435 953.445739 385.015304 
C 954.688699 387.168174 956.316777 389.074408 958.248699 390.638848 
C 960.180621 392.203288 962.383696 393.39946 964.747946 394.167651 
C 967.112196 394.935843 969.597613 395.263054 972.080126 395.132951 
C 974.562638 395.002848 977.000238 394.417632 979.271238 393.406518 
C 981.542238 392.395403 983.608211 390.9755 985.366021 389.217689 
C 987.123832 387.459879 988.543735 385.393906 989.55485 383.122906 
L 971.018182 374.86985 
L 991.309091 374.86985 
z
" style="fill:#ffa500;stroke:#ffa500;stroke-linejoin:miter;"/>
   </g>
   <g id="patch_63">
    <path clip-path="url(#pa76516c626)" d="M 943.963636 476.324395 
C 949.344848 476.324395 954.506384 474.186417 958.311476 470.381326 
C 962.116567 466.576234 964.254545 461.414698 964.254545 456.033486 
C 964.254545 450.652274 962.116567 445.490738 958.311476 441.685647 
C 954.506384 437.880555 949.344848 435.742577 943.963636 435.742577 
C 938.582424 435.742577 933.420888 437.880555 929.615797 441.685647 
C 925.810705 445.490738 923.672727 450.652274 923.672727 456.033486 
C 923.672727 461.414698 925.810705 466.576234 929.615797 470.381326 
C 933.420888 474.186417 938.582424 476.324395 943.963636 476.324395 
z
" style="fill:#0000ff;stroke:#0000ff;stroke-linejoin:miter;"/>
   </g>
   <g id="patch_64">
    <path clip-path="url(#pa76516c626)" d="M 964.254545 456.033486 
C 964.254545 453.368908 963.729682 450.73024 962.709992 448.268491 
C 961.690302 445.806743 960.195617 443.569788 958.311476 441.685647 
C 956.427335 439.801506 954.19038 438.30682 951.728631 437.287131 
C 949.266882 436.267441 946.628214 435.742577 943.963636 435.742577 
C 941.299059 435.742577 938.66039 436.267441 936.198642 437.287131 
C 933.736893 438.30682 931.499938 439.801506 929.615797 441.685647 
C 927.731656 443.569788 926.236971 445.806743 925.217281 448.268491 
C 924.197591 450.73024 923.672727 453.368908 923.672727 456.033486 
C 923.672727 458.698064 924.197591 461.336732 925.217281 463.798481 
C 926.236971 466.26023 927.731656 468.497185 929.615797 470.381326 
C 931.499938 472.265467 933.736893 473.760152 936.198642 474.779842 
C 938.66039 475.799532 941.299059 476.324395 943.963636 476.324395 
C 946.628214 476.324395 949.266882 475.799532 951.728631 474.779842 
C 954.19038 473.760152 956.427335 472.265467 958.311476 470.381326 
C 960.195617 468.497185 961.690302 466.26023 962.709992 463.798481 
C 963.729682 461.336732 964.254545 458.698064 964.254545 456.033486 
M 943.963636 456.033486 
M 964.254545 456.033486 
z
" style="fill:#ffa500;stroke:#ffa500;stroke-linejoin:miter;"/>
   </g>
   <g id="patch_65">
    <path clip-path="url(#pa76516c626)" d="M 998.072727 476.324395 
C 1003.453939 476.324395 1008.615475 474.186417 1012.420567 470.381326 
C 1016.225658 466.576234 1018.363636 461.414698 1018.363636 456.033486 
C 1018.363636 450.652274 1016.225658 445.490738 1012.420567 441.685647 
C 1008.615475 437.880555 1003.453939 435.742577 998.072727 435.742577 
C 992.691515 435.742577 987.529979 437.880555 983.724888 441.685647 
C 979.919796 445.490738 977.781818 450.652274 977.781818 456.033486 
C 977.781818 461.414698 979.919796 466.576234 983.724888 470.381326 
C 987.529979 474.186417 992.691515 476.324395 998.072727 476.324395 
z
" style="fill:#0000ff;stroke:#0000ff;stroke-linejoin:miter;"/>
   </g>
   <g id="patch_66">
    <path clip-path="url(#pa76516c626)" d="M 1052.181818 395.160759 
C 1057.56303 395.160759 1062.724566 393.022781 1066.529658 389.217689 
C 1070.334749 385.412598 1072.472727 380.251062 1072.472727 374.86985 
C 1072.472727 369.488638 1070.334749 364.327102 1066.529658 360.52201 
C 1062.724566 356.716919 1057.56303 354.578941 1052.181818 354.578941 
C 1046.800606 354.578941 1041.63907 356.716919 1037.833979 360.52201 
C 1034.028887 364.327102 1031.890909 369.488638 1031.890909 374.86985 
C 1031.890909 380.251062 1034.028887 385.412598 1037.833979 389.217689 
C 1041.63907 393.022781 1046.800606 395.160759 1052.181818 395.160759 
z
" style="fill:#0000ff;stroke:#0000ff;stroke-linejoin:miter;"/>
   </g>
   <g id="patch_67">
    <path clip-path="url(#pa76516c626)" d="M 1072.472727 374.86985 
C 1072.472727 372.205272 1071.947864 369.566604 1070.928174 367.104855 
C 1069.908484 364.643106 1068.413799 362.406151 1066.529658 360.52201 
C 1064.645517 358.637869 1062.408562 357.143184 1059.946813 356.123494 
C 1057.485064 355.103805 1054.846396 354.578941 1052.181818 354.578941 
C 1049.51724 354.578941 1046.878572 355.103805 1044.416823 356.123494 
C 1041.955075 357.143184 1039.71812 358.637869 1037.833979 360.52201 
C 1035.949838 362.406151 1034.455152 364.643106 1033.435463 367.104855 
C 1032.415773 369.566604 1031.890909 372.205272 1031.890909 374.86985 
C 1031.890909 377.534428 1032.415773 380.173096 1033.435463 382.634845 
C 1034.455152 385.096593 1035.949838 387.333548 1037.833979 389.217689 
C 1039.71812 391.10183 1041.955075 392.596516 1044.416823 393.616205 
C 1046.878572 394.635895 1049.51724 395.160759 1052.181818 395.160759 
C 1054.846396 395.160759 1057.485064 394.635895 1059.946813 393.616205 
C 1062.408562 392.596516 1064.645517 391.10183 1066.529658 389.217689 
C 1068.413799 387.333548 1069.908484 385.096593 1070.928174 382.634845 
C 1071.947864 380.173096 1072.472727 377.534428 1072.472727 374.86985 
M 1052.181818 374.86985 
M 1072.472727 374.86985 
z
" style="fill:#ffa500;stroke:#ffa500;stroke-linejoin:miter;"/>
   </g>
   <g id="text_1">
    <g id="patch_68">
     <path d="M 392.367113 23.838941 
L 467.487433 23.838941 
L 467.487433 3.321036 
L 392.367113 3.321036 
z
" style="fill:#ffffff;stroke:#000000;stroke-linejoin:miter;"/>
    </g>
    <!-- $x_0 \geq -0.36$ -->
    <defs>
     <path d="M 47.40625 41 
C 44.203125 40.390625 43 37.984375 43 36.09375 
C 43 33.6875 44.90625 32.890625 46.296875 32.890625 
C 49.296875 32.890625 51.40625 35.484375 51.40625 38.1875 
C 51.40625 42.09375 46.59375 44 42.40625 44 
C 36.296875 44 32.90625 38.296875 32 36.390625 
C 29.703125 43.59375 23.5 44 21.703125 44 
C 11.5 44 6.09375 31.140625 6.09375 28.890625 
C 6.09375 28.484375 6.5 27.96875 7.203125 27.96875 
C 8 27.96875 8.203125 28.578125 8.40625 28.984375 
C 11.796875 40.1875 18.5 41.984375 21.40625 41.984375 
C 25.90625 41.984375 26.796875 38.09375 26.796875 35.6875 
C 26.796875 33.484375 26.203125 31.140625 25 26.21875 
L 21.59375 12.15625 
C 20.09375 6.09375 17.203125 1 11.90625 1 
C 11.40625 1 8.90625 1 6.796875 1.96875 
C 10.40625 2.59375 11.203125 5.59375 11.203125 6.796875 
C 11.203125 8.796875 9.703125 10 7.796875 10 
C 5.40625 10 2.796875 7.890625 2.796875 4.6875 
C 2.796875 0.890625 7.5 -1 11.796875 -1 
C 16.59375 -1 20 2.390625 22.09375 6.484375 
C 23.703125 1 28.703125 -1 32.40625 -1 
C 42.59375 -1 48 11.734375 48 14 
C 48 14.515625 47.59375 14.921875 47 14.921875 
C 46.09375 14.921875 46 14.40625 45.703125 13.59375 
C 43 4.6875 37.203125 1 32.703125 1 
C 29.203125 1 27.296875 3.1875 27.296875 7.296875 
C 27.296875 9.484375 27.703125 11.125 29.296875 17.90625 
L 32.796875 31.859375 
C 34.296875 37.890625 37.703125 41.984375 42.296875 41.984375 
C 42.5 41.984375 45.296875 41.984375 47.40625 41 
z
" id="CMMI12-120"/>
     <path d="M 42 31.84375 
C 42 37.96875 41.90625 48.421875 37.703125 56.453125 
C 34 63.484375 28.09375 66 22.90625 66 
C 18.09375 66 12 63.78125 8.203125 56.5625 
C 4.203125 49.015625 3.796875 39.671875 3.796875 31.84375 
C 3.796875 26.109375 3.90625 17.375 7 9.734375 
C 11.296875 -0.609375 19 -2 22.90625 -2 
C 27.5 -2 34.5 -0.109375 38.59375 9.4375 
C 41.59375 16.375 42 24.5 42 31.84375 
z
M 22.90625 -0.40625 
C 16.5 -0.40625 12.703125 5.125 11.296875 12.75 
C 10.203125 18.6875 10.203125 27.328125 10.203125 32.953125 
C 10.203125 40.6875 10.203125 47.109375 11.5 53.234375 
C 13.40625 61.78125 19 64.390625 22.90625 64.390625 
C 27 64.390625 32.296875 61.671875 34.203125 53.4375 
C 35.5 47.71875 35.59375 40.984375 35.59375 32.953125 
C 35.59375 26.421875 35.59375 18.375 34.40625 12.453125 
C 32.296875 1.5 26.40625 -0.40625 22.90625 -0.40625 
z
" id="CMR17-48"/>
     <path d="M 67.40625 32.6875 
C 68.796875 33.28125 69.40625 33.984375 69.40625 34.890625 
C 69.40625 35.890625 69 36.5 67.40625 37.203125 
L 12.296875 63.296875 
C 10.90625 64 10.5 64 10.296875 64 
C 9.09375 64 8.296875 63.09375 8.296875 61.984375 
C 8.296875 60.78125 9.09375 60.28125 10.203125 59.78125 
L 62.703125 35 
L 10.40625 10.203125 
C 8.40625 9.296875 8.296875 8.5 8.296875 7.890625 
C 8.296875 6.796875 9.203125 5.890625 10.296875 5.890625 
C 10.59375 5.890625 10.796875 5.890625 12.09375 6.59375 
z
M 65.90625 -14 
C 67.59375 -14 69.40625 -14 69.40625 -12 
C 69.40625 -10 67.296875 -10 65.796875 -10 
L 11.90625 -10 
C 10.40625 -10 8.296875 -10 8.296875 -12 
C 8.296875 -14 10.09375 -14 11.796875 -14 
z
" id="CMSY10-21"/>
     <path d="M 65.90625 23 
C 67.59375 23 69.40625 23 69.40625 25 
C 69.40625 27 67.59375 27 65.90625 27 
L 11.796875 27 
C 10.09375 27 8.296875 27 8.296875 25 
C 8.296875 23 10.09375 23 11.796875 23 
z
" id="CMSY10-0"/>
     <path d="M 18.40625 4.796875 
C 18.40625 7.6875 16 9.6875 13.59375 9.6875 
C 10.703125 9.6875 8.703125 7.296875 8.703125 4.890625 
C 8.703125 2 11.09375 0 13.5 0 
C 16.40625 0 18.40625 2.390625 18.40625 4.796875 
z
" id="CMMI12-58"/>
     <path d="M 22.09375 34 
C 31 34 34.90625 26.140625 34.90625 17.09375 
C 34.90625 5.03125 28.5 0.390625 22.703125 0.390625 
C 17.40625 0.390625 8.796875 3.015625 6.09375 10.796875 
C 6.59375 10.59375 7.09375 10.59375 7.59375 10.59375 
C 10 10.59375 11.796875 12.1875 11.796875 14.796875 
C 11.796875 17.6875 9.59375 19 7.59375 19 
C 5.90625 19 3.296875 18.1875 3.296875 14.484375 
C 3.296875 5.234375 12.296875 -2 22.90625 -2 
C 34 -2 42.5 6.75 42.5 16.984375 
C 42.5 26.84375 34.5 34 25 35.09375 
C 32.59375 36.671875 39.90625 43.375 39.90625 52.390625 
C 39.90625 60.25 32 66 23 66 
C 13.90625 66 5.90625 60.34375 5.90625 52.296875 
C 5.90625 48.796875 8.5 48.1875 9.796875 48.1875 
C 11.90625 48.1875 13.703125 49.484375 13.703125 52.09375 
C 13.703125 54.6875 11.90625 56 9.796875 56 
C 9.40625 56 8.90625 56 8.5 55.796875 
C 11.40625 62.484375 19.296875 63.6875 22.796875 63.6875 
C 26.296875 63.6875 32.90625 61.96875 32.90625 52.296875 
C 32.90625 49.484375 32.5 44.546875 29.09375 40.21875 
C 26.09375 36.390625 22.703125 36.1875 19.40625 35.890625 
C 18.90625 35.890625 16.59375 35.6875 16.203125 35.6875 
C 15.5 35.59375 15.09375 35.5 15.09375 34.796875 
C 15.09375 34.09375 15.203125 34 17.203125 34 
z
" id="CMR17-51"/>
     <path d="M 10.59375 34.34375 
C 10.59375 58 21.796875 63.6875 28.296875 63.6875 
C 30.40625 63.6875 35.5 63.265625 37.5 59.09375 
C 35.90625 59.09375 32.90625 59.09375 32.90625 55.59375 
C 32.90625 52.890625 35.09375 52 36.5 52 
C 37.40625 52 40.09375 52.390625 40.09375 55.796875 
C 40.09375 62.296875 35.09375 66 28.203125 66 
C 16.296875 66 3.796875 53.296875 3.796875 31.421875 
C 3.796875 4.015625 15.09375 -2 23.09375 -2 
C 32.796875 -2 42 6.734375 42 20.234375 
C 42 32.828125 33.90625 42 23.703125 42 
C 17.59375 42 13.09375 37.96875 10.59375 30.921875 
z
M 23.09375 0.390625 
C 10.796875 0.390625 10.796875 18.9375 10.796875 22.65625 
C 10.796875 29.90625 14.203125 40.390625 23.5 40.390625 
C 25.203125 40.390625 30.09375 40.390625 33.40625 33.4375 
C 35.203125 29.515625 35.203125 25.375 35.203125 20.34375 
C 35.203125 14.90625 35.203125 10.875 33.09375 6.84375 
C 30.90625 2.703125 27.703125 0.390625 23.09375 0.390625 
z
" id="CMR17-54"/>
    </defs>
    <g style="fill:#262626;" transform="translate(396.427113 17.066912)scale(0.14 -0.14)">
     <use transform="scale(0.996264)" xlink:href="#CMMI12-120"/>
     <use transform="translate(55.43406 -14.943915)scale(0.697382)" xlink:href="#CMR17-48"/>
     <use transform="translate(115.589382 0)scale(0.996264)" xlink:href="#CMSY10-21"/>
     <use transform="translate(220.750859 0)scale(0.996264)" xlink:href="#CMSY10-0"/>
     <use transform="translate(298.238326 0)scale(0.996264)" xlink:href="#CMR17-48"/>
     <use transform="translate(343.928803 0)scale(0.996264)" xlink:href="#CMMI12-58"/>
     <use transform="translate(371.02598 0)scale(0.996264)" xlink:href="#CMR17-51"/>
     <use transform="translate(416.716458 0)scale(0.996264)" xlink:href="#CMR17-54"/>
    </g>
   </g>
   <g id="text_2">
    <g id="patch_69">
     <path d="M 235.463957 105.002577 
L 299.736043 105.002577 
L 299.736043 84.484672 
L 235.463957 84.484672 
z
" style="fill:#ffffff;stroke:#000000;stroke-linejoin:miter;"/>
    </g>
    <!-- $x_1 \geq 0.62$ -->
    <defs>
     <path d="M 26.59375 63.796875 
C 26.59375 65.890625 26.5 66 25.09375 66 
C 21.203125 61.359375 15.296875 59.890625 9.703125 59.6875 
C 9.40625 59.6875 8.90625 59.6875 8.796875 59.5 
C 8.703125 59.296875 8.703125 59.09375 8.703125 57 
C 11.796875 57 17 57.59375 21 59.984375 
L 21 7.296875 
C 21 3.796875 20.796875 2.59375 12.203125 2.59375 
L 9.203125 2.59375 
L 9.203125 0 
C 14 0.09375 19 0.1875 23.796875 0.1875 
C 28.59375 0.1875 33.59375 0.09375 38.40625 0 
L 38.40625 2.59375 
L 35.40625 2.59375 
C 26.796875 2.59375 26.59375 3.6875 26.59375 7.296875 
z
" id="CMR17-49"/>
     <path d="M 41.703125 15.46875 
L 39.90625 15.46875 
C 38.90625 8.390625 38.09375 7.1875 37.703125 6.59375 
C 37.203125 5.796875 30 5.796875 28.59375 5.796875 
L 9.40625 5.796875 
C 13 9.6875 20 16.765625 28.5 24.9375 
C 34.59375 30.71875 41.703125 37.5 41.703125 47.390625 
C 41.703125 59.1875 32.296875 66 21.796875 66 
C 10.796875 66 4.09375 56.296875 4.09375 47.296875 
C 4.09375 43.390625 7 42.890625 8.203125 42.890625 
C 9.203125 42.890625 12.203125 43.484375 12.203125 46.984375 
C 12.203125 50.09375 9.59375 51 8.203125 51 
C 7.59375 51 7 50.890625 6.59375 50.6875 
C 8.5 59.1875 14.296875 63.390625 20.40625 63.390625 
C 29.09375 63.390625 34.796875 56.5 34.796875 47.390625 
C 34.796875 38.703125 29.703125 31.21875 24 24.734375 
L 4.09375 2.296875 
L 4.09375 0 
L 39.296875 0 
z
" id="CMR17-50"/>
    </defs>
    <g style="fill:#262626;" transform="translate(239.523957 98.230549)scale(0.14 -0.14)">
     <use transform="scale(0.996264)" xlink:href="#CMMI12-120"/>
     <use transform="translate(55.43406 -14.943915)scale(0.697382)" xlink:href="#CMR17-49"/>
     <use transform="translate(115.589382 0)scale(0.996264)" xlink:href="#CMSY10-21"/>
     <use transform="translate(220.750859 0)scale(0.996264)" xlink:href="#CMR17-48"/>
     <use transform="translate(266.441336 0)scale(0.996264)" xlink:href="#CMMI12-58"/>
     <use transform="translate(293.538513 0)scale(0.996264)" xlink:href="#CMR17-54"/>
     <use transform="translate(339.22899 0)scale(0.996264)" xlink:href="#CMR17-50"/>
    </g>
   </g>
   <g id="text_3">
    <g id="patch_70">
     <path d="M 67.712567 186.166214 
L 142.832887 186.166214 
L 142.832887 165.648309 
L 67.712567 165.648309 
z
" style="fill:#ffffff;stroke:#000000;stroke-linejoin:miter;"/>
    </g>
    <!-- $x_0 \geq -0.72$ -->
    <defs>
     <path d="M 45.09375 61.796875 
L 45.09375 64 
L 21.59375 64 
C 9.90625 64 9.703125 65.09375 9.296875 67 
L 7.5 67 
L 4.59375 48.5 
L 6.40625 48.5 
C 6.703125 50.40625 7.40625 55.5 8.59375 57.390625 
C 9.203125 58.1875 16.59375 58.1875 18.296875 58.1875 
L 40.296875 58.1875 
L 29.203125 41.71875 
C 21.796875 30.640625 16.703125 15.671875 16.703125 2.59375 
C 16.703125 1.390625 16.703125 -2 20.296875 -2 
C 23.90625 -2 23.90625 1.390625 23.90625 2.6875 
L 23.90625 7.28125 
C 23.90625 23.65625 26.703125 34.4375 31.296875 41.3125 
z
" id="CMR17-55"/>
    </defs>
    <g style="fill:#262626;" transform="translate(71.772567 179.394185)scale(0.14 -0.14)">
     <use transform="scale(0.996264)" xlink:href="#CMMI12-120"/>
     <use transform="translate(55.43406 -14.943915)scale(0.697382)" xlink:href="#CMR17-48"/>
     <use transform="translate(115.589382 0)scale(0.996264)" xlink:href="#CMSY10-21"/>
     <use transform="translate(220.750859 0)scale(0.996264)" xlink:href="#CMSY10-0"/>
     <use transform="translate(298.238326 0)scale(0.996264)" xlink:href="#CMR17-48"/>
     <use transform="translate(343.928803 0)scale(0.996264)" xlink:href="#CMMI12-58"/>
     <use transform="translate(371.02598 0)scale(0.996264)" xlink:href="#CMR17-55"/>
     <use transform="translate(416.716458 0)scale(0.996264)" xlink:href="#CMR17-50"/>
    </g>
   </g>
   <g id="text_4">
    <g id="patch_71">
     <path d="M 121.821658 267.32985 
L 196.941978 267.32985 
L 196.941978 246.811945 
L 121.821658 246.811945 
z
" style="fill:#ffffff;stroke:#000000;stroke-linejoin:miter;"/>
    </g>
    <!-- $x_0 \geq -0.70$ -->
    <g style="fill:#262626;" transform="translate(125.881658 260.557821)scale(0.14 -0.14)">
     <use transform="scale(0.996264)" xlink:href="#CMMI12-120"/>
     <use transform="translate(55.43406 -14.943915)scale(0.697382)" xlink:href="#CMR17-48"/>
     <use transform="translate(115.589382 0)scale(0.996264)" xlink:href="#CMSY10-21"/>
     <use transform="translate(220.750859 0)scale(0.996264)" xlink:href="#CMSY10-0"/>
     <use transform="translate(298.238326 0)scale(0.996264)" xlink:href="#CMR17-48"/>
     <use transform="translate(343.928803 0)scale(0.996264)" xlink:href="#CMMI12-58"/>
     <use transform="translate(371.02598 0)scale(0.996264)" xlink:href="#CMR17-55"/>
     <use transform="translate(416.716458 0)scale(0.996264)" xlink:href="#CMR17-48"/>
    </g>
   </g>
   <g id="text_5">
    <g id="patch_72">
     <path d="M 175.930749 348.493486 
L 251.051069 348.493486 
L 251.051069 327.975581 
L 175.930749 327.975581 
z
" style="fill:#ffffff;stroke:#000000;stroke-linejoin:miter;"/>
    </g>
    <!-- $x_1 \geq -0.58$ -->
    <defs>
     <path d="M 11.40625 58.59375 
C 12.40625 58.1875 16.5 56.890625 20.703125 56.890625 
C 30 56.890625 35.09375 61.890625 38 64.6875 
C 38 65.484375 38 66 37.40625 66 
C 37.296875 66 37.09375 66 36.296875 65.59375 
C 32.796875 64.09375 28.703125 63 23.703125 63 
C 20.703125 63 16.203125 63.359375 11.296875 65.484375 
C 10.203125 66 10 66 9.90625 66 
C 9.40625 66 9.296875 65.890625 9.296875 63.90625 
L 9.296875 34.859375 
C 9.296875 33.015625 9.296875 32.5 10.296875 32.5 
C 10.796875 32.5 11 32.703125 11.5 33.421875 
C 14.703125 38.046875 19.09375 40 24.09375 40 
C 27.59375 40 35.09375 37.734375 35.09375 20.203125 
C 35.09375 16.984375 35.09375 11.1875 32.09375 6.59375 
C 29.59375 2.484375 25.703125 0.390625 21.40625 0.390625 
C 14.796875 0.390625 8.09375 4.984375 6.296875 12.6875 
C 6.703125 12.59375 7.5 12.390625 7.90625 12.390625 
C 9.203125 12.390625 11.703125 13.09375 11.703125 16.1875 
C 11.703125 18.890625 9.796875 20 7.90625 20 
C 5.59375 20 4.09375 18.59375 4.09375 15.796875 
C 4.09375 7.09375 11 -2 21.59375 -2 
C 31.90625 -2 41.703125 6.890625 41.703125 19.796875 
C 41.703125 32.09375 33.90625 41.59375 24.203125 41.59375 
C 19.09375 41.59375 14.796875 39.6875 11.40625 36 
z
" id="CMR17-53"/>
     <path d="M 27.203125 35.765625 
C 33.5 38.96875 39.90625 43.796875 39.90625 51.53125 
C 39.90625 60.6875 31.09375 66 23 66 
C 13.90625 66 5.90625 59.375 5.90625 50.234375 
C 5.90625 47.71875 6.5 43.390625 10.40625 39.578125 
C 11.40625 38.578125 15.59375 35.5625 18.296875 33.65625 
C 13.796875 31.34375 3.296875 25.8125 3.296875 14.765625 
C 3.296875 4.40625 13.09375 -2 22.796875 -2 
C 33.5 -2 42.5 5.71875 42.5 15.96875 
C 42.5 25.109375 36.40625 29.328125 32.40625 32.046875 
z
M 14.09375 44.609375 
C 13.296875 45.109375 9.296875 48.21875 9.296875 52.9375 
C 9.296875 59.078125 15.59375 63.6875 22.796875 63.6875 
C 30.703125 63.6875 36.5 58.0625 36.5 51.53125 
C 36.5 42.1875 26.09375 36.859375 25.59375 36.859375 
C 25.5 36.859375 25.40625 36.859375 24.59375 37.46875 
z
M 32.5 24 
C 34 22.90625 38.796875 19.578125 38.796875 13.453125 
C 38.796875 6.015625 31.40625 0.390625 23 0.390625 
C 13.90625 0.390625 7 6.921875 7 14.859375 
C 7 22.796875 13.09375 29.4375 20 32.546875 
z
" id="CMR17-56"/>
    </defs>
    <g style="fill:#262626;" transform="translate(179.990749 341.721458)scale(0.14 -0.14)">
     <use transform="scale(0.996264)" xlink:href="#CMMI12-120"/>
     <use transform="translate(55.43406 -14.943915)scale(0.697382)" xlink:href="#CMR17-49"/>
     <use transform="translate(115.589382 0)scale(0.996264)" xlink:href="#CMSY10-21"/>
     <use transform="translate(220.750859 0)scale(0.996264)" xlink:href="#CMSY10-0"/>
     <use transform="translate(298.238326 0)scale(0.996264)" xlink:href="#CMR17-48"/>
     <use transform="translate(343.928803 0)scale(0.996264)" xlink:href="#CMMI12-58"/>
     <use transform="translate(371.02598 0)scale(0.996264)" xlink:href="#CMR17-53"/>
     <use transform="translate(416.716458 0)scale(0.996264)" xlink:href="#CMR17-56"/>
    </g>
   </g>
   <g id="text_6">
    <g id="patch_73">
     <path d="M 338.258022 186.166214 
L 413.378342 186.166214 
L 413.378342 165.648309 
L 338.258022 165.648309 
z
" style="fill:#ffffff;stroke:#000000;stroke-linejoin:miter;"/>
    </g>
    <!-- $x_0 \geq -1.24$ -->
    <defs>
     <path d="M 33.59375 64.796875 
C 33.59375 66.890625 33.5 67 31.703125 67 
L 2 19.59375 
L 2 17 
L 27.796875 17 
L 27.796875 7.1875 
C 27.796875 3.59375 27.59375 2.59375 20.59375 2.59375 
L 18.703125 2.59375 
L 18.703125 0 
C 21.90625 0.1875 27.296875 0.1875 30.703125 0.1875 
C 34.09375 0.1875 39.5 0.1875 42.703125 0 
L 42.703125 2.59375 
L 40.796875 2.59375 
C 33.796875 2.59375 33.59375 3.59375 33.59375 7.1875 
L 33.59375 17 
L 43.796875 17 
L 43.796875 19.59375 
L 33.59375 19.59375 
z
M 28.09375 58.171875 
L 28.09375 19.59375 
L 4 19.59375 
z
" id="CMR17-52"/>
    </defs>
    <g style="fill:#262626;" transform="translate(342.318022 179.394185)scale(0.14 -0.14)">
     <use transform="scale(0.996264)" xlink:href="#CMMI12-120"/>
     <use transform="translate(55.43406 -14.943915)scale(0.697382)" xlink:href="#CMR17-48"/>
     <use transform="translate(115.589382 0)scale(0.996264)" xlink:href="#CMSY10-21"/>
     <use transform="translate(220.750859 0)scale(0.996264)" xlink:href="#CMSY10-0"/>
     <use transform="translate(298.238326 0)scale(0.996264)" xlink:href="#CMR17-49"/>
     <use transform="translate(343.928803 0)scale(0.996264)" xlink:href="#CMMI12-58"/>
     <use transform="translate(371.02598 0)scale(0.996264)" xlink:href="#CMR17-50"/>
     <use transform="translate(416.716458 0)scale(0.996264)" xlink:href="#CMR17-52"/>
    </g>
   </g>
   <g id="text_7">
    <g id="patch_74">
     <path d="M 289.573048 267.32985 
L 353.845134 267.32985 
L 353.845134 246.811945 
L 289.573048 246.811945 
z
" style="fill:#ffffff;stroke:#000000;stroke-linejoin:miter;"/>
    </g>
    <!-- $x_1 \geq 1.43$ -->
    <g style="fill:#262626;" transform="translate(293.633048 260.557821)scale(0.14 -0.14)">
     <use transform="scale(0.996264)" xlink:href="#CMMI12-120"/>
     <use transform="translate(55.43406 -14.943915)scale(0.697382)" xlink:href="#CMR17-49"/>
     <use transform="translate(115.589382 0)scale(0.996264)" xlink:href="#CMSY10-21"/>
     <use transform="translate(220.750859 0)scale(0.996264)" xlink:href="#CMR17-49"/>
     <use transform="translate(266.441336 0)scale(0.996264)" xlink:href="#CMMI12-58"/>
     <use transform="translate(293.538513 0)scale(0.996264)" xlink:href="#CMR17-52"/>
     <use transform="translate(339.22899 0)scale(0.996264)" xlink:href="#CMR17-51"/>
    </g>
   </g>
   <g id="text_8">
    <g id="patch_75">
     <path d="M 717.021658 105.002577 
L 792.141978 105.002577 
L 792.141978 84.484672 
L 717.021658 84.484672 
z
" style="fill:#ffffff;stroke:#000000;stroke-linejoin:miter;"/>
    </g>
    <!-- $x_1 \geq -0.17$ -->
    <g style="fill:#262626;" transform="translate(721.081658 98.230549)scale(0.14 -0.14)">
     <use transform="scale(0.996264)" xlink:href="#CMMI12-120"/>
     <use transform="translate(55.43406 -14.943915)scale(0.697382)" xlink:href="#CMR17-49"/>
     <use transform="translate(115.589382 0)scale(0.996264)" xlink:href="#CMSY10-21"/>
     <use transform="translate(220.750859 0)scale(0.996264)" xlink:href="#CMSY10-0"/>
     <use transform="translate(298.238326 0)scale(0.996264)" xlink:href="#CMR17-48"/>
     <use transform="translate(343.928803 0)scale(0.996264)" xlink:href="#CMMI12-58"/>
     <use transform="translate(371.02598 0)scale(0.996264)" xlink:href="#CMR17-49"/>
     <use transform="translate(416.716458 0)scale(0.996264)" xlink:href="#CMR17-55"/>
    </g>
   </g>
   <g id="text_9">
    <g id="patch_76">
     <path d="M 560.118503 186.166214 
L 624.390588 186.166214 
L 624.390588 165.648309 
L 560.118503 165.648309 
z
" style="fill:#ffffff;stroke:#000000;stroke-linejoin:miter;"/>
    </g>
    <!-- $x_0 \geq 0.45$ -->
    <g style="fill:#262626;" transform="translate(564.178503 179.394185)scale(0.14 -0.14)">
     <use transform="scale(0.996264)" xlink:href="#CMMI12-120"/>
     <use transform="translate(55.43406 -14.943915)scale(0.697382)" xlink:href="#CMR17-48"/>
     <use transform="translate(115.589382 0)scale(0.996264)" xlink:href="#CMSY10-21"/>
     <use transform="translate(220.750859 0)scale(0.996264)" xlink:href="#CMR17-48"/>
     <use transform="translate(266.441336 0)scale(0.996264)" xlink:href="#CMMI12-58"/>
     <use transform="translate(293.538513 0)scale(0.996264)" xlink:href="#CMR17-52"/>
     <use transform="translate(339.22899 0)scale(0.996264)" xlink:href="#CMR17-53"/>
    </g>
   </g>
   <g id="text_10">
    <g id="patch_77">
     <path d="M 500.585294 267.32985 
L 575.705615 267.32985 
L 575.705615 246.811945 
L 500.585294 246.811945 
z
" style="fill:#ffffff;stroke:#000000;stroke-linejoin:miter;"/>
    </g>
    <!-- $x_1 \geq -1.68$ -->
    <g style="fill:#262626;" transform="translate(504.645294 260.557821)scale(0.14 -0.14)">
     <use transform="scale(0.996264)" xlink:href="#CMMI12-120"/>
     <use transform="translate(55.43406 -14.943915)scale(0.697382)" xlink:href="#CMR17-49"/>
     <use transform="translate(115.589382 0)scale(0.996264)" xlink:href="#CMSY10-21"/>
     <use transform="translate(220.750859 0)scale(0.996264)" xlink:href="#CMSY10-0"/>
     <use transform="translate(298.238326 0)scale(0.996264)" xlink:href="#CMR17-49"/>
     <use transform="translate(343.928803 0)scale(0.996264)" xlink:href="#CMMI12-58"/>
     <use transform="translate(371.02598 0)scale(0.996264)" xlink:href="#CMR17-54"/>
     <use transform="translate(416.716458 0)scale(0.996264)" xlink:href="#CMR17-56"/>
    </g>
   </g>
   <g id="text_11">
    <g id="patch_78">
     <path d="M 446.476203 348.493486 
L 521.596524 348.493486 
L 521.596524 327.975581 
L 446.476203 327.975581 
z
" style="fill:#ffffff;stroke:#000000;stroke-linejoin:miter;"/>
    </g>
    <!-- $x_1 \geq -1.84$ -->
    <g style="fill:#262626;" transform="translate(450.536203 341.721458)scale(0.14 -0.14)">
     <use transform="scale(0.996264)" xlink:href="#CMMI12-120"/>
     <use transform="translate(55.43406 -14.943915)scale(0.697382)" xlink:href="#CMR17-49"/>
     <use transform="translate(115.589382 0)scale(0.996264)" xlink:href="#CMSY10-21"/>
     <use transform="translate(220.750859 0)scale(0.996264)" xlink:href="#CMSY10-0"/>
     <use transform="translate(298.238326 0)scale(0.996264)" xlink:href="#CMR17-49"/>
     <use transform="translate(343.928803 0)scale(0.996264)" xlink:href="#CMMI12-58"/>
     <use transform="translate(371.02598 0)scale(0.996264)" xlink:href="#CMR17-56"/>
     <use transform="translate(416.716458 0)scale(0.996264)" xlink:href="#CMR17-52"/>
    </g>
   </g>
   <g id="text_12">
    <g id="patch_79">
     <path d="M 608.803476 267.32985 
L 683.923797 267.32985 
L 683.923797 246.811945 
L 608.803476 246.811945 
z
" style="fill:#ffffff;stroke:#000000;stroke-linejoin:miter;"/>
    </g>
    <!-- $x_1 \geq -1.87$ -->
    <g style="fill:#262626;" transform="translate(612.863476 260.557821)scale(0.14 -0.14)">
     <use transform="scale(0.996264)" xlink:href="#CMMI12-120"/>
     <use transform="translate(55.43406 -14.943915)scale(0.697382)" xlink:href="#CMR17-49"/>
     <use transform="translate(115.589382 0)scale(0.996264)" xlink:href="#CMSY10-21"/>
     <use transform="translate(220.750859 0)scale(0.996264)" xlink:href="#CMSY10-0"/>
     <use transform="translate(298.238326 0)scale(0.996264)" xlink:href="#CMR17-49"/>
     <use transform="translate(343.928803 0)scale(0.996264)" xlink:href="#CMMI12-58"/>
     <use transform="translate(371.02598 0)scale(0.996264)" xlink:href="#CMR17-56"/>
     <use transform="translate(416.716458 0)scale(0.996264)" xlink:href="#CMR17-55"/>
    </g>
   </g>
   <g id="text_13">
    <g id="patch_80">
     <path d="M 668.336685 348.493486 
L 732.60877 348.493486 
L 732.60877 327.975581 
L 668.336685 327.975581 
z
" style="fill:#ffffff;stroke:#000000;stroke-linejoin:miter;"/>
    </g>
    <!-- $x_0 \geq 0.86$ -->
    <g style="fill:#262626;" transform="translate(672.396685 341.721458)scale(0.14 -0.14)">
     <use transform="scale(0.996264)" xlink:href="#CMMI12-120"/>
     <use transform="translate(55.43406 -14.943915)scale(0.697382)" xlink:href="#CMR17-48"/>
     <use transform="translate(115.589382 0)scale(0.996264)" xlink:href="#CMSY10-21"/>
     <use transform="translate(220.750859 0)scale(0.996264)" xlink:href="#CMR17-48"/>
     <use transform="translate(266.441336 0)scale(0.996264)" xlink:href="#CMMI12-58"/>
     <use transform="translate(293.538513 0)scale(0.996264)" xlink:href="#CMR17-56"/>
     <use transform="translate(339.22899 0)scale(0.996264)" xlink:href="#CMR17-54"/>
    </g>
   </g>
   <g id="text_14">
    <g id="patch_81">
     <path d="M 879.348931 186.166214 
L 954.469251 186.166214 
L 954.469251 165.648309 
L 879.348931 165.648309 
z
" style="fill:#ffffff;stroke:#000000;stroke-linejoin:miter;"/>
    </g>
    <!-- $x_0 \geq -0.24$ -->
    <g style="fill:#262626;" transform="translate(883.408931 179.394185)scale(0.14 -0.14)">
     <use transform="scale(0.996264)" xlink:href="#CMMI12-120"/>
     <use transform="translate(55.43406 -14.943915)scale(0.697382)" xlink:href="#CMR17-48"/>
     <use transform="translate(115.589382 0)scale(0.996264)" xlink:href="#CMSY10-21"/>
     <use transform="translate(220.750859 0)scale(0.996264)" xlink:href="#CMSY10-0"/>
     <use transform="translate(298.238326 0)scale(0.996264)" xlink:href="#CMR17-48"/>
     <use transform="translate(343.928803 0)scale(0.996264)" xlink:href="#CMMI12-58"/>
     <use transform="translate(371.02598 0)scale(0.996264)" xlink:href="#CMR17-50"/>
     <use transform="translate(416.716458 0)scale(0.996264)" xlink:href="#CMR17-52"/>
    </g>
   </g>
   <g id="text_15">
    <g id="patch_82">
     <path d="M 825.23984 267.32985 
L 900.36016 267.32985 
L 900.36016 246.811945 
L 825.23984 246.811945 
z
" style="fill:#ffffff;stroke:#000000;stroke-linejoin:miter;"/>
    </g>
    <!-- $x_0 \geq -0.25$ -->
    <g style="fill:#262626;" transform="translate(829.29984 260.557821)scale(0.14 -0.14)">
     <use transform="scale(0.996264)" xlink:href="#CMMI12-120"/>
     <use transform="translate(55.43406 -14.943915)scale(0.697382)" xlink:href="#CMR17-48"/>
     <use transform="translate(115.589382 0)scale(0.996264)" xlink:href="#CMSY10-21"/>
     <use transform="translate(220.750859 0)scale(0.996264)" xlink:href="#CMSY10-0"/>
     <use transform="translate(298.238326 0)scale(0.996264)" xlink:href="#CMR17-48"/>
     <use transform="translate(343.928803 0)scale(0.996264)" xlink:href="#CMMI12-58"/>
     <use transform="translate(371.02598 0)scale(0.996264)" xlink:href="#CMR17-50"/>
     <use transform="translate(416.716458 0)scale(0.996264)" xlink:href="#CMR17-53"/>
    </g>
   </g>
   <g id="text_16">
    <g id="patch_83">
     <path d="M 771.130749 348.493486 
L 846.251069 348.493486 
L 846.251069 327.975581 
L 771.130749 327.975581 
z
" style="fill:#ffffff;stroke:#000000;stroke-linejoin:miter;"/>
    </g>
    <!-- $x_0 \geq -0.30$ -->
    <g style="fill:#262626;" transform="translate(775.190749 341.721458)scale(0.14 -0.14)">
     <use transform="scale(0.996264)" xlink:href="#CMMI12-120"/>
     <use transform="translate(55.43406 -14.943915)scale(0.697382)" xlink:href="#CMR17-48"/>
     <use transform="translate(115.589382 0)scale(0.996264)" xlink:href="#CMSY10-21"/>
     <use transform="translate(220.750859 0)scale(0.996264)" xlink:href="#CMSY10-0"/>
     <use transform="translate(298.238326 0)scale(0.996264)" xlink:href="#CMR17-48"/>
     <use transform="translate(343.928803 0)scale(0.996264)" xlink:href="#CMMI12-58"/>
     <use transform="translate(371.02598 0)scale(0.996264)" xlink:href="#CMR17-51"/>
     <use transform="translate(416.716458 0)scale(0.996264)" xlink:href="#CMR17-48"/>
    </g>
   </g>
   <g id="text_17">
    <g id="patch_84">
     <path d="M 992.99123 267.32985 
L 1057.263315 267.32985 
L 1057.263315 246.811945 
L 992.99123 246.811945 
z
" style="fill:#ffffff;stroke:#000000;stroke-linejoin:miter;"/>
    </g>
    <!-- $x_1 \geq 0.21$ -->
    <g style="fill:#262626;" transform="translate(997.05123 260.557821)scale(0.14 -0.14)">
     <use transform="scale(0.996264)" xlink:href="#CMMI12-120"/>
     <use transform="translate(55.43406 -14.943915)scale(0.697382)" xlink:href="#CMR17-49"/>
     <use transform="translate(115.589382 0)scale(0.996264)" xlink:href="#CMSY10-21"/>
     <use transform="translate(220.750859 0)scale(0.996264)" xlink:href="#CMR17-48"/>
     <use transform="translate(266.441336 0)scale(0.996264)" xlink:href="#CMMI12-58"/>
     <use transform="translate(293.538513 0)scale(0.996264)" xlink:href="#CMR17-50"/>
     <use transform="translate(339.22899 0)scale(0.996264)" xlink:href="#CMR17-49"/>
    </g>
   </g>
   <g id="text_18">
    <g id="patch_85">
     <path d="M 938.882139 348.493486 
L 1003.154224 348.493486 
L 1003.154224 327.975581 
L 938.882139 327.975581 
z
" style="fill:#ffffff;stroke:#000000;stroke-linejoin:miter;"/>
    </g>
    <!-- $x_1 \geq 0.18$ -->
    <g style="fill:#262626;" transform="translate(942.942139 341.721458)scale(0.14 -0.14)">
     <use transform="scale(0.996264)" xlink:href="#CMMI12-120"/>
     <use transform="translate(55.43406 -14.943915)scale(0.697382)" xlink:href="#CMR17-49"/>
     <use transform="translate(115.589382 0)scale(0.996264)" xlink:href="#CMSY10-21"/>
     <use transform="translate(220.750859 0)scale(0.996264)" xlink:href="#CMR17-48"/>
     <use transform="translate(266.441336 0)scale(0.996264)" xlink:href="#CMMI12-58"/>
     <use transform="translate(293.538513 0)scale(0.996264)" xlink:href="#CMR17-49"/>
     <use transform="translate(339.22899 0)scale(0.996264)" xlink:href="#CMR17-56"/>
    </g>
   </g>
  </g>
 </g>
 <defs>
  <clipPath id="pa76516c626">
   <rect height="491.463652" width="1116" x="7.2" y="7.2"/>
  </clipPath>
 </defs>
</svg>
