<?xml version="1.0" encoding="utf-8" standalone="no"?>
<!DOCTYPE svg PUBLIC "-//W3C//DTD SVG 1.1//EN"
  "http://www.w3.org/Graphics/SVG/1.1/DTD/svg11.dtd">
<!-- Created with matplotlib (https://matplotlib.org/) -->
<svg height="780.317611pt" version="1.1" viewBox="0 0 1130.4 780.317611" width="1130.4pt" xmlns="http://www.w3.org/2000/svg" xmlns:xlink="http://www.w3.org/1999/xlink">
 <defs>
  <style type="text/css">
*{stroke-linecap:butt;stroke-linejoin:round;}
  </style>
 </defs>
 <g id="figure_1">
  <g id="patch_1">
   <path d="M 0 780.317611 
L 1130.4 780.317611 
L 1130.4 0 
L 0 0 
z
" style="fill:#ffffff;"/>
  </g>
  <g id="axes_1">
   <g id="line2d_1">
    <path clip-path="url(#pe0892ba52c)" d="M 565.2 100.320245 
L 303.381818 296.683881 
" style="fill:none;stroke:#000000;stroke-linecap:round;stroke-opacity:0.2;stroke-width:1.5;"/>
   </g>
   <g id="line2d_2">
    <path clip-path="url(#pe0892ba52c)" d="M 303.381818 296.683881 
L 172.472727 493.047518 
" style="fill:none;stroke:#000000;stroke-linecap:round;stroke-opacity:0.2;stroke-width:1.5;"/>
   </g>
   <g id="line2d_3">
    <path clip-path="url(#pe0892ba52c)" d="M 172.472727 493.047518 
L 107.018182 689.411154 
" style="fill:none;stroke:#000000;stroke-linecap:round;stroke-opacity:0.2;stroke-width:1.5;"/>
   </g>
   <g id="line2d_4">
    <path clip-path="url(#pe0892ba52c)" d="M 172.472727 493.047518 
L 237.927273 689.411154 
" style="fill:none;stroke:#000000;stroke-linecap:round;stroke-opacity:0.2;stroke-width:1.5;"/>
   </g>
   <g id="line2d_5">
    <path clip-path="url(#pe0892ba52c)" d="M 303.381818 296.683881 
L 434.290909 493.047518 
" style="fill:none;stroke:#000000;stroke-linecap:round;stroke-opacity:0.2;stroke-width:1.5;"/>
   </g>
   <g id="line2d_6">
    <path clip-path="url(#pe0892ba52c)" d="M 434.290909 493.047518 
L 368.836364 689.411154 
" style="fill:none;stroke:#000000;stroke-linecap:round;stroke-opacity:0.2;stroke-width:1.5;"/>
   </g>
   <g id="line2d_7">
    <path clip-path="url(#pe0892ba52c)" d="M 434.290909 493.047518 
L 499.745455 689.411154 
" style="fill:none;stroke:#000000;stroke-linecap:round;stroke-opacity:0.2;stroke-width:1.5;"/>
   </g>
   <g id="line2d_8">
    <path clip-path="url(#pe0892ba52c)" d="M 565.2 100.320245 
L 827.018182 296.683881 
" style="fill:none;stroke:#000000;stroke-linecap:round;stroke-opacity:0.2;stroke-width:1.5;"/>
   </g>
   <g id="line2d_9">
    <path clip-path="url(#pe0892ba52c)" d="M 827.018182 296.683881 
L 696.109091 493.047518 
" style="fill:none;stroke:#000000;stroke-linecap:round;stroke-opacity:0.2;stroke-width:1.5;"/>
   </g>
   <g id="line2d_10">
    <path clip-path="url(#pe0892ba52c)" d="M 696.109091 493.047518 
L 630.654545 689.411154 
" style="fill:none;stroke:#000000;stroke-linecap:round;stroke-opacity:0.2;stroke-width:1.5;"/>
   </g>
   <g id="line2d_11">
    <path clip-path="url(#pe0892ba52c)" d="M 696.109091 493.047518 
L 761.563636 689.411154 
" style="fill:none;stroke:#000000;stroke-linecap:round;stroke-opacity:0.2;stroke-width:1.5;"/>
   </g>
   <g id="line2d_12">
    <path clip-path="url(#pe0892ba52c)" d="M 827.018182 296.683881 
L 957.927273 493.047518 
" style="fill:none;stroke:#000000;stroke-linecap:round;stroke-opacity:0.2;stroke-width:1.5;"/>
   </g>
   <g id="line2d_13">
    <path clip-path="url(#pe0892ba52c)" d="M 957.927273 493.047518 
L 892.472727 689.411154 
" style="fill:none;stroke:#000000;stroke-linecap:round;stroke-opacity:0.2;stroke-width:1.5;"/>
   </g>
   <g id="line2d_14">
    <path clip-path="url(#pe0892ba52c)" d="M 957.927273 493.047518 
L 1023.381818 689.411154 
" style="fill:none;stroke:#000000;stroke-linecap:round;stroke-opacity:0.2;stroke-width:1.5;"/>
   </g>
   <g id="patch_2">
    <path clip-path="url(#pe0892ba52c)" d="M 565.2 149.411154 
C 578.219061 149.411154 590.706648 144.238626 599.912515 135.03276 
C 609.118381 125.826893 614.290909 113.339306 614.290909 100.320245 
C 614.290909 87.301184 609.118381 74.813597 599.912515 65.60773 
C 590.706648 56.401864 578.219061 51.229336 565.2 51.229336 
C 552.180939 51.229336 539.693352 56.401864 530.487485 65.60773 
C 521.281619 74.813597 516.109091 87.301184 516.109091 100.320245 
C 516.109091 113.339306 521.281619 125.826893 530.487485 135.03276 
C 539.693352 144.238626 552.180939 149.411154 565.2 149.411154 
z
" style="fill:#0000ff;stroke:#0000ff;stroke-linejoin:miter;"/>
   </g>
   <g id="patch_3">
    <path clip-path="url(#pe0892ba52c)" d="M 614.290909 100.320245 
C 614.290909 87.30552 609.115315 74.810531 599.912515 65.60773 
C 590.709714 56.40493 578.214725 51.229336 565.2 51.229336 
C 552.185275 51.229336 539.690286 56.40493 530.487485 65.60773 
C 521.284685 74.810531 516.109091 87.30552 516.109091 100.320245 
L 565.2 100.320245 
L 614.290909 100.320245 
z
" style="fill:#ffa500;stroke:#ffa500;stroke-linejoin:miter;"/>
   </g>
   <g id="patch_4">
    <path clip-path="url(#pe0892ba52c)" d="M 303.381818 345.77479 
C 316.400879 345.77479 328.888466 340.602262 338.094333 331.396396 
C 347.300199 322.190529 352.472727 309.702943 352.472727 296.683881 
C 352.472727 283.66482 347.300199 271.177233 338.094333 261.971367 
C 328.888466 252.7655 316.400879 247.592972 303.381818 247.592972 
C 290.362757 247.592972 277.87517 252.7655 268.669303 261.971367 
C 259.463437 271.177233 254.290909 283.66482 254.290909 296.683881 
C 254.290909 309.702943 259.463437 322.190529 268.669303 331.396396 
C 277.87517 340.602262 290.362757 345.77479 303.381818 345.77479 
z
" style="fill:#0000ff;stroke:#0000ff;stroke-linejoin:miter;"/>
   </g>
   <g id="patch_5">
    <path clip-path="url(#pe0892ba52c)" d="M 352.472727 296.683881 
C 352.472727 291.77878 351.73756 286.901263 350.291756 282.214082 
C 348.845952 277.5269 346.705773 273.082773 343.942631 269.029987 
L 303.381818 296.683881 
L 352.472727 296.683881 
z
" style="fill:#ffa500;stroke:#ffa500;stroke-linejoin:miter;"/>
   </g>
   <g id="patch_6">
    <path clip-path="url(#pe0892ba52c)" d="M 172.472727 542.138427 
C 185.491789 542.138427 197.979375 536.965899 207.185242 527.760032 
C 216.391108 518.554166 221.563636 506.066579 221.563636 493.047518 
C 221.563636 480.028456 216.391108 467.540869 207.185242 458.335003 
C 197.979375 449.129136 185.491789 443.956609 172.472727 443.956609 
C 159.453666 443.956609 146.966079 449.129136 137.760213 458.335003 
C 128.554346 467.540869 123.381818 480.028456 123.381818 493.047518 
C 123.381818 506.066579 128.554346 518.554166 137.760213 527.760032 
C 146.966079 536.965899 159.453666 542.138427 172.472727 542.138427 
z
" style="fill:#0000ff;stroke:#0000ff;stroke-linejoin:miter;"/>
   </g>
   <g id="patch_7">
    <path clip-path="url(#pe0892ba52c)" d="M 221.563636 493.047518 
C 221.563636 490.443216 221.356397 487.843038 220.94388 485.271615 
C 220.531364 482.700191 219.914878 480.165666 219.100261 477.692048 
L 172.472727 493.047518 
L 221.563636 493.047518 
z
" style="fill:#ffa500;stroke:#ffa500;stroke-linejoin:miter;"/>
   </g>
   <g id="patch_8">
    <path clip-path="url(#pe0892ba52c)" d="M 107.018182 738.502063 
C 120.037243 738.502063 132.52483 733.329535 141.730697 724.123669 
C 150.936563 714.917802 156.109091 702.430215 156.109091 689.411154 
C 156.109091 676.392093 150.936563 663.904506 141.730697 654.698639 
C 132.52483 645.492773 120.037243 640.320245 107.018182 640.320245 
C 93.999121 640.320245 81.511534 645.492773 72.305667 654.698639 
C 63.099801 663.904506 57.927273 676.392093 57.927273 689.411154 
C 57.927273 702.430215 63.099801 714.917802 72.305667 724.123669 
C 81.511534 733.329535 93.999121 738.502063 107.018182 738.502063 
z
" style="fill:#0000ff;stroke:#0000ff;stroke-linejoin:miter;"/>
   </g>
   <g id="patch_9">
    <path clip-path="url(#pe0892ba52c)" d="M 156.109091 689.411154 
C 156.109091 688.595114 156.088743 687.7792 156.048067 686.964174 
C 156.007391 686.149148 155.946399 685.335263 155.865147 684.523278 
L 107.018182 689.411154 
L 156.109091 689.411154 
z
" style="fill:#ffa500;stroke:#ffa500;stroke-linejoin:miter;"/>
   </g>
   <g id="patch_10">
    <path clip-path="url(#pe0892ba52c)" d="M 237.927273 738.502063 
C 250.946334 738.502063 263.433921 733.329535 272.639787 724.123669 
C 281.845654 714.917802 287.018182 702.430215 287.018182 689.411154 
C 287.018182 676.392093 281.845654 663.904506 272.639787 654.698639 
C 263.433921 645.492773 250.946334 640.320245 237.927273 640.320245 
C 224.908211 640.320245 212.420625 645.492773 203.214758 654.698639 
C 194.008892 663.904506 188.836364 676.392093 188.836364 689.411154 
C 188.836364 702.430215 194.008892 714.917802 203.214758 724.123669 
C 212.420625 733.329535 224.908211 738.502063 237.927273 738.502063 
z
" style="fill:#0000ff;stroke:#0000ff;stroke-linejoin:miter;"/>
   </g>
   <g id="patch_11">
    <path clip-path="url(#pe0892ba52c)" d="M 287.018182 689.411154 
C 287.018182 679.703052 284.138405 670.209698 278.744872 662.137706 
C 273.351339 654.065714 265.682667 647.772198 256.71355 644.057068 
L 237.927273 689.411154 
L 287.018182 689.411154 
z
" style="fill:#ffa500;stroke:#ffa500;stroke-linejoin:miter;"/>
   </g>
   <g id="patch_12">
    <path clip-path="url(#pe0892ba52c)" d="M 434.290909 542.138427 
C 447.30997 542.138427 459.797557 536.965899 469.003424 527.760032 
C 478.20929 518.554166 483.381818 506.066579 483.381818 493.047518 
C 483.381818 480.028456 478.20929 467.540869 469.003424 458.335003 
C 459.797557 449.129136 447.30997 443.956609 434.290909 443.956609 
C 421.271848 443.956609 408.784261 449.129136 399.578394 458.335003 
C 390.372528 467.540869 385.2 480.028456 385.2 493.047518 
C 385.2 506.066579 390.372528 518.554166 399.578394 527.760032 
C 408.784261 536.965899 421.271848 542.138427 434.290909 542.138427 
z
" style="fill:#0000ff;stroke:#0000ff;stroke-linejoin:miter;"/>
   </g>
   <g id="patch_13">
    <path clip-path="url(#pe0892ba52c)" d="M 483.381818 493.047518 
C 483.381818 487.896182 482.570988 482.776803 480.979138 477.877592 
C 479.387288 472.978382 477.034168 468.360123 474.006289 464.192605 
C 470.97841 460.025088 467.313339 456.360017 463.145821 453.332138 
C 458.978304 450.304259 454.360045 447.951139 449.460834 446.359289 
C 444.561623 444.767439 439.442244 443.956609 434.290909 443.956609 
C 429.139574 443.956609 424.020195 444.767439 419.120984 446.359289 
C 414.221773 447.951139 409.603514 450.304259 405.435997 453.332138 
C 401.268479 456.360017 397.603408 460.025088 394.575529 464.192605 
C 391.547651 468.360123 389.19453 472.978382 387.60268 477.877592 
C 386.01083 482.776803 385.2 487.896182 385.2 493.047518 
C 385.2 498.198853 386.01083 503.318232 387.60268 508.217443 
C 389.19453 513.116654 391.547651 517.734912 394.575529 521.90243 
C 397.603408 526.069948 401.268479 529.735018 405.435997 532.762897 
C 409.603514 535.790776 414.221773 538.143896 419.120984 539.735747 
C 424.020195 541.327597 429.139574 542.138427 434.290909 542.138427 
C 439.442244 542.138427 444.561623 541.327597 449.460834 539.735747 
L 434.290909 493.047518 
L 483.381818 493.047518 
z
" style="fill:#ffa500;stroke:#ffa500;stroke-linejoin:miter;"/>
   </g>
   <g id="patch_14">
    <path clip-path="url(#pe0892ba52c)" d="M 368.836364 738.502063 
C 381.855425 738.502063 394.343012 733.329535 403.548878 724.123669 
C 412.754745 714.917802 417.927273 702.430215 417.927273 689.411154 
C 417.927273 676.392093 412.754745 663.904506 403.548878 654.698639 
C 394.343012 645.492773 381.855425 640.320245 368.836364 640.320245 
C 355.817302 640.320245 343.329715 645.492773 334.123849 654.698639 
C 324.917982 663.904506 319.745455 676.392093 319.745455 689.411154 
C 319.745455 702.430215 324.917982 714.917802 334.123849 724.123669 
C 343.329715 733.329535 355.817302 738.502063 368.836364 738.502063 
z
" style="fill:#0000ff;stroke:#0000ff;stroke-linejoin:miter;"/>
   </g>
   <g id="patch_15">
    <path clip-path="url(#pe0892ba52c)" d="M 417.927273 689.411154 
C 417.927273 682.964595 416.657441 676.58072 414.19045 670.624876 
C 411.723458 664.669032 408.107284 659.257045 403.548878 654.698639 
C 398.990473 650.140234 393.578485 646.524059 387.622641 644.057068 
C 381.666797 641.590076 375.282923 640.320245 368.836364 640.320245 
C 362.389805 640.320245 356.00593 641.590076 350.050086 644.057068 
C 344.094242 646.524059 338.682255 650.140234 334.123849 654.698639 
C 329.565443 659.257045 325.949269 664.669032 323.482277 670.624876 
C 321.015286 676.58072 319.745455 682.964595 319.745455 689.411154 
C 319.745455 695.857713 321.015286 702.241588 323.482277 708.197432 
C 325.949269 714.153276 329.565443 719.565263 334.123849 724.123669 
C 338.682255 728.682074 344.094242 732.298249 350.050086 734.76524 
C 356.00593 737.232231 362.389805 738.502063 368.836364 738.502063 
C 375.282923 738.502063 381.666797 737.232231 387.622641 734.76524 
C 393.578485 732.298249 398.990473 728.682074 403.548878 724.123669 
C 408.107284 719.565263 411.723458 714.153276 414.19045 708.197432 
C 416.657441 702.241588 417.927273 695.857713 417.927273 689.411154 
M 368.836364 689.411154 
M 417.927273 689.411154 
z
" style="fill:#ffa500;stroke:#ffa500;stroke-linejoin:miter;"/>
   </g>
   <g id="patch_16">
    <path clip-path="url(#pe0892ba52c)" d="M 499.745455 738.502063 
C 512.764516 738.502063 525.252103 733.329535 534.457969 724.123669 
C 543.663836 714.917802 548.836364 702.430215 548.836364 689.411154 
C 548.836364 676.392093 543.663836 663.904506 534.457969 654.698639 
C 525.252103 645.492773 512.764516 640.320245 499.745455 640.320245 
C 486.726393 640.320245 474.238806 645.492773 465.03294 654.698639 
C 455.827073 663.904506 450.654545 676.392093 450.654545 689.411154 
C 450.654545 702.430215 455.827073 714.917802 465.03294 724.123669 
C 474.238806 733.329535 486.726393 738.502063 499.745455 738.502063 
z
" style="fill:#0000ff;stroke:#0000ff;stroke-linejoin:miter;"/>
   </g>
   <g id="patch_17">
    <path clip-path="url(#pe0892ba52c)" d="M 827.018182 345.77479 
C 840.037243 345.77479 852.52483 340.602262 861.730697 331.396396 
C 870.936563 322.190529 876.109091 309.702943 876.109091 296.683881 
C 876.109091 283.66482 870.936563 271.177233 861.730697 261.971367 
C 852.52483 252.7655 840.037243 247.592972 827.018182 247.592972 
C 813.999121 247.592972 801.511534 252.7655 792.305667 261.971367 
C 783.099801 271.177233 777.927273 283.66482 777.927273 296.683881 
C 777.927273 309.702943 783.099801 322.190529 792.305667 331.396396 
C 801.511534 340.602262 813.999121 345.77479 827.018182 345.77479 
z
" style="fill:#0000ff;stroke:#0000ff;stroke-linejoin:miter;"/>
   </g>
   <g id="patch_18">
    <path clip-path="url(#pe0892ba52c)" d="M 876.109091 296.683881 
C 876.109091 291.577133 875.312236 286.501518 873.747324 281.640456 
C 872.182411 276.779394 869.868521 272.192155 866.889272 268.044511 
C 863.910023 263.896867 860.30174 260.239389 856.194818 257.20425 
C 852.087896 254.169111 847.53241 251.793318 842.692984 250.162726 
C 837.853558 248.532133 832.789198 247.666623 827.682919 247.597473 
C 822.576639 247.528323 817.490699 248.256376 812.608892 249.755322 
C 807.727085 251.254267 803.108935 253.50583 798.921329 256.428643 
C 794.733724 259.351456 791.027722 262.909882 787.93725 266.975329 
C 784.846777 271.040776 782.409516 275.563674 780.713543 280.380576 
C 779.017569 285.197479 778.083563 290.249654 777.945275 295.35453 
C 777.806987 300.459405 778.466105 305.554737 779.898809 310.456394 
C 781.331514 315.35805 783.520336 320.006265 786.386176 324.233064 
C 789.252017 328.459864 792.759935 332.21371 796.783161 335.358949 
C 800.806387 338.504188 805.295867 341.00247 810.089363 342.763513 
C 814.882859 344.524556 819.921924 345.526889 825.024459 345.734288 
C 830.126994 345.941688 835.230784 345.351626 840.151391 343.985426 
L 827.018182 296.683881 
L 876.109091 296.683881 
z
" style="fill:#ffa500;stroke:#ffa500;stroke-linejoin:miter;"/>
   </g>
   <g id="patch_19">
    <path clip-path="url(#pe0892ba52c)" d="M 696.109091 542.138427 
C 709.128152 542.138427 721.615739 536.965899 730.821606 527.760032 
C 740.027472 518.554166 745.2 506.066579 745.2 493.047518 
C 745.2 480.028456 740.027472 467.540869 730.821606 458.335003 
C 721.615739 449.129136 709.128152 443.956609 696.109091 443.956609 
C 683.09003 443.956609 670.602443 449.129136 661.396576 458.335003 
C 652.19071 467.540869 647.018182 480.028456 647.018182 493.047518 
C 647.018182 506.066579 652.19071 518.554166 661.396576 527.760032 
C 670.602443 536.965899 683.09003 542.138427 696.109091 542.138427 
z
" style="fill:#0000ff;stroke:#0000ff;stroke-linejoin:miter;"/>
   </g>
   <g id="patch_20">
    <path clip-path="url(#pe0892ba52c)" d="M 745.2 493.047518 
C 745.2 484.095565 742.751355 475.311848 738.120172 467.650934 
C 733.488988 459.99002 726.849335 453.739856 718.922774 449.579676 
C 710.996213 445.419496 702.080676 443.505667 693.145056 444.046172 
C 684.209435 444.586678 675.589589 447.561203 668.222276 452.646491 
L 696.109091 493.047518 
L 745.2 493.047518 
z
" style="fill:#ffa500;stroke:#ffa500;stroke-linejoin:miter;"/>
   </g>
   <g id="patch_21">
    <path clip-path="url(#pe0892ba52c)" d="M 630.654545 738.502063 
C 643.673607 738.502063 656.161194 733.329535 665.36706 724.123669 
C 674.572927 714.917802 679.745455 702.430215 679.745455 689.411154 
C 679.745455 676.392093 674.572927 663.904506 665.36706 654.698639 
C 656.161194 645.492773 643.673607 640.320245 630.654545 640.320245 
C 617.635484 640.320245 605.147897 645.492773 595.942031 654.698639 
C 586.736164 663.904506 581.563636 676.392093 581.563636 689.411154 
C 581.563636 702.430215 586.736164 714.917802 595.942031 724.123669 
C 605.147897 733.329535 617.635484 738.502063 630.654545 738.502063 
z
" style="fill:#0000ff;stroke:#0000ff;stroke-linejoin:miter;"/>
   </g>
   <g id="patch_22">
    <path clip-path="url(#pe0892ba52c)" d="M 679.745455 689.411154 
C 679.745455 680.794541 677.476826 672.327905 673.16852 664.865699 
C 668.860213 657.403494 662.662206 651.205486 655.2 646.89718 
L 630.654545 689.411154 
L 679.745455 689.411154 
z
" style="fill:#ffa500;stroke:#ffa500;stroke-linejoin:miter;"/>
   </g>
   <g id="patch_23">
    <path clip-path="url(#pe0892ba52c)" d="M 761.563636 738.502063 
C 774.582698 738.502063 787.070285 733.329535 796.276151 724.123669 
C 805.482018 714.917802 810.654545 702.430215 810.654545 689.411154 
C 810.654545 676.392093 805.482018 663.904506 796.276151 654.698639 
C 787.070285 645.492773 774.582698 640.320245 761.563636 640.320245 
C 748.544575 640.320245 736.056988 645.492773 726.851122 654.698639 
C 717.645255 663.904506 712.472727 676.392093 712.472727 689.411154 
C 712.472727 702.430215 717.645255 714.917802 726.851122 724.123669 
C 736.056988 733.329535 748.544575 738.502063 761.563636 738.502063 
z
" style="fill:#0000ff;stroke:#0000ff;stroke-linejoin:miter;"/>
   </g>
   <g id="patch_24">
    <path clip-path="url(#pe0892ba52c)" d="M 810.654545 689.411154 
C 810.654545 679.703052 807.774768 670.209698 802.381236 662.137706 
C 796.987703 654.065714 789.319031 647.772198 780.349914 644.057068 
C 771.380797 640.341938 761.508039 639.369556 751.986475 641.263513 
C 742.464911 643.15747 733.715787 647.833974 726.851122 654.698639 
C 719.986457 661.563304 715.309952 670.312429 713.415995 679.833993 
C 711.522038 689.355557 712.49442 699.228314 716.20955 708.197432 
C 719.92468 717.166549 726.218196 724.83522 734.290189 730.228753 
C 742.362181 735.622286 751.855534 738.502063 761.563636 738.502063 
L 761.563636 689.411154 
L 810.654545 689.411154 
z
" style="fill:#ffa500;stroke:#ffa500;stroke-linejoin:miter;"/>
   </g>
   <g id="patch_25">
    <path clip-path="url(#pe0892ba52c)" d="M 957.927273 542.138427 
C 970.946334 542.138427 983.433921 536.965899 992.639787 527.760032 
C 1001.845654 518.554166 1007.018182 506.066579 1007.018182 493.047518 
C 1007.018182 480.028456 1001.845654 467.540869 992.639787 458.335003 
C 983.433921 449.129136 970.946334 443.956609 957.927273 443.956609 
C 944.908211 443.956609 932.420625 449.129136 923.214758 458.335003 
C 914.008892 467.540869 908.836364 480.028456 908.836364 493.047518 
C 908.836364 506.066579 914.008892 518.554166 923.214758 527.760032 
C 932.420625 536.965899 944.908211 542.138427 957.927273 542.138427 
z
" style="fill:#0000ff;stroke:#0000ff;stroke-linejoin:miter;"/>
   </g>
   <g id="patch_26">
    <path clip-path="url(#pe0892ba52c)" d="M 1007.018182 493.047518 
C 1007.018182 487.105186 1005.939225 481.211932 1003.83391 475.655048 
C 1001.728595 470.098165 998.631698 464.96944 994.69419 460.518897 
C 990.756682 456.068354 986.043603 452.369506 980.784713 449.60267 
C 975.525823 446.835834 969.807988 445.046713 963.90995 444.322525 
C 958.011911 443.598337 952.031093 443.951044 946.259056 445.363452 
C 940.487019 446.775861 935.019107 449.22464 930.121876 452.590414 
C 925.224644 455.956188 920.978987 460.18336 917.591878 465.065858 
C 914.204768 469.948357 911.732154 475.405533 910.294573 481.171352 
C 908.856993 486.937171 908.478193 492.916393 909.176639 498.817535 
C 909.875086 504.718678 911.639241 510.444264 914.383105 515.715177 
C 917.126968 520.98609 920.805216 525.715263 925.238536 529.672152 
C 929.671857 533.629042 934.78702 536.748288 940.334664 538.877829 
C 945.882309 541.007371 951.770799 542.112031 957.713074 542.137959 
C 963.655349 542.163888 969.553254 541.110655 975.119271 539.029607 
C 980.685288 536.948558 985.827477 533.874069 990.295158 529.956017 
C 994.76284 526.037966 998.482217 521.341071 1001.271973 516.094303 
L 957.927273 493.047518 
L 1007.018182 493.047518 
z
" style="fill:#ffa500;stroke:#ffa500;stroke-linejoin:miter;"/>
   </g>
   <g id="patch_27">
    <path clip-path="url(#pe0892ba52c)" d="M 892.472727 738.502063 
C 905.491789 738.502063 917.979375 733.329535 927.185242 724.123669 
C 936.391108 714.917802 941.563636 702.430215 941.563636 689.411154 
C 941.563636 676.392093 936.391108 663.904506 927.185242 654.698639 
C 917.979375 645.492773 905.491789 640.320245 892.472727 640.320245 
C 879.453666 640.320245 866.966079 645.492773 857.760213 654.698639 
C 848.554346 663.904506 843.381818 676.392093 843.381818 689.411154 
C 843.381818 702.430215 848.554346 714.917802 857.760213 724.123669 
C 866.966079 733.329535 879.453666 738.502063 892.472727 738.502063 
z
" style="fill:#0000ff;stroke:#0000ff;stroke-linejoin:miter;"/>
   </g>
   <g id="patch_28">
    <path clip-path="url(#pe0892ba52c)" d="M 941.563636 689.411154 
C 941.563636 684.070543 940.692127 678.765545 938.983519 673.705625 
C 937.274911 668.645706 934.751992 663.898348 931.514377 659.650997 
C 928.276763 655.403647 924.367633 651.712952 919.941338 648.724635 
C 915.515042 645.736319 910.630613 643.490237 905.48091 642.075073 
C 900.331207 640.65991 894.984911 640.09454 889.653116 640.401286 
C 884.321321 640.708032 879.075137 641.882804 874.121707 643.879215 
C 869.168277 645.875627 864.573664 648.667053 860.519283 652.143276 
C 856.464902 655.619498 853.004826 659.734155 850.275674 664.324782 
C 847.546522 668.91541 845.584692 673.920782 844.467646 679.143266 
C 843.3506 684.36575 843.093236 689.735693 843.705716 695.041068 
C 844.318195 700.346442 845.79235 705.51649 848.069974 710.347076 
C 850.347597 715.177662 853.398314 719.60436 857.101667 723.452386 
C 860.805021 727.300412 865.11162 730.518444 869.851422 732.979421 
C 874.591224 735.440398 879.701013 737.111498 884.979035 737.926738 
C 890.257057 738.741979 895.632917 738.690487 900.894355 737.774296 
C 906.155792 736.858106 911.232635 735.089435 915.924427 732.538119 
L 892.472727 689.411154 
L 941.563636 689.411154 
z
" style="fill:#ffa500;stroke:#ffa500;stroke-linejoin:miter;"/>
   </g>
   <g id="patch_29">
    <path clip-path="url(#pe0892ba52c)" d="M 1023.381818 738.502063 
C 1036.400879 738.502063 1048.888466 733.329535 1058.094333 724.123669 
C 1067.300199 714.917802 1072.472727 702.430215 1072.472727 689.411154 
C 1072.472727 676.392093 1067.300199 663.904506 1058.094333 654.698639 
C 1048.888466 645.492773 1036.400879 640.320245 1023.381818 640.320245 
C 1010.362757 640.320245 997.87517 645.492773 988.669303 654.698639 
C 979.463437 663.904506 974.290909 676.392093 974.290909 689.411154 
C 974.290909 702.430215 979.463437 714.917802 988.669303 724.123669 
C 997.87517 733.329535 1010.362757 738.502063 1023.381818 738.502063 
z
" style="fill:#0000ff;stroke:#0000ff;stroke-linejoin:miter;"/>
   </g>
   <g id="patch_30">
    <path clip-path="url(#pe0892ba52c)" d="M 1072.472727 689.411154 
C 1072.472727 682.964595 1071.202896 676.58072 1068.735904 670.624876 
C 1066.268913 664.669032 1062.652739 659.257045 1058.094333 654.698639 
C 1053.535927 650.140234 1048.12394 646.524059 1042.168096 644.057068 
C 1036.212252 641.590076 1029.828377 640.320245 1023.381818 640.320245 
C 1016.935259 640.320245 1010.551385 641.590076 1004.595541 644.057068 
C 998.639697 646.524059 993.227709 650.140234 988.669303 654.698639 
C 984.110898 659.257045 980.494723 664.669032 978.027732 670.624876 
C 975.560741 676.58072 974.290909 682.964595 974.290909 689.411154 
C 974.290909 695.857713 975.560741 702.241588 978.027732 708.197432 
C 980.494723 714.153276 984.110898 719.565263 988.669303 724.123669 
C 993.227709 728.682074 998.639697 732.298249 1004.595541 734.76524 
C 1010.551385 737.232231 1016.935259 738.502063 1023.381818 738.502063 
C 1029.828377 738.502063 1036.212252 737.232231 1042.168096 734.76524 
C 1048.12394 732.298249 1053.535927 728.682074 1058.094333 724.123669 
C 1062.652739 719.565263 1066.268913 714.153276 1068.735904 708.197432 
C 1071.202896 702.241588 1072.472727 695.857713 1072.472727 689.411154 
M 1023.381818 689.411154 
M 1072.472727 689.411154 
z
" style="fill:#ffa500;stroke:#ffa500;stroke-linejoin:miter;"/>
   </g>
   <g id="text_1">
    <g id="patch_31">
     <path d="M 510.12121 30.643881 
L 620.27879 30.643881 
L 620.27879 3.24 
L 510.12121 3.24 
z
" style="fill:#ffffff;stroke:#000000;stroke-linejoin:miter;"/>
    </g>
    <!-- $x_1 &gt; -0.50$ -->
    <defs>
     <path d="M 47.40625 41 
C 44.203125 40.390625 43 37.984375 43 36.09375 
C 43 33.6875 44.90625 32.890625 46.296875 32.890625 
C 49.296875 32.890625 51.40625 35.484375 51.40625 38.1875 
C 51.40625 42.09375 46.59375 44 42.40625 44 
C 36.296875 44 32.90625 38.296875 32 36.390625 
C 29.703125 43.59375 23.5 44 21.703125 44 
C 11.5 44 6.09375 31.140625 6.09375 28.890625 
C 6.09375 28.484375 6.5 27.96875 7.203125 27.96875 
C 8 27.96875 8.203125 28.578125 8.40625 28.984375 
C 11.796875 40.1875 18.5 41.984375 21.40625 41.984375 
C 25.90625 41.984375 26.796875 38.09375 26.796875 35.6875 
C 26.796875 33.484375 26.203125 31.140625 25 26.21875 
L 21.59375 12.15625 
C 20.09375 6.09375 17.203125 1 11.90625 1 
C 11.40625 1 8.90625 1 6.796875 1.96875 
C 10.40625 2.59375 11.203125 5.59375 11.203125 6.796875 
C 11.203125 8.796875 9.703125 10 7.796875 10 
C 5.40625 10 2.796875 7.890625 2.796875 4.6875 
C 2.796875 0.890625 7.5 -1 11.796875 -1 
C 16.59375 -1 20 2.390625 22.09375 6.484375 
C 23.703125 1 28.703125 -1 32.40625 -1 
C 42.59375 -1 48 11.734375 48 14 
C 48 14.515625 47.59375 14.921875 47 14.921875 
C 46.09375 14.921875 46 14.40625 45.703125 13.59375 
C 43 4.6875 37.203125 1 32.703125 1 
C 29.203125 1 27.296875 3.1875 27.296875 7.296875 
C 27.296875 9.484375 27.703125 11.125 29.296875 17.90625 
L 32.796875 31.859375 
C 34.296875 37.890625 37.703125 41.984375 42.296875 41.984375 
C 42.5 41.984375 45.296875 41.984375 47.40625 41 
z
" id="CMMI12-120"/>
     <path d="M 26.59375 63.796875 
C 26.59375 65.890625 26.5 66 25.09375 66 
C 21.203125 61.359375 15.296875 59.890625 9.703125 59.6875 
C 9.40625 59.6875 8.90625 59.6875 8.796875 59.5 
C 8.703125 59.296875 8.703125 59.09375 8.703125 57 
C 11.796875 57 17 57.59375 21 59.984375 
L 21 7.296875 
C 21 3.796875 20.796875 2.59375 12.203125 2.59375 
L 9.203125 2.59375 
L 9.203125 0 
C 14 0.09375 19 0.1875 23.796875 0.1875 
C 28.59375 0.1875 33.59375 0.09375 38.40625 0 
L 38.40625 2.59375 
L 35.40625 2.59375 
C 26.796875 2.59375 26.59375 3.6875 26.59375 7.296875 
z
" id="CMR17-49"/>
     <path d="M 65.90625 22.8125 
C 67.796875 23.734375 67.90625 24.328125 67.90625 25.046875 
C 67.90625 25.640625 67.703125 26.359375 65.90625 27.15625 
L 11.796875 52.296875 
C 10.5 52.890625 10.296875 53 10.09375 53 
C 8.90625 53 8.203125 51.984375 8.203125 51.1875 
C 8.203125 49.984375 9 49.578125 10.296875 48.96875 
L 61.703125 25.046875 
L 10.203125 1.015625 
C 8.203125 0.109375 8.203125 -0.609375 8.203125 -1.203125 
C 8.203125 -2 8.90625 -3 10.09375 -3 
C 10.296875 -3 10.40625 -2.90625 11.796875 -2.3125 
z
" id="CMMI12-62"/>
     <path d="M 65.90625 23 
C 67.59375 23 69.40625 23 69.40625 25 
C 69.40625 27 67.59375 27 65.90625 27 
L 11.796875 27 
C 10.09375 27 8.296875 27 8.296875 25 
C 8.296875 23 10.09375 23 11.796875 23 
z
" id="CMSY10-0"/>
     <path d="M 42 31.84375 
C 42 37.96875 41.90625 48.421875 37.703125 56.453125 
C 34 63.484375 28.09375 66 22.90625 66 
C 18.09375 66 12 63.78125 8.203125 56.5625 
C 4.203125 49.015625 3.796875 39.671875 3.796875 31.84375 
C 3.796875 26.109375 3.90625 17.375 7 9.734375 
C 11.296875 -0.609375 19 -2 22.90625 -2 
C 27.5 -2 34.5 -0.109375 38.59375 9.4375 
C 41.59375 16.375 42 24.5 42 31.84375 
z
M 22.90625 -0.40625 
C 16.5 -0.40625 12.703125 5.125 11.296875 12.75 
C 10.203125 18.6875 10.203125 27.328125 10.203125 32.953125 
C 10.203125 40.6875 10.203125 47.109375 11.5 53.234375 
C 13.40625 61.78125 19 64.390625 22.90625 64.390625 
C 27 64.390625 32.296875 61.671875 34.203125 53.4375 
C 35.5 47.71875 35.59375 40.984375 35.59375 32.953125 
C 35.59375 26.421875 35.59375 18.375 34.40625 12.453125 
C 32.296875 1.5 26.40625 -0.40625 22.90625 -0.40625 
z
" id="CMR17-48"/>
     <path d="M 18.40625 4.796875 
C 18.40625 7.6875 16 9.6875 13.59375 9.6875 
C 10.703125 9.6875 8.703125 7.296875 8.703125 4.890625 
C 8.703125 2 11.09375 0 13.5 0 
C 16.40625 0 18.40625 2.390625 18.40625 4.796875 
z
" id="CMMI12-58"/>
     <path d="M 11.40625 58.59375 
C 12.40625 58.1875 16.5 56.890625 20.703125 56.890625 
C 30 56.890625 35.09375 61.890625 38 64.6875 
C 38 65.484375 38 66 37.40625 66 
C 37.296875 66 37.09375 66 36.296875 65.59375 
C 32.796875 64.09375 28.703125 63 23.703125 63 
C 20.703125 63 16.203125 63.359375 11.296875 65.484375 
C 10.203125 66 10 66 9.90625 66 
C 9.40625 66 9.296875 65.890625 9.296875 63.90625 
L 9.296875 34.859375 
C 9.296875 33.015625 9.296875 32.5 10.296875 32.5 
C 10.796875 32.5 11 32.703125 11.5 33.421875 
C 14.703125 38.046875 19.09375 40 24.09375 40 
C 27.59375 40 35.09375 37.734375 35.09375 20.203125 
C 35.09375 16.984375 35.09375 11.1875 32.09375 6.59375 
C 29.59375 2.484375 25.703125 0.390625 21.40625 0.390625 
C 14.796875 0.390625 8.09375 4.984375 6.296875 12.6875 
C 6.703125 12.59375 7.5 12.390625 7.90625 12.390625 
C 9.203125 12.390625 11.703125 13.09375 11.703125 16.1875 
C 11.703125 18.890625 9.796875 20 7.90625 20 
C 5.59375 20 4.09375 18.59375 4.09375 15.796875 
C 4.09375 7.09375 11 -2 21.59375 -2 
C 31.90625 -2 41.703125 6.890625 41.703125 19.796875 
C 41.703125 32.09375 33.90625 41.59375 24.203125 41.59375 
C 19.09375 41.59375 14.796875 39.6875 11.40625 36 
z
" id="CMR17-53"/>
    </defs>
    <g style="fill:#262626;" transform="translate(514.08121 22.420693)scale(0.22 -0.22)">
     <use transform="scale(0.996264)" xlink:href="#CMMI12-120"/>
     <use transform="translate(55.43406 -14.943915)scale(0.697382)" xlink:href="#CMR17-49"/>
     <use transform="translate(115.589382 0)scale(0.996264)" xlink:href="#CMMI12-62"/>
     <use transform="translate(219.135487 0)scale(0.996264)" xlink:href="#CMSY10-0"/>
     <use transform="translate(296.622954 0)scale(0.996264)" xlink:href="#CMR17-48"/>
     <use transform="translate(342.313432 0)scale(0.996264)" xlink:href="#CMMI12-58"/>
     <use transform="translate(369.410609 0)scale(0.996264)" xlink:href="#CMR17-53"/>
     <use transform="translate(415.101086 0)scale(0.996264)" xlink:href="#CMR17-48"/>
    </g>
   </g>
   <g id="text_2">
    <g id="patch_32">
     <path d="M 256.826644 227.007518 
L 349.936992 227.007518 
L 349.936992 199.603636 
L 256.826644 199.603636 
z
" style="fill:#ffffff;stroke:#000000;stroke-linejoin:miter;"/>
    </g>
    <!-- $x_0 &gt; 1.25$ -->
    <defs>
     <path d="M 41.703125 15.46875 
L 39.90625 15.46875 
C 38.90625 8.390625 38.09375 7.1875 37.703125 6.59375 
C 37.203125 5.796875 30 5.796875 28.59375 5.796875 
L 9.40625 5.796875 
C 13 9.6875 20 16.765625 28.5 24.9375 
C 34.59375 30.71875 41.703125 37.5 41.703125 47.390625 
C 41.703125 59.1875 32.296875 66 21.796875 66 
C 10.796875 66 4.09375 56.296875 4.09375 47.296875 
C 4.09375 43.390625 7 42.890625 8.203125 42.890625 
C 9.203125 42.890625 12.203125 43.484375 12.203125 46.984375 
C 12.203125 50.09375 9.59375 51 8.203125 51 
C 7.59375 51 7 50.890625 6.59375 50.6875 
C 8.5 59.1875 14.296875 63.390625 20.40625 63.390625 
C 29.09375 63.390625 34.796875 56.5 34.796875 47.390625 
C 34.796875 38.703125 29.703125 31.21875 24 24.734375 
L 4.09375 2.296875 
L 4.09375 0 
L 39.296875 0 
z
" id="CMR17-50"/>
    </defs>
    <g style="fill:#262626;" transform="translate(260.786644 218.78433)scale(0.22 -0.22)">
     <use transform="scale(0.996264)" xlink:href="#CMMI12-120"/>
     <use transform="translate(55.43406 -14.943915)scale(0.697382)" xlink:href="#CMR17-48"/>
     <use transform="translate(115.589382 0)scale(0.996264)" xlink:href="#CMMI12-62"/>
     <use transform="translate(219.135487 0)scale(0.996264)" xlink:href="#CMR17-49"/>
     <use transform="translate(264.825964 0)scale(0.996264)" xlink:href="#CMMI12-58"/>
     <use transform="translate(291.923141 0)scale(0.996264)" xlink:href="#CMR17-50"/>
     <use transform="translate(337.613618 0)scale(0.996264)" xlink:href="#CMR17-53"/>
    </g>
   </g>
   <g id="text_3">
    <g id="patch_33">
     <path d="M 117.393937 423.371154 
L 227.551518 423.371154 
L 227.551518 395.967273 
L 117.393937 395.967273 
z
" style="fill:#ffffff;stroke:#000000;stroke-linejoin:miter;"/>
    </g>
    <!-- $x_1 &gt; -0.83$ -->
    <defs>
     <path d="M 27.203125 35.765625 
C 33.5 38.96875 39.90625 43.796875 39.90625 51.53125 
C 39.90625 60.6875 31.09375 66 23 66 
C 13.90625 66 5.90625 59.375 5.90625 50.234375 
C 5.90625 47.71875 6.5 43.390625 10.40625 39.578125 
C 11.40625 38.578125 15.59375 35.5625 18.296875 33.65625 
C 13.796875 31.34375 3.296875 25.8125 3.296875 14.765625 
C 3.296875 4.40625 13.09375 -2 22.796875 -2 
C 33.5 -2 42.5 5.71875 42.5 15.96875 
C 42.5 25.109375 36.40625 29.328125 32.40625 32.046875 
z
M 14.09375 44.609375 
C 13.296875 45.109375 9.296875 48.21875 9.296875 52.9375 
C 9.296875 59.078125 15.59375 63.6875 22.796875 63.6875 
C 30.703125 63.6875 36.5 58.0625 36.5 51.53125 
C 36.5 42.1875 26.09375 36.859375 25.59375 36.859375 
C 25.5 36.859375 25.40625 36.859375 24.59375 37.46875 
z
M 32.5 24 
C 34 22.90625 38.796875 19.578125 38.796875 13.453125 
C 38.796875 6.015625 31.40625 0.390625 23 0.390625 
C 13.90625 0.390625 7 6.921875 7 14.859375 
C 7 22.796875 13.09375 29.4375 20 32.546875 
z
" id="CMR17-56"/>
     <path d="M 22.09375 34 
C 31 34 34.90625 26.140625 34.90625 17.09375 
C 34.90625 5.03125 28.5 0.390625 22.703125 0.390625 
C 17.40625 0.390625 8.796875 3.015625 6.09375 10.796875 
C 6.59375 10.59375 7.09375 10.59375 7.59375 10.59375 
C 10 10.59375 11.796875 12.1875 11.796875 14.796875 
C 11.796875 17.6875 9.59375 19 7.59375 19 
C 5.90625 19 3.296875 18.1875 3.296875 14.484375 
C 3.296875 5.234375 12.296875 -2 22.90625 -2 
C 34 -2 42.5 6.75 42.5 16.984375 
C 42.5 26.84375 34.5 34 25 35.09375 
C 32.59375 36.671875 39.90625 43.375 39.90625 52.390625 
C 39.90625 60.25 32 66 23 66 
C 13.90625 66 5.90625 60.34375 5.90625 52.296875 
C 5.90625 48.796875 8.5 48.1875 9.796875 48.1875 
C 11.90625 48.1875 13.703125 49.484375 13.703125 52.09375 
C 13.703125 54.6875 11.90625 56 9.796875 56 
C 9.40625 56 8.90625 56 8.5 55.796875 
C 11.40625 62.484375 19.296875 63.6875 22.796875 63.6875 
C 26.296875 63.6875 32.90625 61.96875 32.90625 52.296875 
C 32.90625 49.484375 32.5 44.546875 29.09375 40.21875 
C 26.09375 36.390625 22.703125 36.1875 19.40625 35.890625 
C 18.90625 35.890625 16.59375 35.6875 16.203125 35.6875 
C 15.5 35.59375 15.09375 35.5 15.09375 34.796875 
C 15.09375 34.09375 15.203125 34 17.203125 34 
z
" id="CMR17-51"/>
    </defs>
    <g style="fill:#262626;" transform="translate(121.353937 415.147966)scale(0.22 -0.22)">
     <use transform="scale(0.996264)" xlink:href="#CMMI12-120"/>
     <use transform="translate(55.43406 -14.943915)scale(0.697382)" xlink:href="#CMR17-49"/>
     <use transform="translate(115.589382 0)scale(0.996264)" xlink:href="#CMMI12-62"/>
     <use transform="translate(219.135487 0)scale(0.996264)" xlink:href="#CMSY10-0"/>
     <use transform="translate(296.622954 0)scale(0.996264)" xlink:href="#CMR17-48"/>
     <use transform="translate(342.313432 0)scale(0.996264)" xlink:href="#CMMI12-58"/>
     <use transform="translate(369.410609 0)scale(0.996264)" xlink:href="#CMR17-56"/>
     <use transform="translate(415.101086 0)scale(0.996264)" xlink:href="#CMR17-51"/>
    </g>
   </g>
   <g id="text_4">
    <g id="patch_34">
     <path d="M 379.212119 423.371154 
L 489.369699 423.371154 
L 489.369699 395.967273 
L 379.212119 395.967273 
z
" style="fill:#ffffff;stroke:#000000;stroke-linejoin:miter;"/>
    </g>
    <!-- $x_1 &gt; -0.58$ -->
    <g style="fill:#262626;" transform="translate(383.172119 415.147966)scale(0.22 -0.22)">
     <use transform="scale(0.996264)" xlink:href="#CMMI12-120"/>
     <use transform="translate(55.43406 -14.943915)scale(0.697382)" xlink:href="#CMR17-49"/>
     <use transform="translate(115.589382 0)scale(0.996264)" xlink:href="#CMMI12-62"/>
     <use transform="translate(219.135487 0)scale(0.996264)" xlink:href="#CMSY10-0"/>
     <use transform="translate(296.622954 0)scale(0.996264)" xlink:href="#CMR17-48"/>
     <use transform="translate(342.313432 0)scale(0.996264)" xlink:href="#CMMI12-58"/>
     <use transform="translate(369.410609 0)scale(0.996264)" xlink:href="#CMR17-53"/>
     <use transform="translate(415.101086 0)scale(0.996264)" xlink:href="#CMR17-56"/>
    </g>
   </g>
   <g id="text_5">
    <g id="patch_35">
     <path d="M 771.939391 227.007518 
L 882.096972 227.007518 
L 882.096972 199.603636 
L 771.939391 199.603636 
z
" style="fill:#ffffff;stroke:#000000;stroke-linejoin:miter;"/>
    </g>
    <!-- $x_0 &gt; -0.10$ -->
    <g style="fill:#262626;" transform="translate(775.899391 218.78433)scale(0.22 -0.22)">
     <use transform="scale(0.996264)" xlink:href="#CMMI12-120"/>
     <use transform="translate(55.43406 -14.943915)scale(0.697382)" xlink:href="#CMR17-48"/>
     <use transform="translate(115.589382 0)scale(0.996264)" xlink:href="#CMMI12-62"/>
     <use transform="translate(219.135487 0)scale(0.996264)" xlink:href="#CMSY10-0"/>
     <use transform="translate(296.622954 0)scale(0.996264)" xlink:href="#CMR17-48"/>
     <use transform="translate(342.313432 0)scale(0.996264)" xlink:href="#CMMI12-58"/>
     <use transform="translate(369.410609 0)scale(0.996264)" xlink:href="#CMR17-49"/>
     <use transform="translate(415.101086 0)scale(0.996264)" xlink:href="#CMR17-48"/>
    </g>
   </g>
   <g id="text_6">
    <g id="patch_36">
     <path d="M 649.553917 423.371154 
L 742.664265 423.371154 
L 742.664265 395.967273 
L 649.553917 395.967273 
z
" style="fill:#ffffff;stroke:#000000;stroke-linejoin:miter;"/>
    </g>
    <!-- $x_1 &gt; 0.71$ -->
    <defs>
     <path d="M 45.09375 61.796875 
L 45.09375 64 
L 21.59375 64 
C 9.90625 64 9.703125 65.09375 9.296875 67 
L 7.5 67 
L 4.59375 48.5 
L 6.40625 48.5 
C 6.703125 50.40625 7.40625 55.5 8.59375 57.390625 
C 9.203125 58.1875 16.59375 58.1875 18.296875 58.1875 
L 40.296875 58.1875 
L 29.203125 41.71875 
C 21.796875 30.640625 16.703125 15.671875 16.703125 2.59375 
C 16.703125 1.390625 16.703125 -2 20.296875 -2 
C 23.90625 -2 23.90625 1.390625 23.90625 2.6875 
L 23.90625 7.28125 
C 23.90625 23.65625 26.703125 34.4375 31.296875 41.3125 
z
" id="CMR17-55"/>
    </defs>
    <g style="fill:#262626;" transform="translate(653.513917 415.147966)scale(0.22 -0.22)">
     <use transform="scale(0.996264)" xlink:href="#CMMI12-120"/>
     <use transform="translate(55.43406 -14.943915)scale(0.697382)" xlink:href="#CMR17-49"/>
     <use transform="translate(115.589382 0)scale(0.996264)" xlink:href="#CMMI12-62"/>
     <use transform="translate(219.135487 0)scale(0.996264)" xlink:href="#CMR17-48"/>
     <use transform="translate(264.825964 0)scale(0.996264)" xlink:href="#CMMI12-58"/>
     <use transform="translate(291.923141 0)scale(0.996264)" xlink:href="#CMR17-55"/>
     <use transform="translate(337.613618 0)scale(0.996264)" xlink:href="#CMR17-49"/>
    </g>
   </g>
   <g id="text_7">
    <g id="patch_37">
     <path d="M 911.372099 423.371154 
L 1004.482447 423.371154 
L 1004.482447 395.967273 
L 911.372099 395.967273 
z
" style="fill:#ffffff;stroke:#000000;stroke-linejoin:miter;"/>
    </g>
    <!-- $x_1 &gt; 0.83$ -->
    <g style="fill:#262626;" transform="translate(915.332099 415.147966)scale(0.22 -0.22)">
     <use transform="scale(0.996264)" xlink:href="#CMMI12-120"/>
     <use transform="translate(55.43406 -14.943915)scale(0.697382)" xlink:href="#CMR17-49"/>
     <use transform="translate(115.589382 0)scale(0.996264)" xlink:href="#CMMI12-62"/>
     <use transform="translate(219.135487 0)scale(0.996264)" xlink:href="#CMR17-48"/>
     <use transform="translate(264.825964 0)scale(0.996264)" xlink:href="#CMMI12-58"/>
     <use transform="translate(291.923141 0)scale(0.996264)" xlink:href="#CMR17-56"/>
     <use transform="translate(337.613618 0)scale(0.996264)" xlink:href="#CMR17-51"/>
    </g>
   </g>
   <g id="legend_1">
    <g id="patch_38">
     <path d="M 983.58257 88.604971 
L 1109.2 88.604971 
Q 1113.2 88.604971 1113.2 84.604971 
L 1113.2 30.853704 
Q 1113.2 26.853704 1109.2 26.853704 
L 983.58257 26.853704 
Q 979.58257 26.853704 979.58257 30.853704 
L 979.58257 84.604971 
Q 979.58257 88.604971 983.58257 88.604971 
z
" style="fill:#ffffff;opacity:0.8;stroke:#cccccc;stroke-linejoin:miter;"/>
    </g>
    <g id="line2d_15">
     <path d="M 987.58257 41.853704 
L 1027.58257 41.853704 
" style="fill:none;stroke:#0000ff;stroke-width:20;"/>
    </g>
    <g id="line2d_16"/>
    <g id="text_8">
     <!-- Class -1 -->
     <defs>
      <path d="M 54.703125 11.015625 
C 48 6.5 44.90625 5.1875 36.796875 5.1875 
C 22.796875 5.1875 14.59375 20.375 14.59375 34.234375 
C 14.59375 49.015625 23 63.59375 37.203125 63.59375 
C 43.59375 63.59375 47.796875 61.78125 52.90625 58.5625 
L 54.296875 66.484375 
C 49.5 68.890625 43.40625 70 37.296875 70 
C 18.09375 70 6.203125 52.234375 6.203125 34.234375 
C 6.203125 14.4375 20.296875 -1.203125 36.296875 -1.203125 
C 44.90625 -1.203125 47.90625 -0.5 55.296875 4.1875 
z
" id="CMSS17-67"/>
      <path d="M 14.796875 69 
L 7.40625 69 
L 7.40625 0 
L 14.796875 0 
z
" id="CMSS17-108"/>
      <path d="M 37.59375 27.953125 
C 37.59375 37.484375 30.90625 44 21.90625 44 
C 17.5 44 12.703125 43.1875 7.203125 39.984375 
L 7.796875 33.328125 
C 10.296875 35.15625 14.59375 38.09375 21.796875 38.09375 
C 26.90625 38.09375 30 34.140625 30 27.84375 
L 30 24 
C 14 23.5 4 18.890625 4 11.109375 
C 4 7.0625 6.5 -1 14.796875 -1 
C 16.296875 -1 24.40625 -0.8125 30.203125 3.5 
L 30.203125 -0.203125 
L 37.59375 -0.203125 
z
M 30 12.875 
C 30 11.109375 30 8.734375 27 6.96875 
C 24.40625 5.296875 21.09375 5.09375 19.703125 5.09375 
C 14.703125 5.09375 11.296875 7.859375 11.296875 11.296875 
C 11.296875 18.203125 26.90625 18.890625 30 19 
z
" id="CMSS17-97"/>
      <path d="M 32.203125 40.984375 
C 26.296875 43.796875 21.703125 44 18.703125 44 
C 11.59375 44 3.09375 41.484375 3.09375 31.390625 
C 3.09375 21.296875 14.09375 19.09375 17.09375 18.484375 
C 21.703125 17.59375 26.796875 16.59375 26.796875 11.59375 
C 26.796875 5.296875 19.59375 5.296875 18.296875 5.296875 
C 14.296875 5.296875 8.796875 6.390625 3.796875 9.984375 
L 2.59375 3.296875 
C 8.296875 0 13.796875 -1 18.40625 -1 
C 30.703125 -1 33.796875 6.5 33.796875 12.1875 
C 33.796875 17.09375 31 20.390625 29.09375 21.890625 
C 25.796875 24.484375 24.59375 24.796875 16.40625 26.484375 
C 15 26.6875 10.09375 27.796875 10.09375 32.296875 
C 10.09375 37.984375 16.40625 37.984375 17.796875 37.984375 
C 24.296875 37.984375 28.296875 35.984375 31 34.484375 
z
" id="CMSS17-115"/>
      <path d="M 26 19 
L 26 24.796875 
L 1 24.796875 
L 1 19 
z
" id="CMSS17-45"/>
      <path d="M 28.40625 67 
L 26.5 67 
C 21.09375 61.703125 14.796875 60.96875 8.40625 60.796875 
L 8.40625 55 
C 11.296875 55.09375 16 55.296875 20.703125 57.390625 
L 20.703125 5.796875 
L 8.90625 5.796875 
L 8.90625 0 
L 40.203125 0 
L 40.203125 5.796875 
L 28.40625 5.796875 
z
" id="CMSS17-49"/>
     </defs>
     <g style="fill:#262626;" transform="translate(1043.58257 48.853704)scale(0.2 -0.2)">
      <use transform="scale(0.996264)" xlink:href="#CMSS17-67"/>
      <use transform="translate(59.855772 0)scale(0.996264)" xlink:href="#CMSS17-108"/>
      <use transform="translate(82.036495 0)scale(0.996264)" xlink:href="#CMSS17-97"/>
      <use transform="translate(126.958415 0)scale(0.996264)" xlink:href="#CMSS17-115"/>
      <use transform="translate(162.871957 0)scale(0.996264)" xlink:href="#CMSS17-115"/>
      <use transform="translate(230.014612 0)scale(0.996264)" xlink:href="#CMSS17-45"/>
      <use transform="translate(261.243725 0)scale(0.996264)" xlink:href="#CMSS17-49"/>
     </g>
    </g>
    <g id="line2d_17">
     <path d="M 987.58257 69.729337 
L 1027.58257 69.729337 
" style="fill:none;stroke:#ffa500;stroke-width:20;"/>
    </g>
    <g id="line2d_18"/>
    <g id="text_9">
     <!-- Class 1 -->
     <g style="fill:#262626;" transform="translate(1043.58257 76.729337)scale(0.2 -0.2)">
      <use transform="scale(0.996264)" xlink:href="#CMSS17-67"/>
      <use transform="translate(59.855772 0)scale(0.996264)" xlink:href="#CMSS17-108"/>
      <use transform="translate(82.036495 0)scale(0.996264)" xlink:href="#CMSS17-97"/>
      <use transform="translate(126.958415 0)scale(0.996264)" xlink:href="#CMSS17-115"/>
      <use transform="translate(162.871957 0)scale(0.996264)" xlink:href="#CMSS17-115"/>
      <use transform="translate(230.014612 0)scale(0.996264)" xlink:href="#CMSS17-49"/>
     </g>
    </g>
   </g>
  </g>
 </g>
 <defs>
  <clipPath id="pe0892ba52c">
   <rect height="756.263907" width="1116" x="7.2" y="16.853704"/>
  </clipPath>
 </defs>
</svg>
