<?xml version="1.0" encoding="utf-8" standalone="no"?>
<!DOCTYPE svg PUBLIC "-//W3C//DTD SVG 1.1//EN"
  "http://www.w3.org/Graphics/SVG/1.1/DTD/svg11.dtd">
<!-- Created with matplotlib (https://matplotlib.org/) -->
<svg height="891.016334pt" version="1.1" viewBox="0 0 1130.4 891.016334" width="1130.4pt" xmlns="http://www.w3.org/2000/svg" xmlns:xlink="http://www.w3.org/1999/xlink">
 <defs>
  <style type="text/css">
*{stroke-linecap:butt;stroke-linejoin:round;}
  </style>
 </defs>
 <g id="figure_1">
  <g id="patch_1">
   <path d="M 0 891.016334 
L 1130.4 891.016334 
L 1130.4 0 
L 0 0 
z
" style="fill:#ffffff;"/>
  </g>
  <g id="axes_1">
   <g id="line2d_1">
    <path clip-path="url(#p278cd83990)" d="M 640.351515 111.229336 
L 339.745455 336.683881 
" style="fill:none;stroke:#000000;stroke-linecap:round;stroke-opacity:0.2;stroke-width:1.5;"/>
   </g>
   <g id="line2d_2">
    <path clip-path="url(#p278cd83990)" d="M 339.745455 336.683881 
L 189.442424 562.138427 
" style="fill:none;stroke:#000000;stroke-linecap:round;stroke-opacity:0.2;stroke-width:1.5;"/>
   </g>
   <g id="line2d_3">
    <path clip-path="url(#p278cd83990)" d="M 189.442424 562.138427 
L 114.290909 787.592972 
" style="fill:none;stroke:#000000;stroke-linecap:round;stroke-opacity:0.2;stroke-width:1.5;"/>
   </g>
   <g id="line2d_4">
    <path clip-path="url(#p278cd83990)" d="M 189.442424 562.138427 
L 264.593939 787.592972 
" style="fill:none;stroke:#000000;stroke-linecap:round;stroke-opacity:0.2;stroke-width:1.5;"/>
   </g>
   <g id="line2d_5">
    <path clip-path="url(#p278cd83990)" d="M 339.745455 336.683881 
L 490.048485 562.138427 
" style="fill:none;stroke:#000000;stroke-linecap:round;stroke-opacity:0.2;stroke-width:1.5;"/>
   </g>
   <g id="line2d_6">
    <path clip-path="url(#p278cd83990)" d="M 490.048485 562.138427 
L 414.89697 787.592972 
" style="fill:none;stroke:#000000;stroke-linecap:round;stroke-opacity:0.2;stroke-width:1.5;"/>
   </g>
   <g id="line2d_7">
    <path clip-path="url(#p278cd83990)" d="M 490.048485 562.138427 
L 565.2 787.592972 
" style="fill:none;stroke:#000000;stroke-linecap:round;stroke-opacity:0.2;stroke-width:1.5;"/>
   </g>
   <g id="line2d_8">
    <path clip-path="url(#p278cd83990)" d="M 640.351515 111.229336 
L 790.654545 336.683881 
" style="fill:none;stroke:#000000;stroke-linecap:round;stroke-opacity:0.2;stroke-width:1.5;"/>
   </g>
   <g id="line2d_9">
    <path clip-path="url(#p278cd83990)" d="M 790.654545 336.683881 
L 715.50303 562.138427 
" style="fill:none;stroke:#000000;stroke-linecap:round;stroke-opacity:0.2;stroke-width:1.5;"/>
   </g>
   <g id="line2d_10">
    <path clip-path="url(#p278cd83990)" d="M 790.654545 336.683881 
L 940.957576 562.138427 
" style="fill:none;stroke:#000000;stroke-linecap:round;stroke-opacity:0.2;stroke-width:1.5;"/>
   </g>
   <g id="line2d_11">
    <path clip-path="url(#p278cd83990)" d="M 940.957576 562.138427 
L 865.806061 787.592972 
" style="fill:none;stroke:#000000;stroke-linecap:round;stroke-opacity:0.2;stroke-width:1.5;"/>
   </g>
   <g id="line2d_12">
    <path clip-path="url(#p278cd83990)" d="M 940.957576 562.138427 
L 1016.109091 787.592972 
" style="fill:none;stroke:#000000;stroke-linecap:round;stroke-opacity:0.2;stroke-width:1.5;"/>
   </g>
   <g id="patch_2">
    <path clip-path="url(#p278cd83990)" d="M 640.351515 167.592972 
C 655.299326 167.592972 669.636926 161.654144 680.206625 151.084445 
C 690.776323 140.514747 696.715152 126.177147 696.715152 111.229336 
C 696.715152 96.281525 690.776323 81.943925 680.206625 71.374226 
C 669.636926 60.804528 655.299326 54.865699 640.351515 54.865699 
C 625.403704 54.865699 611.066104 60.804528 600.496406 71.374226 
C 589.926707 81.943925 583.987879 96.281525 583.987879 111.229336 
C 583.987879 126.177147 589.926707 140.514747 600.496406 151.084445 
C 611.066104 161.654144 625.403704 167.592972 640.351515 167.592972 
z
" style="fill:#0000ff;stroke:#0000ff;stroke-linejoin:miter;"/>
   </g>
   <g id="patch_3">
    <path clip-path="url(#p278cd83990)" d="M 696.715152 111.229336 
C 696.715152 98.723061 692.552709 86.565562 684.887525 76.683665 
C 677.222341 66.801769 666.481949 59.746651 654.368582 56.636467 
C 642.255214 53.526283 629.444508 54.534507 617.966816 59.501348 
C 606.489124 64.468189 596.984628 73.116614 590.959684 84.075947 
L 640.351515 111.229336 
L 696.715152 111.229336 
z
" style="fill:#ffa500;stroke:#ffa500;stroke-linejoin:miter;"/>
   </g>
   <g id="patch_4">
    <path clip-path="url(#p278cd83990)" d="M 339.745455 393.047518 
C 354.693266 393.047518 369.030865 387.108689 379.600564 376.538991 
C 390.170263 365.969292 396.109091 351.631692 396.109091 336.683881 
C 396.109091 321.73607 390.170263 307.39847 379.600564 296.828772 
C 369.030865 286.259073 354.693266 280.320245 339.745455 280.320245 
C 324.797643 280.320245 310.460044 286.259073 299.890345 296.828772 
C 289.320646 307.39847 283.381818 321.73607 283.381818 336.683881 
C 283.381818 351.631692 289.320646 365.969292 299.890345 376.538991 
C 310.460044 387.108689 324.797643 393.047518 339.745455 393.047518 
z
" style="fill:#0000ff;stroke:#0000ff;stroke-linejoin:miter;"/>
   </g>
   <g id="patch_5">
    <path clip-path="url(#p278cd83990)" d="M 396.109091 336.683881 
C 396.109091 326.414403 393.302436 316.337594 387.993639 307.546755 
C 382.684843 298.755915 375.073104 291.580901 365.984273 286.800177 
L 339.745455 336.683881 
L 396.109091 336.683881 
z
" style="fill:#ffa500;stroke:#ffa500;stroke-linejoin:miter;"/>
   </g>
   <g id="patch_6">
    <path clip-path="url(#p278cd83990)" d="M 189.442424 618.502063 
C 204.390235 618.502063 218.727835 612.563235 229.297534 601.993536 
C 239.867232 591.423838 245.806061 577.086238 245.806061 562.138427 
C 245.806061 547.190616 239.867232 532.853016 229.297534 522.283317 
C 218.727835 511.713619 204.390235 505.77479 189.442424 505.77479 
C 174.494613 505.77479 160.157013 511.713619 149.587315 522.283317 
C 139.017616 532.853016 133.078788 547.190616 133.078788 562.138427 
C 133.078788 577.086238 139.017616 591.423838 149.587315 601.993536 
C 160.157013 612.563235 174.494613 618.502063 189.442424 618.502063 
z
" style="fill:#0000ff;stroke:#0000ff;stroke-linejoin:miter;"/>
   </g>
   <g id="patch_7">
    <path clip-path="url(#p278cd83990)" d="M 245.806061 562.138427 
C 245.806061 559.062554 245.554276 555.991835 245.05323 552.957045 
C 244.552184 549.922256 243.803557 546.933567 242.81485 544.02093 
L 189.442424 562.138427 
L 245.806061 562.138427 
z
" style="fill:#ffa500;stroke:#ffa500;stroke-linejoin:miter;"/>
   </g>
   <g id="patch_8">
    <path clip-path="url(#p278cd83990)" d="M 114.290909 843.956609 
C 129.23872 843.956609 143.57632 838.01778 154.146019 827.448082 
C 164.715717 816.878383 170.654545 802.540783 170.654545 787.592972 
C 170.654545 772.645161 164.715717 758.307561 154.146019 747.737863 
C 143.57632 737.168164 129.23872 731.229336 114.290909 731.229336 
C 99.343098 731.229336 85.005498 737.168164 74.4358 747.737863 
C 63.866101 758.307561 57.927273 772.645161 57.927273 787.592972 
C 57.927273 802.540783 63.866101 816.878383 74.4358 827.448082 
C 85.005498 838.01778 99.343098 843.956609 114.290909 843.956609 
z
" style="fill:#0000ff;stroke:#0000ff;stroke-linejoin:miter;"/>
   </g>
   <g id="patch_9">
    <path clip-path="url(#p278cd83990)" d="M 264.593939 843.956609 
C 279.54175 843.956609 293.87935 838.01778 304.449049 827.448082 
C 315.018747 816.878383 320.957576 802.540783 320.957576 787.592972 
C 320.957576 772.645161 315.018747 758.307561 304.449049 747.737863 
C 293.87935 737.168164 279.54175 731.229336 264.593939 731.229336 
C 249.646128 731.229336 235.308528 737.168164 224.73883 747.737863 
C 214.169131 758.307561 208.230303 772.645161 208.230303 787.592972 
C 208.230303 802.540783 214.169131 816.878383 224.73883 827.448082 
C 235.308528 838.01778 249.646128 843.956609 264.593939 843.956609 
z
" style="fill:#0000ff;stroke:#0000ff;stroke-linejoin:miter;"/>
   </g>
   <g id="patch_10">
    <path clip-path="url(#p278cd83990)" d="M 320.957576 787.592972 
C 320.957576 782.583575 320.28975 777.59646 318.971765 772.763555 
C 317.653779 767.930649 315.69736 763.294948 313.15426 758.979082 
L 264.593939 787.592972 
L 320.957576 787.592972 
z
" style="fill:#ffa500;stroke:#ffa500;stroke-linejoin:miter;"/>
   </g>
   <g id="patch_11">
    <path clip-path="url(#p278cd83990)" d="M 490.048485 618.502063 
C 504.996296 618.502063 519.333896 612.563235 529.903594 601.993536 
C 540.473293 591.423838 546.412121 577.086238 546.412121 562.138427 
C 546.412121 547.190616 540.473293 532.853016 529.903594 522.283317 
C 519.333896 511.713619 504.996296 505.77479 490.048485 505.77479 
C 475.100674 505.77479 460.763074 511.713619 450.193375 522.283317 
C 439.623677 532.853016 433.684848 547.190616 433.684848 562.138427 
C 433.684848 577.086238 439.623677 591.423838 450.193375 601.993536 
C 460.763074 612.563235 475.100674 618.502063 490.048485 618.502063 
z
" style="fill:#0000ff;stroke:#0000ff;stroke-linejoin:miter;"/>
   </g>
   <g id="patch_12">
    <path clip-path="url(#p278cd83990)" d="M 546.412121 562.138427 
C 546.412121 547.609004 540.794028 533.627841 530.740556 523.138236 
C 520.687083 512.648631 506.956956 506.442222 492.440625 505.825576 
C 477.924294 505.20893 463.71729 510.228584 452.810455 519.827806 
C 441.90362 529.427028 435.12008 542.881376 433.887899 557.358456 
L 490.048485 562.138427 
L 546.412121 562.138427 
z
" style="fill:#ffa500;stroke:#ffa500;stroke-linejoin:miter;"/>
   </g>
   <g id="patch_13">
    <path clip-path="url(#p278cd83990)" d="M 414.89697 843.956609 
C 429.844781 843.956609 444.182381 838.01778 454.752079 827.448082 
C 465.321778 816.878383 471.260606 802.540783 471.260606 787.592972 
C 471.260606 772.645161 465.321778 758.307561 454.752079 747.737863 
C 444.182381 737.168164 429.844781 731.229336 414.89697 731.229336 
C 399.949159 731.229336 385.611559 737.168164 375.04186 747.737863 
C 364.472162 758.307561 358.533333 772.645161 358.533333 787.592972 
C 358.533333 802.540783 364.472162 816.878383 375.04186 827.448082 
C 385.611559 838.01778 399.949159 843.956609 414.89697 843.956609 
z
" style="fill:#0000ff;stroke:#0000ff;stroke-linejoin:miter;"/>
   </g>
   <g id="patch_14">
    <path clip-path="url(#p278cd83990)" d="M 471.260606 787.592972 
C 471.260606 772.650139 465.318258 758.304041 454.752079 747.737863 
C 444.185901 737.171684 429.839802 731.229336 414.89697 731.229336 
L 414.89697 787.592972 
L 471.260606 787.592972 
z
" style="fill:#ffa500;stroke:#ffa500;stroke-linejoin:miter;"/>
   </g>
   <g id="patch_15">
    <path clip-path="url(#p278cd83990)" d="M 565.2 843.956609 
C 580.147811 843.956609 594.485411 838.01778 605.055109 827.448082 
C 615.624808 816.878383 621.563636 802.540783 621.563636 787.592972 
C 621.563636 772.645161 615.624808 758.307561 605.055109 747.737863 
C 594.485411 737.168164 580.147811 731.229336 565.2 731.229336 
C 550.252189 731.229336 535.914589 737.168164 525.344891 747.737863 
C 514.775192 758.307561 508.836364 772.645161 508.836364 787.592972 
C 508.836364 802.540783 514.775192 816.878383 525.344891 827.448082 
C 535.914589 838.01778 550.252189 843.956609 565.2 843.956609 
z
" style="fill:#0000ff;stroke:#0000ff;stroke-linejoin:miter;"/>
   </g>
   <g id="patch_16">
    <path clip-path="url(#p278cd83990)" d="M 621.563636 787.592972 
C 621.563636 780.763937 620.322525 773.99141 617.900915 767.606151 
C 615.479306 761.220893 611.917275 755.328574 607.388788 750.216968 
C 602.8603 745.105362 597.440298 740.859061 591.393488 737.685451 
C 585.346678 734.51184 578.773129 732.463439 571.993886 731.64029 
C 565.214642 730.817141 558.341894 731.232866 551.711299 732.867161 
C 545.080704 734.501456 538.801991 737.327275 533.181805 741.206609 
C 527.56162 745.085943 522.692971 749.954592 518.813637 755.574777 
C 514.934303 761.194963 512.108483 767.473676 510.474188 774.104271 
C 508.839893 780.734866 508.424169 787.607614 509.247318 794.386858 
C 510.070467 801.166101 512.118868 807.73965 515.292479 813.78646 
C 518.466089 819.83327 522.71239 825.253272 527.823996 829.78176 
C 532.935602 834.310247 538.827921 837.872279 545.213179 840.293888 
C 551.598437 842.715497 558.370965 843.956609 565.2 843.956609 
C 572.029035 843.956609 578.801563 842.715497 585.186821 840.293888 
C 591.572079 837.872279 597.464398 834.310247 602.576004 829.78176 
C 607.68761 825.253272 611.933911 819.83327 615.107521 813.78646 
L 565.2 787.592972 
L 621.563636 787.592972 
z
" style="fill:#ffa500;stroke:#ffa500;stroke-linejoin:miter;"/>
   </g>
   <g id="patch_17">
    <path clip-path="url(#p278cd83990)" d="M 790.654545 393.047518 
C 805.602357 393.047518 819.939956 387.108689 830.509655 376.538991 
C 841.079354 365.969292 847.018182 351.631692 847.018182 336.683881 
C 847.018182 321.73607 841.079354 307.39847 830.509655 296.828772 
C 819.939956 286.259073 805.602357 280.320245 790.654545 280.320245 
C 775.706734 280.320245 761.369135 286.259073 750.799436 296.828772 
C 740.229737 307.39847 734.290909 321.73607 734.290909 336.683881 
C 734.290909 351.631692 740.229737 365.969292 750.799436 376.538991 
C 761.369135 387.108689 775.706734 393.047518 790.654545 393.047518 
z
" style="fill:#0000ff;stroke:#0000ff;stroke-linejoin:miter;"/>
   </g>
   <g id="patch_18">
    <path clip-path="url(#p278cd83990)" d="M 847.018182 336.683881 
C 847.018182 329.948775 845.810977 323.267874 843.453936 316.958673 
C 841.096896 310.649473 837.627959 304.813526 833.211981 299.728176 
C 828.796003 294.642826 823.504063 290.389925 817.58765 287.171586 
C 811.671237 283.953247 805.225582 281.821271 798.557002 280.876976 
C 791.888422 279.932681 785.104255 280.191267 778.526905 281.640445 
C 771.949555 283.089623 765.684891 285.706067 760.030629 289.365436 
C 754.376368 293.024804 749.42352 297.668196 745.40746 303.074943 
C 741.391399 308.48169 738.37677 314.564765 736.506835 321.035081 
C 734.6369 327.505398 733.941759 334.258809 734.454446 340.974374 
C 734.967133 347.689938 736.679397 354.259561 739.509865 360.371033 
C 742.340333 366.482506 746.243447 372.037459 751.033717 376.771903 
C 755.823988 381.506347 761.424311 385.344076 767.568543 388.102711 
C 773.712775 390.861345 780.302018 392.496481 787.023131 392.930413 
C 793.744243 393.364345 800.489043 392.590087 806.936995 390.644435 
C 813.384947 388.698783 819.432266 385.613054 824.791565 381.533891 
C 830.150864 377.454729 834.735879 372.447791 838.328716 366.751022 
L 790.654545 336.683881 
L 847.018182 336.683881 
z
" style="fill:#ffa500;stroke:#ffa500;stroke-linejoin:miter;"/>
   </g>
   <g id="patch_19">
    <path clip-path="url(#p278cd83990)" d="M 715.50303 618.502063 
C 730.450841 618.502063 744.788441 612.563235 755.35814 601.993536 
C 765.927838 591.423838 771.866667 577.086238 771.866667 562.138427 
C 771.866667 547.190616 765.927838 532.853016 755.35814 522.283317 
C 744.788441 511.713619 730.450841 505.77479 715.50303 505.77479 
C 700.555219 505.77479 686.217619 511.713619 675.647921 522.283317 
C 665.078222 532.853016 659.139394 547.190616 659.139394 562.138427 
C 659.139394 577.086238 665.078222 591.423838 675.647921 601.993536 
C 686.217619 612.563235 700.555219 618.502063 715.50303 618.502063 
z
" style="fill:#0000ff;stroke:#0000ff;stroke-linejoin:miter;"/>
   </g>
   <g id="patch_20">
    <path clip-path="url(#p278cd83990)" d="M 940.957576 618.502063 
C 955.905387 618.502063 970.242987 612.563235 980.812685 601.993536 
C 991.382384 591.423838 997.321212 577.086238 997.321212 562.138427 
C 997.321212 547.190616 991.382384 532.853016 980.812685 522.283317 
C 970.242987 511.713619 955.905387 505.77479 940.957576 505.77479 
C 926.009765 505.77479 911.672165 511.713619 901.102466 522.283317 
C 890.532768 532.853016 884.593939 547.190616 884.593939 562.138427 
C 884.593939 577.086238 890.532768 591.423838 901.102466 601.993536 
C 911.672165 612.563235 926.009765 618.502063 940.957576 618.502063 
z
" style="fill:#0000ff;stroke:#0000ff;stroke-linejoin:miter;"/>
   </g>
   <g id="patch_21">
    <path clip-path="url(#p278cd83990)" d="M 997.321212 562.138427 
C 997.321212 555.085827 995.997509 548.095476 993.418986 541.531149 
C 990.840464 534.966822 987.052641 528.944397 982.252635 523.77728 
C 977.452628 518.610162 971.725171 514.389565 965.368318 511.335128 
C 959.011465 508.280691 952.137433 506.446331 945.103942 505.92751 
C 938.070451 505.408689 931.001663 506.214563 924.265435 508.303197 
C 917.529206 510.391831 911.24445 513.726353 905.738223 518.133237 
C 900.231995 522.540121 895.601497 527.941573 892.087696 534.056504 
C 888.573896 540.171434 886.238822 546.891897 885.203991 553.868164 
C 884.169159 560.84443 884.452838 567.953349 886.040265 574.824974 
C 887.627692 581.6966 890.490844 588.20963 894.480724 594.025129 
C 898.470604 599.840627 903.51678 604.855935 909.356651 608.810057 
C 915.196521 612.764178 921.726996 615.587313 928.608233 617.132547 
C 935.48947 618.67778 942.599995 618.917834 949.569781 617.840217 
C 956.539566 616.762599 963.245575 614.386333 969.33883 610.835079 
C 975.432085 607.283824 980.805023 602.62027 985.178039 597.087106 
C 989.551054 591.553942 992.846951 585.248844 994.894213 578.499927 
L 940.957576 562.138427 
L 997.321212 562.138427 
z
" style="fill:#ffa500;stroke:#ffa500;stroke-linejoin:miter;"/>
   </g>
   <g id="patch_22">
    <path clip-path="url(#p278cd83990)" d="M 865.806061 843.956609 
C 880.753872 843.956609 895.091472 838.01778 905.66117 827.448082 
C 916.230869 816.878383 922.169697 802.540783 922.169697 787.592972 
C 922.169697 772.645161 916.230869 758.307561 905.66117 747.737863 
C 895.091472 737.168164 880.753872 731.229336 865.806061 731.229336 
C 850.85825 731.229336 836.52065 737.168164 825.950951 747.737863 
C 815.381253 758.307561 809.442424 772.645161 809.442424 787.592972 
C 809.442424 802.540783 815.381253 816.878383 825.950951 827.448082 
C 836.52065 838.01778 850.85825 843.956609 865.806061 843.956609 
z
" style="fill:#0000ff;stroke:#0000ff;stroke-linejoin:miter;"/>
   </g>
   <g id="patch_23">
    <path clip-path="url(#p278cd83990)" d="M 922.169697 787.592972 
C 922.169697 781.430968 921.159197 775.310462 919.178486 769.475475 
C 917.197775 763.640488 914.27353 758.169611 910.52234 753.280964 
C 906.77115 748.392318 902.243538 744.151747 897.120019 740.728321 
C 891.9965 737.304895 886.346082 734.744724 880.394043 733.14988 
C 874.442005 731.555036 868.268513 730.947 862.119702 731.350015 
C 855.970892 731.753029 849.92958 733.161665 844.236631 735.519762 
C 838.543682 737.877859 833.275773 741.153655 828.642933 745.216547 
C 824.010093 749.279438 820.074722 754.074702 816.99372 759.411154 
C 813.912718 764.747606 811.727583 770.55337 810.525436 776.596972 
C 809.323288 782.640575 809.12032 788.840616 809.924623 794.949903 
C 810.728926 801.05919 812.529667 806.995438 815.255052 812.521971 
C 817.980436 818.048504 821.593756 823.090887 825.950951 827.448082 
C 830.308146 831.805276 835.350528 835.418597 840.877062 838.143981 
C 846.403595 840.869366 852.339843 842.670107 858.44913 843.47441 
C 864.558417 844.278713 870.758458 844.075744 876.802061 842.873597 
C 882.845663 841.67145 888.651427 839.486315 893.987879 836.405313 
L 865.806061 787.592972 
L 922.169697 787.592972 
z
" style="fill:#ffa500;stroke:#ffa500;stroke-linejoin:miter;"/>
   </g>
   <g id="patch_24">
    <path clip-path="url(#p278cd83990)" d="M 1016.109091 843.956609 
C 1031.056902 843.956609 1045.394502 838.01778 1055.9642 827.448082 
C 1066.533899 816.878383 1072.472727 802.540783 1072.472727 787.592972 
C 1072.472727 772.645161 1066.533899 758.307561 1055.9642 747.737863 
C 1045.394502 737.168164 1031.056902 731.229336 1016.109091 731.229336 
C 1001.16128 731.229336 986.82368 737.168164 976.253981 747.737863 
C 965.684283 758.307561 959.745455 772.645161 959.745455 787.592972 
C 959.745455 802.540783 965.684283 816.878383 976.253981 827.448082 
C 986.82368 838.01778 1001.16128 843.956609 1016.109091 843.956609 
z
" style="fill:#0000ff;stroke:#0000ff;stroke-linejoin:miter;"/>
   </g>
   <g id="patch_25">
    <path clip-path="url(#p278cd83990)" d="M 1072.472727 787.592972 
C 1072.472727 780.191367 1071.014772 772.861734 1068.182301 766.023542 
C 1065.349829 759.185351 1061.197925 752.971588 1055.9642 747.737863 
C 1050.730475 742.504138 1044.516712 738.352234 1037.678521 735.519762 
C 1030.840329 732.687291 1023.510696 731.229336 1016.109091 731.229336 
C 1008.707486 731.229336 1001.377852 732.687291 994.539661 735.519762 
C 987.70147 738.352234 981.487706 742.504138 976.253981 747.737863 
C 971.020256 752.971588 966.868352 759.185351 964.035881 766.023542 
C 961.203409 772.861734 959.745455 780.191367 959.745455 787.592972 
C 959.745455 794.994577 961.203409 802.324211 964.035881 809.162402 
C 966.868352 816.000593 971.020256 822.214357 976.253981 827.448082 
C 981.487706 832.681807 987.70147 836.833711 994.539661 839.666182 
C 1001.377852 842.498654 1008.707486 843.956609 1016.109091 843.956609 
C 1023.510696 843.956609 1030.840329 842.498654 1037.678521 839.666182 
C 1044.516712 836.833711 1050.730475 832.681807 1055.9642 827.448082 
C 1061.197925 822.214357 1065.349829 816.000593 1068.182301 809.162402 
C 1071.014772 802.324211 1072.472727 794.994577 1072.472727 787.592972 
M 1016.109091 787.592972 
M 1072.472727 787.592972 
z
" style="fill:#ffa500;stroke:#ffa500;stroke-linejoin:miter;"/>
   </g>
   <g id="text_1">
    <g id="patch_26">
     <path d="M 593.796341 30.643881 
L 686.906689 30.643881 
L 686.906689 3.24 
L 593.796341 3.24 
z
" style="fill:#ffffff;stroke:#000000;stroke-linejoin:miter;"/>
    </g>
    <!-- $x_0 &gt; 0.41$ -->
    <defs>
     <path d="M 47.40625 41 
C 44.203125 40.390625 43 37.984375 43 36.09375 
C 43 33.6875 44.90625 32.890625 46.296875 32.890625 
C 49.296875 32.890625 51.40625 35.484375 51.40625 38.1875 
C 51.40625 42.09375 46.59375 44 42.40625 44 
C 36.296875 44 32.90625 38.296875 32 36.390625 
C 29.703125 43.59375 23.5 44 21.703125 44 
C 11.5 44 6.09375 31.140625 6.09375 28.890625 
C 6.09375 28.484375 6.5 27.96875 7.203125 27.96875 
C 8 27.96875 8.203125 28.578125 8.40625 28.984375 
C 11.796875 40.1875 18.5 41.984375 21.40625 41.984375 
C 25.90625 41.984375 26.796875 38.09375 26.796875 35.6875 
C 26.796875 33.484375 26.203125 31.140625 25 26.21875 
L 21.59375 12.15625 
C 20.09375 6.09375 17.203125 1 11.90625 1 
C 11.40625 1 8.90625 1 6.796875 1.96875 
C 10.40625 2.59375 11.203125 5.59375 11.203125 6.796875 
C 11.203125 8.796875 9.703125 10 7.796875 10 
C 5.40625 10 2.796875 7.890625 2.796875 4.6875 
C 2.796875 0.890625 7.5 -1 11.796875 -1 
C 16.59375 -1 20 2.390625 22.09375 6.484375 
C 23.703125 1 28.703125 -1 32.40625 -1 
C 42.59375 -1 48 11.734375 48 14 
C 48 14.515625 47.59375 14.921875 47 14.921875 
C 46.09375 14.921875 46 14.40625 45.703125 13.59375 
C 43 4.6875 37.203125 1 32.703125 1 
C 29.203125 1 27.296875 3.1875 27.296875 7.296875 
C 27.296875 9.484375 27.703125 11.125 29.296875 17.90625 
L 32.796875 31.859375 
C 34.296875 37.890625 37.703125 41.984375 42.296875 41.984375 
C 42.5 41.984375 45.296875 41.984375 47.40625 41 
z
" id="CMMI12-120"/>
     <path d="M 42 31.84375 
C 42 37.96875 41.90625 48.421875 37.703125 56.453125 
C 34 63.484375 28.09375 66 22.90625 66 
C 18.09375 66 12 63.78125 8.203125 56.5625 
C 4.203125 49.015625 3.796875 39.671875 3.796875 31.84375 
C 3.796875 26.109375 3.90625 17.375 7 9.734375 
C 11.296875 -0.609375 19 -2 22.90625 -2 
C 27.5 -2 34.5 -0.109375 38.59375 9.4375 
C 41.59375 16.375 42 24.5 42 31.84375 
z
M 22.90625 -0.40625 
C 16.5 -0.40625 12.703125 5.125 11.296875 12.75 
C 10.203125 18.6875 10.203125 27.328125 10.203125 32.953125 
C 10.203125 40.6875 10.203125 47.109375 11.5 53.234375 
C 13.40625 61.78125 19 64.390625 22.90625 64.390625 
C 27 64.390625 32.296875 61.671875 34.203125 53.4375 
C 35.5 47.71875 35.59375 40.984375 35.59375 32.953125 
C 35.59375 26.421875 35.59375 18.375 34.40625 12.453125 
C 32.296875 1.5 26.40625 -0.40625 22.90625 -0.40625 
z
" id="CMR17-48"/>
     <path d="M 65.90625 22.8125 
C 67.796875 23.734375 67.90625 24.328125 67.90625 25.046875 
C 67.90625 25.640625 67.703125 26.359375 65.90625 27.15625 
L 11.796875 52.296875 
C 10.5 52.890625 10.296875 53 10.09375 53 
C 8.90625 53 8.203125 51.984375 8.203125 51.1875 
C 8.203125 49.984375 9 49.578125 10.296875 48.96875 
L 61.703125 25.046875 
L 10.203125 1.015625 
C 8.203125 0.109375 8.203125 -0.609375 8.203125 -1.203125 
C 8.203125 -2 8.90625 -3 10.09375 -3 
C 10.296875 -3 10.40625 -2.90625 11.796875 -2.3125 
z
" id="CMMI12-62"/>
     <path d="M 18.40625 4.796875 
C 18.40625 7.6875 16 9.6875 13.59375 9.6875 
C 10.703125 9.6875 8.703125 7.296875 8.703125 4.890625 
C 8.703125 2 11.09375 0 13.5 0 
C 16.40625 0 18.40625 2.390625 18.40625 4.796875 
z
" id="CMMI12-58"/>
     <path d="M 33.59375 64.796875 
C 33.59375 66.890625 33.5 67 31.703125 67 
L 2 19.59375 
L 2 17 
L 27.796875 17 
L 27.796875 7.1875 
C 27.796875 3.59375 27.59375 2.59375 20.59375 2.59375 
L 18.703125 2.59375 
L 18.703125 0 
C 21.90625 0.1875 27.296875 0.1875 30.703125 0.1875 
C 34.09375 0.1875 39.5 0.1875 42.703125 0 
L 42.703125 2.59375 
L 40.796875 2.59375 
C 33.796875 2.59375 33.59375 3.59375 33.59375 7.1875 
L 33.59375 17 
L 43.796875 17 
L 43.796875 19.59375 
L 33.59375 19.59375 
z
M 28.09375 58.171875 
L 28.09375 19.59375 
L 4 19.59375 
z
" id="CMR17-52"/>
     <path d="M 26.59375 63.796875 
C 26.59375 65.890625 26.5 66 25.09375 66 
C 21.203125 61.359375 15.296875 59.890625 9.703125 59.6875 
C 9.40625 59.6875 8.90625 59.6875 8.796875 59.5 
C 8.703125 59.296875 8.703125 59.09375 8.703125 57 
C 11.796875 57 17 57.59375 21 59.984375 
L 21 7.296875 
C 21 3.796875 20.796875 2.59375 12.203125 2.59375 
L 9.203125 2.59375 
L 9.203125 0 
C 14 0.09375 19 0.1875 23.796875 0.1875 
C 28.59375 0.1875 33.59375 0.09375 38.40625 0 
L 38.40625 2.59375 
L 35.40625 2.59375 
C 26.796875 2.59375 26.59375 3.6875 26.59375 7.296875 
z
" id="CMR17-49"/>
    </defs>
    <g style="fill:#262626;" transform="translate(597.756341 22.420693)scale(0.22 -0.22)">
     <use transform="scale(0.996264)" xlink:href="#CMMI12-120"/>
     <use transform="translate(55.43406 -14.943915)scale(0.697382)" xlink:href="#CMR17-48"/>
     <use transform="translate(115.589382 0)scale(0.996264)" xlink:href="#CMMI12-62"/>
     <use transform="translate(219.135487 0)scale(0.996264)" xlink:href="#CMR17-48"/>
     <use transform="translate(264.825964 0)scale(0.996264)" xlink:href="#CMMI12-58"/>
     <use transform="translate(291.923141 0)scale(0.996264)" xlink:href="#CMR17-52"/>
     <use transform="translate(337.613618 0)scale(0.996264)" xlink:href="#CMR17-49"/>
    </g>
   </g>
   <g id="text_2">
    <g id="patch_27">
     <path d="M 293.190281 256.098427 
L 386.300628 256.098427 
L 386.300628 228.694545 
L 293.190281 228.694545 
z
" style="fill:#ffffff;stroke:#000000;stroke-linejoin:miter;"/>
    </g>
    <!-- $x_1 &gt; 0.16$ -->
    <defs>
     <path d="M 10.59375 34.34375 
C 10.59375 58 21.796875 63.6875 28.296875 63.6875 
C 30.40625 63.6875 35.5 63.265625 37.5 59.09375 
C 35.90625 59.09375 32.90625 59.09375 32.90625 55.59375 
C 32.90625 52.890625 35.09375 52 36.5 52 
C 37.40625 52 40.09375 52.390625 40.09375 55.796875 
C 40.09375 62.296875 35.09375 66 28.203125 66 
C 16.296875 66 3.796875 53.296875 3.796875 31.421875 
C 3.796875 4.015625 15.09375 -2 23.09375 -2 
C 32.796875 -2 42 6.734375 42 20.234375 
C 42 32.828125 33.90625 42 23.703125 42 
C 17.59375 42 13.09375 37.96875 10.59375 30.921875 
z
M 23.09375 0.390625 
C 10.796875 0.390625 10.796875 18.9375 10.796875 22.65625 
C 10.796875 29.90625 14.203125 40.390625 23.5 40.390625 
C 25.203125 40.390625 30.09375 40.390625 33.40625 33.4375 
C 35.203125 29.515625 35.203125 25.375 35.203125 20.34375 
C 35.203125 14.90625 35.203125 10.875 33.09375 6.84375 
C 30.90625 2.703125 27.703125 0.390625 23.09375 0.390625 
z
" id="CMR17-54"/>
    </defs>
    <g style="fill:#262626;" transform="translate(297.150281 247.875239)scale(0.22 -0.22)">
     <use transform="scale(0.996264)" xlink:href="#CMMI12-120"/>
     <use transform="translate(55.43406 -14.943915)scale(0.697382)" xlink:href="#CMR17-49"/>
     <use transform="translate(115.589382 0)scale(0.996264)" xlink:href="#CMMI12-62"/>
     <use transform="translate(219.135487 0)scale(0.996264)" xlink:href="#CMR17-48"/>
     <use transform="translate(264.825964 0)scale(0.996264)" xlink:href="#CMMI12-58"/>
     <use transform="translate(291.923141 0)scale(0.996264)" xlink:href="#CMR17-49"/>
     <use transform="translate(337.613618 0)scale(0.996264)" xlink:href="#CMR17-54"/>
    </g>
   </g>
   <g id="text_3">
    <g id="patch_28">
     <path d="M 134.363634 481.552972 
L 244.521215 481.552972 
L 244.521215 454.149091 
L 134.363634 454.149091 
z
" style="fill:#ffffff;stroke:#000000;stroke-linejoin:miter;"/>
    </g>
    <!-- $x_1 &gt; -1.30$ -->
    <defs>
     <path d="M 65.90625 23 
C 67.59375 23 69.40625 23 69.40625 25 
C 69.40625 27 67.59375 27 65.90625 27 
L 11.796875 27 
C 10.09375 27 8.296875 27 8.296875 25 
C 8.296875 23 10.09375 23 11.796875 23 
z
" id="CMSY10-0"/>
     <path d="M 22.09375 34 
C 31 34 34.90625 26.140625 34.90625 17.09375 
C 34.90625 5.03125 28.5 0.390625 22.703125 0.390625 
C 17.40625 0.390625 8.796875 3.015625 6.09375 10.796875 
C 6.59375 10.59375 7.09375 10.59375 7.59375 10.59375 
C 10 10.59375 11.796875 12.1875 11.796875 14.796875 
C 11.796875 17.6875 9.59375 19 7.59375 19 
C 5.90625 19 3.296875 18.1875 3.296875 14.484375 
C 3.296875 5.234375 12.296875 -2 22.90625 -2 
C 34 -2 42.5 6.75 42.5 16.984375 
C 42.5 26.84375 34.5 34 25 35.09375 
C 32.59375 36.671875 39.90625 43.375 39.90625 52.390625 
C 39.90625 60.25 32 66 23 66 
C 13.90625 66 5.90625 60.34375 5.90625 52.296875 
C 5.90625 48.796875 8.5 48.1875 9.796875 48.1875 
C 11.90625 48.1875 13.703125 49.484375 13.703125 52.09375 
C 13.703125 54.6875 11.90625 56 9.796875 56 
C 9.40625 56 8.90625 56 8.5 55.796875 
C 11.40625 62.484375 19.296875 63.6875 22.796875 63.6875 
C 26.296875 63.6875 32.90625 61.96875 32.90625 52.296875 
C 32.90625 49.484375 32.5 44.546875 29.09375 40.21875 
C 26.09375 36.390625 22.703125 36.1875 19.40625 35.890625 
C 18.90625 35.890625 16.59375 35.6875 16.203125 35.6875 
C 15.5 35.59375 15.09375 35.5 15.09375 34.796875 
C 15.09375 34.09375 15.203125 34 17.203125 34 
z
" id="CMR17-51"/>
    </defs>
    <g style="fill:#262626;" transform="translate(138.323634 473.329784)scale(0.22 -0.22)">
     <use transform="scale(0.996264)" xlink:href="#CMMI12-120"/>
     <use transform="translate(55.43406 -14.943915)scale(0.697382)" xlink:href="#CMR17-49"/>
     <use transform="translate(115.589382 0)scale(0.996264)" xlink:href="#CMMI12-62"/>
     <use transform="translate(219.135487 0)scale(0.996264)" xlink:href="#CMSY10-0"/>
     <use transform="translate(296.622954 0)scale(0.996264)" xlink:href="#CMR17-49"/>
     <use transform="translate(342.313432 0)scale(0.996264)" xlink:href="#CMMI12-58"/>
     <use transform="translate(369.410609 0)scale(0.996264)" xlink:href="#CMR17-51"/>
     <use transform="translate(415.101086 0)scale(0.996264)" xlink:href="#CMR17-48"/>
    </g>
   </g>
   <g id="text_4">
    <g id="patch_29">
     <path d="M 434.969694 481.552972 
L 545.127275 481.552972 
L 545.127275 454.149091 
L 434.969694 454.149091 
z
" style="fill:#ffffff;stroke:#000000;stroke-linejoin:miter;"/>
    </g>
    <!-- $x_0 &gt; -0.32$ -->
    <defs>
     <path d="M 41.703125 15.46875 
L 39.90625 15.46875 
C 38.90625 8.390625 38.09375 7.1875 37.703125 6.59375 
C 37.203125 5.796875 30 5.796875 28.59375 5.796875 
L 9.40625 5.796875 
C 13 9.6875 20 16.765625 28.5 24.9375 
C 34.59375 30.71875 41.703125 37.5 41.703125 47.390625 
C 41.703125 59.1875 32.296875 66 21.796875 66 
C 10.796875 66 4.09375 56.296875 4.09375 47.296875 
C 4.09375 43.390625 7 42.890625 8.203125 42.890625 
C 9.203125 42.890625 12.203125 43.484375 12.203125 46.984375 
C 12.203125 50.09375 9.59375 51 8.203125 51 
C 7.59375 51 7 50.890625 6.59375 50.6875 
C 8.5 59.1875 14.296875 63.390625 20.40625 63.390625 
C 29.09375 63.390625 34.796875 56.5 34.796875 47.390625 
C 34.796875 38.703125 29.703125 31.21875 24 24.734375 
L 4.09375 2.296875 
L 4.09375 0 
L 39.296875 0 
z
" id="CMR17-50"/>
    </defs>
    <g style="fill:#262626;" transform="translate(438.929694 473.329784)scale(0.22 -0.22)">
     <use transform="scale(0.996264)" xlink:href="#CMMI12-120"/>
     <use transform="translate(55.43406 -14.943915)scale(0.697382)" xlink:href="#CMR17-48"/>
     <use transform="translate(115.589382 0)scale(0.996264)" xlink:href="#CMMI12-62"/>
     <use transform="translate(219.135487 0)scale(0.996264)" xlink:href="#CMSY10-0"/>
     <use transform="translate(296.622954 0)scale(0.996264)" xlink:href="#CMR17-48"/>
     <use transform="translate(342.313432 0)scale(0.996264)" xlink:href="#CMMI12-58"/>
     <use transform="translate(369.410609 0)scale(0.996264)" xlink:href="#CMR17-51"/>
     <use transform="translate(415.101086 0)scale(0.996264)" xlink:href="#CMR17-50"/>
    </g>
   </g>
   <g id="text_5">
    <g id="patch_30">
     <path d="M 735.575755 256.098427 
L 845.733336 256.098427 
L 845.733336 228.694545 
L 735.575755 228.694545 
z
" style="fill:#ffffff;stroke:#000000;stroke-linejoin:miter;"/>
    </g>
    <!-- $x_1 &gt; -1.02$ -->
    <g style="fill:#262626;" transform="translate(739.535755 247.875239)scale(0.22 -0.22)">
     <use transform="scale(0.996264)" xlink:href="#CMMI12-120"/>
     <use transform="translate(55.43406 -14.943915)scale(0.697382)" xlink:href="#CMR17-49"/>
     <use transform="translate(115.589382 0)scale(0.996264)" xlink:href="#CMMI12-62"/>
     <use transform="translate(219.135487 0)scale(0.996264)" xlink:href="#CMSY10-0"/>
     <use transform="translate(296.622954 0)scale(0.996264)" xlink:href="#CMR17-49"/>
     <use transform="translate(342.313432 0)scale(0.996264)" xlink:href="#CMMI12-58"/>
     <use transform="translate(369.410609 0)scale(0.996264)" xlink:href="#CMR17-48"/>
     <use transform="translate(415.101086 0)scale(0.996264)" xlink:href="#CMR17-50"/>
    </g>
   </g>
   <g id="text_6">
    <g id="patch_31">
     <path d="M 894.402402 481.552972 
L 987.51275 481.552972 
L 987.51275 454.149091 
L 894.402402 454.149091 
z
" style="fill:#ffffff;stroke:#000000;stroke-linejoin:miter;"/>
    </g>
    <!-- $x_1 &gt; 0.17$ -->
    <defs>
     <path d="M 45.09375 61.796875 
L 45.09375 64 
L 21.59375 64 
C 9.90625 64 9.703125 65.09375 9.296875 67 
L 7.5 67 
L 4.59375 48.5 
L 6.40625 48.5 
C 6.703125 50.40625 7.40625 55.5 8.59375 57.390625 
C 9.203125 58.1875 16.59375 58.1875 18.296875 58.1875 
L 40.296875 58.1875 
L 29.203125 41.71875 
C 21.796875 30.640625 16.703125 15.671875 16.703125 2.59375 
C 16.703125 1.390625 16.703125 -2 20.296875 -2 
C 23.90625 -2 23.90625 1.390625 23.90625 2.6875 
L 23.90625 7.28125 
C 23.90625 23.65625 26.703125 34.4375 31.296875 41.3125 
z
" id="CMR17-55"/>
    </defs>
    <g style="fill:#262626;" transform="translate(898.362402 473.329784)scale(0.22 -0.22)">
     <use transform="scale(0.996264)" xlink:href="#CMMI12-120"/>
     <use transform="translate(55.43406 -14.943915)scale(0.697382)" xlink:href="#CMR17-49"/>
     <use transform="translate(115.589382 0)scale(0.996264)" xlink:href="#CMMI12-62"/>
     <use transform="translate(219.135487 0)scale(0.996264)" xlink:href="#CMR17-48"/>
     <use transform="translate(264.825964 0)scale(0.996264)" xlink:href="#CMMI12-58"/>
     <use transform="translate(291.923141 0)scale(0.996264)" xlink:href="#CMR17-49"/>
     <use transform="translate(337.613618 0)scale(0.996264)" xlink:href="#CMR17-55"/>
    </g>
   </g>
   <g id="legend_1">
    <g id="patch_32">
     <path d="M 983.58257 85.739928 
L 1109.2 85.739928 
Q 1113.2 85.739928 1113.2 81.739928 
L 1113.2 27.988661 
Q 1113.2 23.988661 1109.2 23.988661 
L 983.58257 23.988661 
Q 979.58257 23.988661 979.58257 27.988661 
L 979.58257 81.739928 
Q 979.58257 85.739928 983.58257 85.739928 
z
" style="fill:#ffffff;opacity:0.8;stroke:#cccccc;stroke-linejoin:miter;"/>
    </g>
    <g id="line2d_13">
     <path d="M 987.58257 38.988661 
L 1027.58257 38.988661 
" style="fill:none;stroke:#0000ff;stroke-width:20;"/>
    </g>
    <g id="line2d_14"/>
    <g id="text_7">
     <!-- Class -1 -->
     <defs>
      <path d="M 54.703125 11.015625 
C 48 6.5 44.90625 5.1875 36.796875 5.1875 
C 22.796875 5.1875 14.59375 20.375 14.59375 34.234375 
C 14.59375 49.015625 23 63.59375 37.203125 63.59375 
C 43.59375 63.59375 47.796875 61.78125 52.90625 58.5625 
L 54.296875 66.484375 
C 49.5 68.890625 43.40625 70 37.296875 70 
C 18.09375 70 6.203125 52.234375 6.203125 34.234375 
C 6.203125 14.4375 20.296875 -1.203125 36.296875 -1.203125 
C 44.90625 -1.203125 47.90625 -0.5 55.296875 4.1875 
z
" id="CMSS17-67"/>
      <path d="M 14.796875 69 
L 7.40625 69 
L 7.40625 0 
L 14.796875 0 
z
" id="CMSS17-108"/>
      <path d="M 37.59375 27.953125 
C 37.59375 37.484375 30.90625 44 21.90625 44 
C 17.5 44 12.703125 43.1875 7.203125 39.984375 
L 7.796875 33.328125 
C 10.296875 35.15625 14.59375 38.09375 21.796875 38.09375 
C 26.90625 38.09375 30 34.140625 30 27.84375 
L 30 24 
C 14 23.5 4 18.890625 4 11.109375 
C 4 7.0625 6.5 -1 14.796875 -1 
C 16.296875 -1 24.40625 -0.8125 30.203125 3.5 
L 30.203125 -0.203125 
L 37.59375 -0.203125 
z
M 30 12.875 
C 30 11.109375 30 8.734375 27 6.96875 
C 24.40625 5.296875 21.09375 5.09375 19.703125 5.09375 
C 14.703125 5.09375 11.296875 7.859375 11.296875 11.296875 
C 11.296875 18.203125 26.90625 18.890625 30 19 
z
" id="CMSS17-97"/>
      <path d="M 32.203125 40.984375 
C 26.296875 43.796875 21.703125 44 18.703125 44 
C 11.59375 44 3.09375 41.484375 3.09375 31.390625 
C 3.09375 21.296875 14.09375 19.09375 17.09375 18.484375 
C 21.703125 17.59375 26.796875 16.59375 26.796875 11.59375 
C 26.796875 5.296875 19.59375 5.296875 18.296875 5.296875 
C 14.296875 5.296875 8.796875 6.390625 3.796875 9.984375 
L 2.59375 3.296875 
C 8.296875 0 13.796875 -1 18.40625 -1 
C 30.703125 -1 33.796875 6.5 33.796875 12.1875 
C 33.796875 17.09375 31 20.390625 29.09375 21.890625 
C 25.796875 24.484375 24.59375 24.796875 16.40625 26.484375 
C 15 26.6875 10.09375 27.796875 10.09375 32.296875 
C 10.09375 37.984375 16.40625 37.984375 17.796875 37.984375 
C 24.296875 37.984375 28.296875 35.984375 31 34.484375 
z
" id="CMSS17-115"/>
      <path d="M 26 19 
L 26 24.796875 
L 1 24.796875 
L 1 19 
z
" id="CMSS17-45"/>
      <path d="M 28.40625 67 
L 26.5 67 
C 21.09375 61.703125 14.796875 60.96875 8.40625 60.796875 
L 8.40625 55 
C 11.296875 55.09375 16 55.296875 20.703125 57.390625 
L 20.703125 5.796875 
L 8.90625 5.796875 
L 8.90625 0 
L 40.203125 0 
L 40.203125 5.796875 
L 28.40625 5.796875 
z
" id="CMSS17-49"/>
     </defs>
     <g style="fill:#262626;" transform="translate(1043.58257 45.988661)scale(0.2 -0.2)">
      <use transform="scale(0.996264)" xlink:href="#CMSS17-67"/>
      <use transform="translate(59.855772 0)scale(0.996264)" xlink:href="#CMSS17-108"/>
      <use transform="translate(82.036495 0)scale(0.996264)" xlink:href="#CMSS17-97"/>
      <use transform="translate(126.958415 0)scale(0.996264)" xlink:href="#CMSS17-115"/>
      <use transform="translate(162.871957 0)scale(0.996264)" xlink:href="#CMSS17-115"/>
      <use transform="translate(230.014612 0)scale(0.996264)" xlink:href="#CMSS17-45"/>
      <use transform="translate(261.243725 0)scale(0.996264)" xlink:href="#CMSS17-49"/>
     </g>
    </g>
    <g id="line2d_15">
     <path d="M 987.58257 66.864295 
L 1027.58257 66.864295 
" style="fill:none;stroke:#ffa500;stroke-width:20;"/>
    </g>
    <g id="line2d_16"/>
    <g id="text_8">
     <!-- Class 1 -->
     <g style="fill:#262626;" transform="translate(1043.58257 73.864295)scale(0.2 -0.2)">
      <use transform="scale(0.996264)" xlink:href="#CMSS17-67"/>
      <use transform="translate(59.855772 0)scale(0.996264)" xlink:href="#CMSS17-108"/>
      <use transform="translate(82.036495 0)scale(0.996264)" xlink:href="#CMSS17-97"/>
      <use transform="translate(126.958415 0)scale(0.996264)" xlink:href="#CMSS17-115"/>
      <use transform="translate(162.871957 0)scale(0.996264)" xlink:href="#CMSS17-115"/>
      <use transform="translate(230.014612 0)scale(0.996264)" xlink:href="#CMSS17-49"/>
     </g>
    </g>
   </g>
  </g>
 </g>
 <defs>
  <clipPath id="p278cd83990">
   <rect height="869.827673" width="1116" x="7.2" y="13.988661"/>
  </clipPath>
 </defs>
</svg>
